<svg xmlns="http://www.w3.org/2000/svg" width="473.041" height="473.141"><path d="M218.02 472.842c-16.575-1.99-21.717-2.755-30-4.46-53.045-10.925-101.243-40.685-136.569-84.327C24.287 350.495 5.51 303.87 1.096 259.02c-7.46-75.792 23.543-152.848 81.425-202.379 35.24-30.157 76.44-48.558 124-55.383 11.692-1.677 48.308-1.677 60 0 62.935 9.031 115.54 38.74 155.07 87.575 27.164 33.559 45.94 80.183 50.355 125.034 7.459 75.792-23.544 152.848-81.425 202.38-34.28 29.333-74.491 47.684-120 54.762-9.537 1.483-45.08 2.724-52.5 1.833zm51.982-15.924c87.976-13.666 160.347-79.328 182.02-165.148 5.094-20.167 6.427-31.645 6.427-55.326 0-15.634-.48-24.546-1.76-32.663-15.47-98.063-90.076-172.763-187.764-188.002-15.811-2.466-48.997-2.466-64.808 0C122.973 28.437 55.82 83.205 27.554 159.781c-9.234 25.016-12.962 47.063-12.962 76.663 0 23.68 1.333 35.16 6.426 55.326 17.2 68.106 67.628 125.629 132.945 151.651 18.93 7.541 39.765 12.733 60.058 14.963 11.883 1.307 43.454.48 55.98-1.466zm-36.981-115.72v-71.245l-40.453 40.443c-40.075 40.066-40.472 40.426-42.5 38.59-1.126-1.018-2.047-2.347-2.047-2.952 0-.604 19.125-20.22 42.5-43.59l42.5-42.491-.049-45.505-.049-45.504-39.701 40.276c-21.836 22.152-40.194 40.264-40.796 40.25-.603-.014-1.902-.918-2.888-2.008-1.755-1.939-1.215-2.574 25.276-29.75 14.888-15.272 34.075-34.738 42.638-43.256l15.569-15.488V68.953l-40.292 40.282-40.29 40.282-2.419-2.573-2.417-2.574 44.456-44.465 44.456-44.464 44.463 44.463 44.463 44.463-2.419 2.575-2.419 2.575-40.291-40.282-40.291-40.282v90.015l15.568 15.488c8.563 8.518 27.75 27.984 42.638 43.256 26.491 27.176 27.031 27.811 25.277 29.75-.986 1.09-2.286 1.994-2.888 2.008-.603.015-18.96-18.098-40.797-40.25l-39.7-40.276-.05 45.504-.048 45.505 42.5 42.49c23.375 23.37 42.5 42.987 42.5 43.591 0 .605-.922 1.934-2.048 2.953-2.028 1.835-2.425 1.475-42.5-38.59l-40.452-40.444v142.491h-7v-71.246zm197-292.254v-10.5h-4c-3.6 0-4-.25-4-2.5v-2.5h21v2.5c0 2.25-.4 2.5-4 2.5h-4v21h-5v-10.5zm16-2.5v-13h2.914c2.342 0 3.637.983 6.586 5 2.018 2.75 3.97 4.99 4.335 4.977.365-.012 2.24-2.252 4.165-4.977 2.733-3.87 4.102-4.96 6.25-4.978l2.75-.022v26h-2.461c-2.4 0-2.469-.21-2.75-8.555l-.29-8.556-3.892 5.22-3.892 5.22-2.108-2.896c-1.159-1.593-3.106-4.03-4.326-5.415l-2.218-2.518-.032 8.75c-.031 8.658-.058 8.75-2.532 8.75h-2.5v-13z" fill="#f4f4f4"/></svg>