<svg xmlns="http://www.w3.org/2000/svg" width="31.658" height="37.776"><path d="M13.066 34.037c-1.843-.593-1.751-4.199.124-4.893.823-.305 2.203-.122 3.068.407 2.126 1.298 8.529 1.25 9.375-.071.384-.6-.04-.798-.969-.454-1.23.456-1.494.037-1.039-1.644.337-1.24 1.053-2.519 1.593-2.84.54-.323.98-2.287.98-4.366 0-3.304.317-3.737 2.511-3.436 1.833.251 2.61 1.184 2.879 3.457.202 1.713-.049 3.409-.558 3.77-.51.36-1.695 2.102-2.634 3.87-1.026 1.932-3.032 3.58-5.021 4.125-1.822.5-4.578 1.27-6.125 1.712-1.547.442-3.43.605-4.184.363zm3.091-2.416c0-.592-.502-1.077-1.116-1.077-.613 0-1.115.485-1.115 1.077s.502 1.077 1.115 1.077c.614 0 1.116-.485 1.116-1.077zm13.005-13.212c-.306-.729-.537.129-.514 1.905.022 1.777.272 2.374.555 1.326.283-1.048.265-2.502-.041-3.23z" fill="#feb360"/><path d="M7.63 34.015c-1.933-2.06-3.514-4.425-3.514-5.254 0-.83-.938-2.318-2.086-3.306C.394 24.046-.043 22.41.003 17.861c.033-3.19.62-7.434 1.304-9.433C2.746 4.227 8.324 0 12.429 0c4.519 0 12.537 3.2 14.087 5.623 2.007 3.137 3.183 10.11 1.706 10.11-.638 0-1.16-1.451-1.16-3.227 0-3.768-4.899-9.36-8.202-9.36-1.157 0-2.412-.499-2.787-1.11-.408-.664-1.998-.82-3.957-.386C5.034 3.214 1.94 7.359 2.154 14.997c.11 3.951.192 4.085.787 1.29.578-2.71 1.263-3.222 5.227-3.903 2.51-.43 5.651-1.5 6.98-2.376 2.22-1.463 2.717-1.401 6.08.755 3.225 2.07 3.65 2.847 3.567 6.544-.09 4.036-.118 4.07-.738.869-.355-1.83-1.919-4.33-3.476-5.554-2.578-2.027-3.09-2.092-5.736-.732-1.598.821-4.431 1.824-6.296 2.228-2.92.632-3.39 1.175-3.39 3.92 0 2.669-.338 3.096-2.086 2.637-2.569-.676-2.585-.348-.16 3.23 1.06 1.564 3.173 4.84 4.696 7.281 3.203 5.133 6.727 6.528 10.242 4.052 3.374-2.376 5.006-2.011 2.056.46-3.892 3.26-8.195 2.671-12.278-1.683z"/></svg>