<svg xmlns="http://www.w3.org/2000/svg" width="31.925" height="29.902"><path d="M0 24.805v-5.097h9.977v10.194H0zm8.793.254c.055-3.267.2-4.01-3.773-4.01-3.786 0-3.989.192-4.054 2.888-.094 3.919.756 5.419 4.611 4.932 2.609-.329 3.166-.873 3.216-3.81zm2.181-4.332v-9.175h9.977v18.35h-9.977zm8.773.255l.294-7.39h-8.069v6.965c0 3.831.32 7.293.712 7.694.392.4 2.076.591 3.741.425l3.03-.304zm2.201-5.352V1.358h9.977v28.544h-9.977zm8.76.255l.28-12.488h-8.042V15.46c0 6.635.32 12.39.712 12.79.392.401 2.076.592 3.742.426l3.029-.304z"/><path d="M.313 13.123c0-.44 2.455-3.358 5.53-6.37l5.153-5.146L8.587.537c1.92.853-1.699-.305 1.201-.533L14.595 0l-.005 4.055c-.003 2.43-.455 1.873-1.069.043-.723-2.154-3.996 2.831-6.19 4.18-2.194 1.35-6.194 7.075-6.795 5.448z" fill="#feac51"/></svg>