<svg xmlns="http://www.w3.org/2000/svg" width="57.911" height="59.038"><path d="M14.599 57.577c-1.045-2.757 2.7-12.759 6.04-16.138 1.974-1.996 5.057-3.662 8.367-4.52 4.73-1.225 5.242-1.63 5.242-4.14 0-1.531.404-3.037.898-3.346.963-.603 14.235 9.373 14.716 11.061.367 1.29-13.623 11.746-14.762 11.033-.469-.294-.852-1.644-.852-3.002 0-2.076-.483-2.468-3.035-2.468-5.36 0-10.888 3.662-13.07 8.66-2.145 4.91-2.622 5.295-3.544 2.86zm16.93-13.912c4.692-.123 5.247.09 5.534 2.132.312 2.228.394 2.21 4.559-1.011 2.333-1.804 4.436-3.585 4.674-3.957.238-.372-1.67-2.303-4.241-4.291-4.468-3.456-4.688-3.518-4.992-1.418-.253 1.748-1.4 2.443-5.604 3.398-5.084 1.155-9.342 4.083-11.306 7.772-.8 1.504-.432 1.452 2.614-.368 2.242-1.34 5.465-2.17 8.762-2.257z" fill="#feaf5c"/><path d="M0 20.732V0h57.911v41.463h-2.374c-1.306 0-2.933-.683-3.617-1.517-1.039-1.267-.894-1.517.876-1.517 3.854 0 2.217-2.454-5.943-8.912l-8.063-6.381-3.353 2.59c-3.831 2.96-9.516 3.462-11.52 1.018-3.328-4.062-4.562-3.793-12.91 2.812-4.406 3.488-8.012 6.911-8.012 7.607 0 .908 2.258 1.266 7.988 1.266 4.393 0 7.988.407 7.988.903 0 1.569-2.92 2.131-11.065 2.131H0V20.732zm14.478 2.963l2.995-2.516-3.495-3.027a502.976 502.976 0 0 0-7.238-6.124L2.995 8.932v23.555L7.24 29.35c2.334-1.726 5.591-4.27 7.239-5.655zm40.236-9.001l-.298-5.453-6.49 5.65c-3.57 3.108-6.49 6.01-6.49 6.45 0 .439 2.92 3.09 6.49 5.892l6.49 5.093.298-6.09c.164-3.349.164-8.543 0-11.542zm-11.841 1.248c6.623-5.693 12.042-10.927 12.042-11.63 0-.997-5.703-1.278-25.96-1.278-20.256 0-25.96.28-25.96 1.278 0 1.87 23.752 21.982 25.96 21.982 1.032 0 7.295-4.659 13.918-10.352z"/></svg>