<svg xmlns="http://www.w3.org/2000/svg" width="55.805" height="44"><path d="M17.987 11.066c-4.785-4.753-8.699-8.965-8.699-9.361 0-2.126 3.262.082 10.2 6.902l7.752 7.62L34.448 9.1l7.209-7.128h-4.725c-2.599 0-4.725-.444-4.725-.986 0-.563 2.99-.985 6.976-.985h6.975v6.898c0 3.942-.427 6.898-.997 6.898-.548 0-.996-2.318-.996-5.152V3.492L35.923 11.6c-4.533 4.46-8.466 8.108-8.74 8.108-.274 0-4.412-3.889-9.196-8.642z" fill="#feaf5d"/><path d="M1.98 42.91c-.606-.829-1.403-3.653-1.772-6.275-.92-6.54 1.107-9.68 8.324-12.895 5.01-2.232 7.64-2.583 19.338-2.583 11.697 0 14.328.351 19.338 2.583 7.113 3.169 9.213 6.357 8.449 12.83-.848 7.181-2.083 8.021-9.075 6.174-6.814-1.8-7.801-2.7-9.208-8.397L36.33 30.12H19.412l-1.32 5.308c-1.28 5.153-1.471 5.347-6.552 6.652-2.878.739-5.96 1.567-6.847 1.84-.887.272-2.108-.182-2.714-1.011zm7.795-3.2c4.88-1.188 5.112-1.422 6.17-6.196.887-4.002 1.69-5.195 4.155-6.171 3.943-1.562 11.628-1.55 15.603.024 3.044 1.206 3.386 1.805 4.608 8.072.501 2.569 1.377 3.23 5.66 4.273 7.12 1.735 6.972 1.828 6.972-4.362 0-5.542-.046-5.621-4.764-8.261-4.373-2.447-6.039-2.666-20.31-2.666-14.27 0-15.935.219-20.308 2.666-4.719 2.64-4.764 2.72-4.764 8.261 0 6.19-.15 6.098 6.978 4.36z"/></svg>