<svg xmlns="http://www.w3.org/2000/svg" width="56.057" height="55.997"><path d="M25.878 54.29c0-.3 1.363-3.32 3.028-6.71l3.028-6.163h-5.037c-3.807 0-5.036-.378-5.036-1.548 0-1.31 2.4-1.549 15.568-1.549h15.568V6.322h-16.07c-10.044 0-16.07-.386-16.07-1.031 0-.568 2.463-1.033 5.474-1.033 4.142 0 5.73-.44 6.528-1.806 1.004-1.72 1.105-1.72 2.109 0 .891 1.527 2.602 1.806 11.072 1.806h10.017l-.274 18.322-.275 18.32-9.789.296-9.789.296 3.01 6.126c3.334 6.789 3.453 7.217 1.994 7.217-.559 0-2.235-2.554-3.725-5.677-1.49-3.122-2.973-5.677-3.295-5.677-.323 0-1.806 2.555-3.296 5.677-1.49 3.123-3.166 5.677-3.724 5.677-.559 0-1.016-.245-1.016-.545z"/><path d="M6.895 54.78c-1.522-1.096-1.873-2.693-1.873-8.516 0-3.941-.42-7.166-.933-7.166C1.231 39.098 0 35.638 0 27.602 0 16.616 1.673 13.34 7.303 13.309c2.021-.012 3.105.709 3.957 2.63l1.173 2.645 1.367-2.681c1.352-2.652 1.477-2.678 11.611-2.388 9.94.285 10.255.367 10.584 2.758.469 3.405-1.272 4.211-9.127 4.23l-6.78.015c-1.791 9.69.916 25.934-1.312 33.448-1.61 2.262-9.152 2.78-11.881.814zm4.153-8.973c0-6.193.302-7.742 1.507-7.742 1.205 0 1.507 1.549 1.507 7.742s.301 7.741 1.506 7.741c1.28 0 1.507-2.633 1.507-17.505V18.537l8.205-.3c5.453-.199 8.345-.732 8.621-1.59.311-.965-1.76-1.29-8.221-1.29h-8.638l-1.676 3.613c-2.116 4.56-3.506 4.56-5.622 0-1.741-3.753-3.464-4.493-5.526-2.374C2.723 18.133 2.538 36 4.018 36c.575 0 1.004-3.125 1.004-7.311 0-5.39.33-7.199 1.256-6.883.914.312 1.33 4.686 1.532 16.085.23 12.977.53 15.656 1.758 15.656 1.173 0 1.48-1.609 1.48-7.741zM7.365 8.529C5.823 6.112 5.798 5.546 7.122 3.11 8.165 1.192 9.572.294 11.899.062c4.228-.42 6.18 1.288 6.18 5.41 0 4.176-1.565 5.757-5.702 5.757-2.44 0-3.736-.698-5.012-2.7zm7.77-1c1.785-2.209-.01-5.074-3.178-5.074-2.733 0-3.764 2.869-1.873 5.21 1.575 1.951 3.407 1.902 5.052-.136z" fill="#feb161"/></svg>