<?xml version="1.0" encoding="UTF-8"?><!DOCTYPE svg PUBLIC "-//W3C//DTD SVG 1.1//EN" "http://www.w3.org/Graphics/SVG/1.1/DTD/svg11.dtd"><svg xmlns="http://www.w3.org/2000/svg"><defs>
        <style>
            .cls-1{fill-rule:evenodd}
        </style>
    </defs><symbol id="icon-arrow" viewBox="0 0 54.8 91">
    <path d="M54.8 45.538l-5.3-5.5-38-40-11.5 11 32.8 34.5L0 79.938l11.6 11 38-40 5.2-5.4z"/>
</symbol><symbol id="icon-class" viewBox="0 0 3.5277801 5.41465">
    <path d="M0 2.707V0h3.528v5.415l-.882-.829-.882-.828-.882.828L0 5.415z"/>
</symbol><symbol id="icon-close" viewBox="0 0 17 17">
    
    <path id="Rectangle_10_copy" data-name="Rectangle 10 copy" class="cls-1" d="M735.928 25.514l15.556 15.556-1.414 1.415-15.556-15.557zm-1.414 15.556l15.556-15.556 1.414 1.415-15.556 15.556z" transform="translate(-734.5 -25.5)"/>
</symbol><symbol id="icon-earth" viewBox="0 0 500 500">
    <path clip-rule="evenodd" d="M36.992 249.5c0 117.932 95.574 213.508 213.508 213.508 117.932 0 213.508-95.576 213.508-213.508 0-117.93-95.576-213.51-213.508-213.51-117.934.001-213.508 95.581-213.508 213.51zm45.426 0c0-10.905.993-21.534 3-31.799h43.607c-.816 8.997-1.181 18.083-1.181 27.256 0 9.174.365 18.26 1.181 27.258h-45.15c-1.003-7.453-1.457-14.991-1.457-22.715zm18.811-77.226c13.254-25.712 32.978-47.518 57.05-63.324a315.439 315.439 0 0 0-22.163 63.324h-34.887zM226.42 83.145l1.366-.182v89.312h-44.7c8.996-32.527 23.806-62.69 43.334-89.13zm46.795-.182l1.269.182c19.537 26.441 34.434 56.603 43.429 89.13h-44.697V82.963zm69.406 25.988c24.084 15.806 43.887 37.611 57.15 63.324h-34.978c-5.088-22.075-12.63-43.245-22.172-63.324zm72.961 108.75c1.998 10.265 2.999 20.895 2.999 31.799 0 7.723-.551 15.261-1.543 22.715h-44.977a336.962 336.962 0 0 0 1.094-27.258c0-9.174-.363-18.26-1.094-27.256h43.521zm-11.356 99.942c-14.267 32.073-38.251 58.876-68.229 76.586 12.725-23.892 22.437-49.595 28.798-76.586h39.431zm-239.222 76.586c-29.979-17.71-53.963-44.513-68.23-76.586h39.43c6.361 26.991 16.078 52.79 28.8 76.586zm9.636-176.528h53.146v54.515H174.64a269.56 269.56 0 0 1-1.366-27.258c0-9.174.453-18.26 1.366-27.257zm98.575 0h53.146a269.813 269.813 0 0 1 1.367 27.256c0 9.174-.454 18.26-1.367 27.258h-53.146v-54.514zm-90.129 99.942h44.7v90.854c-20.176-26.893-35.526-57.601-44.7-90.854zm90.129 0h44.697c-9.174 33.254-24.531 63.961-44.697 90.854v-90.854z" fill-rule="evenodd"/>
</symbol><symbol id="icon-facebook" viewBox="0 0 1792 1792">
    <path d="M1579 128q35 0 60 25t25 60v1366q0 35-25 60t-60 25h-391v-595h199l30-232h-229V689q0-56 23.5-84t91.5-28l122-1V369q-63-9-178-9-136 0-217.5 80T948 666v171H748v232h200v595H213q-35 0-60-25t-25-60V213q0-35 25-60t60-25h1366z"/>
</symbol><symbol id="icon-google-plus" viewBox="0 0 56.6934 56.6934">
    <path d="M19.667 25.787c-.007 1.793 0 3.587.008 5.38 3.006.098 6.02.053 9.027.098-1.326 6.669-10.399 8.832-15.199 4.476-4.936-3.82-4.702-12.2.43-15.749 3.587-2.864 8.688-2.155 12.275.324 1.41-1.304 2.728-2.698 4.001-4.144-2.984-2.382-6.646-4.077-10.542-3.896-8.13-.272-15.606 6.85-15.741 14.98-.52 6.646 3.85 13.165 10.022 15.516 6.149 2.366 14.03.753 17.957-4.77 2.592-3.49 3.15-7.98 2.848-12.2-5.034-.038-10.06-.03-15.086-.015z"/>
    <path d="M49.07 25.764c-.015-1.5-.022-3.007-.03-4.506h-4.483c-.015 1.5-.03 2.999-.038 4.506-1.507.008-3.007.015-4.506.03v4.484l4.506.045c.015 1.5.015 3 .03 4.499h4.491c.008-1.5.015-3 .03-4.506 1.507-.015 3.007-.023 4.507-.038v-4.484c-1.5-.015-3.007-.015-4.507-.03z"/>
</symbol><symbol id="icon-linkedin" viewBox="0 0 512 512">
    <path d="M409.391 511.359V317.203s-5.75-51.938-56-51.938c-50.219 0-59.406 49.375-59.406 49.375v196.719h-103.5l1.688-320.719h100.125l-.813 40.313s20.876-52.688 99.531-52.688c78.625 0 114.25 45.188 120.875 129.688v203.406h-102.5zM63.547 145.078c-35.563 0-64.438-25.438-64.438-56.875s28.875-56.938 64.438-56.938 64.438 25.5 64.438 56.938-28.876 56.875-64.438 56.875zm63.875 366.656H.172V191.453l127.25-.813v321.094z"/>
</symbol><symbol id="icon-location" viewBox="0 0 512 512">
    <path d="M256 32c-74 0-134.2 58.7-134.2 132.7 0 16.4 3.5 34.3 9.8 50.4h-.1l.6 1.2 1.5 3.3L256 480l121.8-259.1.6-1.2c.5-1.1 1.1-2.2 1.6-3.4l.4-1.1c6.5-16.1 9.8-33.1 9.8-50.3C390.2 90.7 330 32 256 32zm0 174.9c-25.9 0-46.9-21-46.9-46.9s21-46.9 46.9-46.9 46.9 21 46.9 46.9-21 46.9-46.9 46.9z"/>
</symbol><symbol id="icon-pinterest" viewBox="0 0 32 32">
    <path d="M15.996.007C7.162.007 0 7.168 0 16.004c0 6.551 3.938 12.177 9.575 14.65-.045-1.118-.008-2.459.278-3.672l2.058-8.719s-.512-1.021-.512-2.529c0-2.369 1.376-4.14 3.087-4.14 1.454 0 2.157 1.091 2.157 2.4 0 1.462-.934 3.65-1.412 5.676-.401 1.696.852 3.08 2.522 3.08 3.031 0 5.072-3.891 5.072-8.504 0-3.505-2.361-6.128-6.655-6.128-4.852 0-7.874 3.617-7.874 7.659 0 1.394.411 2.377 1.054 3.138.297.35.338.489.229.891-.074.296-.25 1.003-.324 1.283-.107.407-.434.551-.801.4-2.235-.91-3.275-3.358-3.275-6.11 0-4.543 3.831-9.993 11.433-9.993 6.106 0 10.128 4.42 10.128 9.164 0 6.275-3.491 10.963-8.633 10.963-1.728 0-3.353-.934-3.907-1.992 0 0-.93 3.686-1.125 4.396-.34 1.231-1.004 2.466-1.61 3.427a15.94 15.94 0 0 0 4.531.656c8.834 0 15.995-7.16 15.995-15.996S24.83.007 15.996.007z"/>
</symbol><symbol id="icon-school" viewBox="0 0 4.2333298 4.93889">
    <path d="M0 2.47V0H4.233v4.939H0zm1.764 1.058a.354.354 0 0 0-.353-.353.354.354 0 0 0-.353.353c0 .194.16.353.353.353a.354.354 0 0 0 .353-.353zm1.411 0a.354.354 0 0 0-.353-.353.354.354 0 0 0-.353.353c0 .194.16.353.353.353a.354.354 0 0 0 .353-.353zM1.764 2.469a.354.354 0 0 0-.353-.352.354.354 0 0 0-.353.352c0 .194.16.353.353.353a.354.354 0 0 0 .353-.353zm1.411 0a.354.354 0 0 0-.353-.352.354.354 0 0 0-.353.352c0 .194.16.353.353.353a.354.354 0 0 0 .353-.353zM1.764 1.411a.354.354 0 0 0-.353-.353.354.354 0 0 0-.353.353c0 .194.16.353.353.353a.354.354 0 0 0 .353-.353zm1.411 0a.354.354 0 0 0-.353-.353.354.354 0 0 0-.353.353c0 .194.16.353.353.353a.354.354 0 0 0 .353-.353z" stroke-width=".353"/>
</symbol><symbol id="icon-search" viewBox="0 0 88.1 88.1">
    <path d="M88.1 82.4L65.7 60.1C77.4 45.6 76.5 24.3 63 10.8 56.1 3.8 46.8 0 36.9 0 27 0 17.8 3.8 10.8 10.8 3.8 17.8 0 27.1 0 36.9S3.8 56 10.8 63c7 7 16.3 10.8 26.1 10.8 8.5 0 16.6-2.9 23.1-8.1l22.4 22.4 5.7-5.7zM36.9 65.9c-7.7 0-15-3-20.5-8.5C11 51.9 8 44.7 8 36.9s3-15 8.5-20.5C21.9 11 29.2 8 36.9 8c7.7 0 15 3 20.5 8.5 11.3 11.3 11.3 29.6 0 40.9-5.5 5.5-12.7 8.5-20.5 8.5z"/>
</symbol><symbol id="icon-star" viewBox="0 0 512 512">
    <path d="M480 207H308.6L256 47.9 203.4 207H32l140.2 97.9L117.6 464 256 365.4 394.4 464l-54.7-159.1L480 207zM362.6 421.2l-106.6-76-106.6 76L192 298.7 84 224h131l41-123.3L297 224h131l-108 74.6 42.6 122.6z"/>
</symbol><symbol id="icon-twitter" viewBox="0 0 32 32">
    <path d="M31.993 6.077a13.027 13.027 0 0 1-3.77 1.033 6.588 6.588 0 0 0 2.887-3.63 13.144 13.144 0 0 1-4.168 1.592A6.56 6.56 0 0 0 22.149 3a6.562 6.562 0 0 0-6.562 6.563c0 .514.057 1.016.169 1.496-5.455-.274-10.291-2.887-13.529-6.858a6.544 6.544 0 0 0-.888 3.3 6.564 6.564 0 0 0 2.919 5.464 6.544 6.544 0 0 1-2.972-.821l-.001.082a6.568 6.568 0 0 0 5.265 6.437 6.606 6.606 0 0 1-2.963.113 6.572 6.572 0 0 0 6.13 4.558 13.166 13.166 0 0 1-8.15 2.811c-.53 0-1.053-.031-1.566-.092A18.592 18.592 0 0 0 10.062 29c12.072 0 18.675-10.001 18.675-18.675 0-.284-.008-.568-.02-.85a13.315 13.315 0 0 0 3.276-3.398z"/>
</symbol></svg>