<svg xmlns="http://www.w3.org/2000/svg" width="62.719" height="62.688"><path d="M31.375 0C14.061 0 0 14.03 0 31.344s14.06 31.343 31.375 31.343c17.314 0 31.344-14.029 31.344-31.343S48.689 0 31.375 0zm0 4.281c14.95 0 27.063 12.113 27.063 27.063S46.325 58.406 31.375 58.406 4.281 46.294 4.281 31.344c0-14.95 12.144-27.063 27.094-27.063z" fill="#fff"/><path d="M58.428 31.344c0 14.95-12.119 27.07-27.069 27.07S4.29 46.293 4.29 31.343c0-14.95 12.12-27.07 27.07-27.07 14.95 0 27.068 12.12 27.068 27.07z" fill="#ff2727"/><path d="M27.531 23.297V39.39l11.657-8.063-11.657-8.031z" fill="#fff"/></svg>