<svg xmlns="http://www.w3.org/2000/svg" width="75.461" height="75.466"><path d="M26.676 74.327C15.507 70.063 7.586 62.997 3.03 53.23.58 47.983.23 46.04.23 37.73c0-8.312.353-10.263 2.822-15.604C6.62 14.404 14.355 6.702 22.23 3.029 27.477.582 29.423.23 37.73.23c8.308 0 10.253.352 15.5 2.799 7.875 3.673 15.61 11.375 19.179 19.097 2.469 5.341 2.821 7.292 2.821 15.604 0 8.308-.351 10.253-2.798 15.5-3.686 7.902-11.379 15.618-19.097 19.154-4.908 2.249-7.77 2.846-14.605 3.049-5.334.158-9.824-.254-12.054-1.106zM68.159 50.16c1.992-1.992 1.974-2.256-.418-6.179-2.359-3.87-3.58-4.103-4.398-.843-.332 1.324-.857 3.066-1.166 3.871-.557 1.451 1.905 4.722 3.553 4.722.472 0 1.565-.707 2.429-1.571zM14.216 42.1c.896-.896 1.376-2.287 1.067-3.093-.308-.805-.833-2.547-1.165-3.87-.819-3.261-2.04-3.027-4.399.842-2.392 3.923-2.41 4.187-.417 6.179 1.985 1.985 2.882 1.975 4.914-.058z" fill="#fee8a5"/><path d="M29.925 74.663c-6.687-1.316-13.23-4.968-18.695-10.433-14.973-14.973-14.973-38.026 0-53 14.974-14.973 38.027-14.973 53 0 14.974 14.974 14.974 38.027 0 53-9.368 9.369-21.293 12.996-34.305 10.433zM68.53 50.53c1.934-1.934 1.398-4.547-1.628-7.933l-2.828-3.166-1.3 4.643c-1.041 3.72-1.051 4.942-.05 6.15 1.505 1.812 4.16 1.952 5.806.306zm-53.794-8.307c1.002-1.207.992-2.43-.05-6.149l-1.3-4.643-2.828 3.166c-1.555 1.74-2.828 3.968-2.828 4.949 0 3.819 4.6 5.577 7.006 2.677z" fill="#fed65f"/><path d="M32.175 74.662C13.855 72.25.572 56.726.572 37.73.572 16.432 16.432.572 37.73.572c21.299 0 37.158 15.86 37.158 37.158 0 23.306-19.323 40.013-42.713 36.932zM68.53 50.53c2.02-2.02 1.346-5.286-1.69-8.195-3.19-3.055-3.604-2.815-4.632 2.665-1.04 5.541 2.881 8.972 6.322 5.531zm-53.809-8.289c1.152-1.388.718-7.554-.691-9.835-.85-1.374-6.3 4.52-6.3 6.811 0 4.102 4.487 6.042 6.991 3.024z" fill="#fdc927"/><path d="M17.74 56.548c.005-.725 1.352-3.66 2.994-6.522 8.265-14.41 26.734-13.878 34.521.996 1.61 3.074 2.694 5.823 2.409 6.108-.286.285-3.2-.202-6.476-1.082-9.558-2.569-19.803-2.146-31.708 1.31-1.04.301-1.746-.027-1.74-.81zM14.763 25.27c-.997-1.202-.62-1.821 2.128-3.496 4.272-2.605 9.427-2.593 13.732.032 3.114 1.899 3.26 2.2 1.787 3.674-1.474 1.473-1.899 1.447-5.18-.32-3.427-1.845-3.698-1.853-6.618-.177-3.699 2.123-4.3 2.153-5.849.287zm28 0c-.997-1.202-.62-1.821 2.128-3.496 4.272-2.605 9.427-2.593 13.732.032 3.114 1.899 3.26 2.2 1.787 3.674-1.474 1.473-1.899 1.447-5.18-.32-3.427-1.845-3.698-1.853-6.618-.177-3.699 2.123-4.3 2.153-5.849.287z" fill="#e8a220"/><path d="M17.73 57.298c0-1.502 3.458-7.958 5.672-10.59 9.58-11.384 26.76-7.848 32.865 6.765.805 1.926 1.463 3.647 1.463 3.825 0 .179-2.362-.417-5.25-1.323-3.333-1.046-8.718-1.647-14.75-1.647-6.031 0-11.417.601-14.75 1.647-2.887.906-5.25 1.502-5.25 1.323zm-1.889-31.934c-1.941-2.34 2.353-5.134 7.89-5.134 5.535 0 9.83 2.795 7.889 5.134-.914 1.101-1.468 1.075-3.22-.152-2.702-1.893-6.637-1.893-9.34 0-1.752 1.227-2.305 1.253-3.219.152zm28 0c-1.941-2.34 2.353-5.134 7.89-5.134 5.535 0 9.83 2.795 7.889 5.134-.914 1.101-1.468 1.075-3.22-.152-2.702-1.893-6.637-1.893-9.34 0-1.752 1.227-2.305 1.253-3.219.152z" fill="#d26220"/><path d="M18.73 55.402c0-2.503 6.134-10.592 9.706-12.799 4.937-3.051 13.651-3.051 18.588 0C50.596 44.81 56.73 52.9 56.73 55.402c0 1.635.305 1.643-6.661-.172-3.167-.825-8.72-1.5-12.339-1.5-3.619 0-9.171.675-12.338 1.5-6.967 1.815-6.662 1.807-6.662.172zm-2.889-30.038c-1.941-2.34 2.353-5.134 7.89-5.134 5.535 0 9.83 2.795 7.889 5.134-.914 1.101-1.468 1.075-3.22-.152-2.702-1.893-6.637-1.893-9.34 0-1.752 1.227-2.305 1.253-3.219.152zm28 0c-1.941-2.34 2.353-5.134 7.89-5.134 5.535 0 9.83 2.795 7.889 5.134-.914 1.101-1.468 1.075-3.22-.152-2.702-1.893-6.637-1.893-9.34 0-1.752 1.227-2.305 1.253-3.219.152z" fill="#b66b08"/><path d="M18.73 55.402c0-2.503 6.134-10.592 9.706-12.799 4.937-3.051 13.651-3.051 18.588 0C50.596 44.81 56.73 52.9 56.73 55.402c0 1.635.305 1.643-6.661-.172-3.167-.825-8.72-1.5-12.339-1.5-3.619 0-9.171.675-12.338 1.5-6.967 1.815-6.662 1.807-6.662.172z" fill="#c52726"/></svg>