<svg xmlns="http://www.w3.org/2000/svg" width="162.12" height="131"><path d="M49.806 129.004c-9.069-2.417-21.955-8.743-28.46-13.972-6.537-5.255-13.46-14.827-17.587-24.314L.62 83.5.31 41.75 0 0h70.12v67H38.83l.591 6.75c.836 9.534 3.183 15.46 8.437 21.303 4.577 5.091 12.89 10.077 19.012 11.402l3.25.704V131l-6.75-.09c-3.713-.05-9.816-.908-13.564-1.906zm96.389.909c-20.132-3.95-38.95-16.651-46.874-31.638-7.283-13.772-7.201-13.119-7.201-57.932V0h70v67h-31.263l.468 7.305c1.013 15.78 10.298 26.882 26.545 31.74l4.25 1.272V131l-5.75-.11c-3.163-.06-7.742-.5-10.175-.977z" fill="#007fa2"/></svg>