<?xml version="1.0" encoding="UTF-8" standalone="no"?>
<!-- Created with Inkscape (http://www.inkscape.org/) -->

<svg
   xmlns:dc="http://purl.org/dc/elements/1.1/"
   xmlns:cc="http://creativecommons.org/ns#"
   xmlns:rdf="http://www.w3.org/1999/02/22-rdf-syntax-ns#"
   xmlns:svg="http://www.w3.org/2000/svg"
   xmlns="http://www.w3.org/2000/svg"
   xmlns:sodipodi="http://sodipodi.sourceforge.net/DTD/sodipodi-0.dtd"
   xmlns:inkscape="http://www.inkscape.org/namespaces/inkscape"
   width="75.460503"
   height="75.465881"
   id="svg2"
   version="1.1"
   inkscape:version="0.48.5 r10040"
   sodipodi:docname="New document 1">
  <defs
     id="defs4" />
  <sodipodi:namedview
     id="base"
     pagecolor="#ffffff"
     bordercolor="#666666"
     borderopacity="1.0"
     inkscape:pageopacity="0.0"
     inkscape:pageshadow="2"
     inkscape:zoom="0.32"
     inkscape:cx="1028.2703"
     inkscape:cy="-240.14356"
     inkscape:document-units="px"
     inkscape:current-layer="layer1"
     showgrid="false"
     fit-margin-top="0"
     fit-margin-left="0"
     fit-margin-right="0"
     fit-margin-bottom="0"
     inkscape:window-width="1366"
     inkscape:window-height="717"
     inkscape:window-x="0"
     inkscape:window-y="0"
     inkscape:window-maximized="1" />
  <metadata
     id="metadata7">
    <rdf:RDF>
      <cc:Work
         rdf:about="">
        <dc:format>image/svg+xml</dc:format>
        <dc:type
           rdf:resource="http://purl.org/dc/dcmitype/StillImage" />
        <dc:title></dc:title>
      </cc:Work>
    </rdf:RDF>
  </metadata>
  <g
     inkscape:label="Layer 1"
     inkscape:groupmode="layer"
     id="layer1"
     transform="translate(-265.40402,-534.49565)">
    <g
       id="g3068"
       transform="translate(-542.58002,-202.9934)">
      <path
         style="fill:#fee8a5"
         d="m 834.65961,811.81636 c -11.1684,-4.26391 -19.08902,-11.33078 -23.64581,-21.09706 -2.4485,-5.24771 -2.79951,-7.19113 -2.79951,-15.5 0,-8.31268 0.35261,-10.26296 2.8213,-15.60457 3.56886,-7.72211 11.30368,-15.42397 19.1787,-19.09696 5.24684,-2.44719 7.1925,-2.79847 15.5,-2.79847 8.3075,0 10.25316,0.35128 15.5,2.79847 7.87502,3.67299 15.60984,11.37485 19.1787,19.09696 2.46869,5.34161 2.8213,7.29189 2.8213,15.60457 0,8.3075 -0.35128,10.25316 -2.79847,15.5 -3.68568,7.90221 -11.37854,15.61806 -19.09696,19.15403 -4.9083,2.2486 -7.77025,2.84597 -14.60457,3.04839 -5.33404,0.15798 -9.82399,-0.25372 -12.05468,-1.10536 z m 41.48325,-24.16849 c 1.99216,-1.99216 1.97437,-2.25544 -0.41761,-6.17857 -2.35925,-3.86946 -3.57995,-4.1034 -4.39829,-0.8429 -0.33228,1.3239 -0.85694,3.06588 -1.16592,3.87106 -0.55679,1.45098 1.90457,4.72184 3.55325,4.72184 0.47143,0 1.56429,-0.70714 2.42857,-1.57143 z m -53.94249,-8.05751 c 0.89592,-0.89592 1.37614,-2.28772 1.06717,-3.0929 -0.30898,-0.80518 -0.83364,-2.54716 -1.16592,-3.87106 -0.81834,-3.2605 -2.03904,-3.02656 -4.39829,0.8429 -2.39198,3.92313 -2.40977,4.18641 -0.41761,6.17857 1.98519,1.98519 2.88245,1.97469 4.91465,-0.0575 z"
         id="path3082"
         inkscape:connector-curvature="0" />
      <path
         style="fill:#fed65f"
         d="m 837.90951,812.15253 c -6.68743,-1.3168 -13.23,-4.96801 -18.69522,-10.43323 -14.97367,-14.97367 -14.97367,-38.02633 0,-53 14.97367,-14.97367 38.02633,-14.97367 53,0 14.97367,14.97367 14.97367,38.02633 0,53 -9.36853,9.36853 -21.29335,12.99527 -34.30478,10.43323 z m 38.60478,-24.13323 c 1.93398,-1.93398 1.39769,-4.54719 -1.62818,-7.93373 l -2.82818,-3.16528 -1.29988,4.64273 c -1.04133,3.71923 -1.05115,4.94245 -0.0494,6.14951 1.50402,1.81223 4.15983,1.95256 5.80562,0.30677 z m -53.79438,-8.30677 c 1.00177,-1.20706 0.99195,-2.43028 -0.0494,-6.14951 l -1.29988,-4.64273 -2.82818,3.16528 c -1.5555,1.74091 -2.82818,3.96818 -2.82818,4.94951 0,3.81871 4.59954,5.57659 7.00562,2.67745 z"
         id="path3080"
         inkscape:connector-curvature="0" />
      <path
         style="fill:#fdc927"
         d="M 840.15905,812.15111 C 821.83958,809.73792 808.5564,794.2148 808.5564,775.2193 c 0,-21.29852 15.85937,-37.15789 37.15789,-37.15789 21.29852,0 37.15789,15.85937 37.15789,37.15789 0,23.30556 -19.32279,40.01297 -42.71313,36.93181 z m 36.35524,-24.13181 c 2.0194,-2.0194 1.34555,-5.28638 -1.69031,-8.19491 -3.18875,-3.05502 -3.60428,-2.8161 -4.63225,2.66349 -1.03961,5.54156 2.88175,8.97223 6.32256,5.53142 z m -53.8091,-8.28904 c 1.15179,-1.38782 0.71831,-7.55442 -0.69138,-9.83534 -0.84913,-1.37392 -6.29952,4.51941 -6.29952,6.81147 0,4.10118 4.48632,6.04171 6.9909,3.02387 z"
         id="path3078"
         inkscape:connector-curvature="0" />
      <path
         style="fill:#e8a220"
         d="m 825.72367,794.03669 c 0.005,-0.72457 1.35256,-3.6594 2.99422,-6.52185 8.26478,-14.41074 26.73416,-13.87799 34.52158,0.99579 1.60972,3.07453 2.69342,5.8234 2.40822,6.1086 -0.28519,0.2852 -3.19938,-0.20192 -6.47597,-1.08248 -9.55771,-2.56857 -19.80246,-2.14548 -31.70743,1.30946 -1.04016,0.30186 -1.74619,-0.0265 -1.74062,-0.80952 z m -2.97642,-31.27767 c -0.9972,-1.20155 -0.62024,-1.82101 2.12756,-3.49626 4.27196,-2.60449 9.42678,-2.59241 13.73187,0.0322 3.1145,1.89874 3.26088,2.19966 1.78693,3.67361 -1.47395,1.47396 -1.8982,1.44782 -5.17913,-0.31908 -3.42722,-1.84568 -3.69842,-1.85295 -6.61797,-0.17736 -3.69939,2.12317 -4.30082,2.15267 -5.84926,0.28691 z m 28,0 c -0.9972,-1.20155 -0.62024,-1.82101 2.12756,-3.49626 4.27196,-2.60449 9.42678,-2.59241 13.73187,0.0322 3.1145,1.89874 3.26088,2.19966 1.78693,3.67361 -1.47395,1.47396 -1.8982,1.44782 -5.17913,-0.31908 -3.42722,-1.84568 -3.69842,-1.85295 -6.61797,-0.17736 -3.69939,2.12317 -4.30082,2.15267 -5.84926,0.28691 z"
         id="path3076"
         inkscape:connector-curvature="0" />
      <path
         style="fill:#d26220"
         d="m 825.71429,794.78752 c 0,-1.50254 3.45785,-7.95889 5.67161,-10.5898 9.57938,-11.38444 26.75981,-7.84833 32.86541,6.76443 0.80464,1.92577 1.46298,3.64719 1.46298,3.82537 0,0.17819 -2.3625,-0.41738 -5.25,-1.3235 -3.33308,-1.04593 -8.71872,-1.64747 -14.75,-1.64747 -6.03128,0 -11.41692,0.60154 -14.75,1.64747 -2.8875,0.90612 -5.25,1.50169 -5.25,1.3235 z m -1.88928,-31.93481 c -1.94126,-2.33907 2.35321,-5.13341 7.88928,-5.13341 5.53607,0 9.83054,2.79434 7.88928,5.13341 -0.914,1.1013 -1.46719,1.07521 -3.21898,-0.15179 -2.70275,-1.89308 -6.63785,-1.89308 -9.3406,0 -1.75179,1.227 -2.30498,1.25309 -3.21898,0.15179 z m 28,0 c -1.94126,-2.33907 2.35321,-5.13341 7.88928,-5.13341 5.53607,0 9.83054,2.79434 7.88928,5.13341 -0.914,1.1013 -1.46719,1.07521 -3.21898,-0.15179 -2.70275,-1.89308 -6.63785,-1.89308 -9.3406,0 -1.75179,1.227 -2.30498,1.25309 -3.21898,0.15179 z"
         id="path3074"
         inkscape:connector-curvature="0" />
      <path
         style="fill:#b66b08"
         d="m 826.71429,792.89074 c 0,-2.50237 6.13417,-10.59124 9.70579,-12.79863 4.93723,-3.05137 13.65119,-3.05137 18.58842,0 3.57162,2.20739 9.70579,10.29626 9.70579,12.79863 0,1.63523 0.30512,1.64308 -6.66131,-0.17144 -3.16739,-0.825 -8.7198,-1.5 -12.33869,-1.5 -3.61889,0 -9.1713,0.675 -12.33869,1.5 -6.96643,1.81452 -6.66131,1.80667 -6.66131,0.17144 z m -2.88928,-30.03803 c -1.94126,-2.33907 2.35321,-5.13341 7.88928,-5.13341 5.53607,0 9.83054,2.79434 7.88928,5.13341 -0.914,1.1013 -1.46719,1.07521 -3.21898,-0.15179 -2.70275,-1.89308 -6.63785,-1.89308 -9.3406,0 -1.75179,1.227 -2.30498,1.25309 -3.21898,0.15179 z m 28,0 c -1.94126,-2.33907 2.35321,-5.13341 7.88928,-5.13341 5.53607,0 9.83054,2.79434 7.88928,5.13341 -0.914,1.1013 -1.46719,1.07521 -3.21898,-0.15179 -2.70275,-1.89308 -6.63785,-1.89308 -9.3406,0 -1.75179,1.227 -2.30498,1.25309 -3.21898,0.15179 z"
         id="path3072"
         inkscape:connector-curvature="0" />
      <path
         style="fill:#c52726"
         d="m 826.71429,792.89074 c 0,-2.50237 6.13417,-10.59124 9.70579,-12.79863 4.93723,-3.05137 13.65119,-3.05137 18.58842,0 3.57162,2.20739 9.70579,10.29626 9.70579,12.79863 0,1.63523 0.30512,1.64308 -6.66131,-0.17144 -3.16739,-0.825 -8.7198,-1.5 -12.33869,-1.5 -3.61889,0 -9.1713,0.675 -12.33869,1.5 -6.96643,1.81452 -6.66131,1.80667 -6.66131,0.17144 z"
         id="path3070"
         inkscape:connector-curvature="0" />
    </g>
  </g>
</svg>
