<?xml version="1.0" encoding="UTF-8" standalone="no"?>
<!-- Created with Inkscape (http://www.inkscape.org/) -->

<svg
   xmlns:dc="http://purl.org/dc/elements/1.1/"
   xmlns:cc="http://creativecommons.org/ns#"
   xmlns:rdf="http://www.w3.org/1999/02/22-rdf-syntax-ns#"
   xmlns:svg="http://www.w3.org/2000/svg"
   xmlns="http://www.w3.org/2000/svg"
   xmlns:sodipodi="http://sodipodi.sourceforge.net/DTD/sodipodi-0.dtd"
   xmlns:inkscape="http://www.inkscape.org/namespaces/inkscape"
   width="40"
   height="40"
   id="svg2"
   version="1.1"
   inkscape:version="0.48.5 r10040"
   sodipodi:docname="logo.svg">
  <defs
     id="defs4" />
  <sodipodi:namedview
     id="base"
     pagecolor="#ffffff"
     bordercolor="#666666"
     borderopacity="1.0"
     inkscape:pageopacity="0.0"
     inkscape:pageshadow="2"
     inkscape:zoom="7.9195959"
     inkscape:cx="28.16921"
     inkscape:cy="17.505874"
     inkscape:document-units="px"
     inkscape:current-layer="layer1"
     showgrid="false"
     fit-margin-top="0"
     fit-margin-left="0"
     fit-margin-right="0"
     fit-margin-bottom="0"
     inkscape:window-width="1366"
     inkscape:window-height="717"
     inkscape:window-x="0"
     inkscape:window-y="0"
     inkscape:window-maximized="1" />
  <metadata
     id="metadata7">
    <rdf:RDF>
      <cc:Work
         rdf:about="">
        <dc:format>image/svg+xml</dc:format>
        <dc:type
           rdf:resource="http://purl.org/dc/dcmitype/StillImage" />
        <dc:title />
      </cc:Work>
    </rdf:RDF>
  </metadata>
  <g
     inkscape:label="Layer 1"
     inkscape:groupmode="layer"
     id="layer1"
     transform="translate(-169.48462,-951.77356)">
    <g
       id="g3016"
       transform="matrix(0.09286457,0,0,0.08794061,232.29602,884.96667)">
      <path
         style="fill:#fbac57"
         d="m -646.57545,1099.4319 c -43.03676,-60.6287 -38.06052,-167.26978 5.90276,-230.29629 l 39.74462,-46.73842 16.91377,22.82307 31.19949,22.82307 -32.31064,42.48383 c -37.34065,49.09758 -35.25345,107.09384 -1.61009,152.09924 45.42789,60.7699 32.12983,39.7839 8.32739,64.9907 -30.12925,31.9068 -15.77753,45.6198 -68.1673,-28.1852 z"
         id="path3022"
         inkscape:connector-curvature="0"
         sodipodi:nodetypes="sscccssss" />
      <path
         style="fill:#12b8e1"
         d="m -514.12189,1201.8129 c -19.53415,-7.0144 -47.87569,-20.8881 -62.9812,-30.8305 l -27.46458,-18.0771 23.92173,-23.3282 23.92172,-23.3281 42.39715,23.7322 c 53.05385,29.6975 140.52302,25.1035 190.58296,-10.0096 18.23529,-12.7906 41.25498,-23.2557 51.15484,-23.2557 28.14051,0 33.70609,31.0582 10.08145,56.2587 -51.54835,54.9867 -170.3007,78.0365 -251.61407,48.8383 z"
         id="path3020"
         inkscape:connector-curvature="0" />
      <path
         style="fill:#54bc76"
         d="m -326.02481,855.58856 c -46.77751,-34.5688 -135.44708,-39.00312 -188.30226,-9.41691 l -39.00429,21.94653 -30.17172,-21.80233 -17.44984,-23.718 24.35167,-18.59501 c 35.50198,-27.10942 100.59813,-44.13098 156.58018,-43.83066 81.16138,0.4354 187.80232,63.9569 172.18655,102.56426 -9.26521,22.90668 -41.51009,19.95896 -78.19029,-7.14788 z"
         id="path3018"
         inkscape:connector-curvature="0"
         sodipodi:nodetypes="sscccssss" />
    </g>
  </g>
</svg>
