<svg xmlns="http://www.w3.org/2000/svg" width="30.904" height="34.963"><path d="M25.41 8.361c-1.369-1.907-1.361-1.794-1.923-2.407-.446-.487.195.38-.116-.197-.28-.522-.973-1.264-1.695-2.085-1.074-1.22-1.025-1.403.274-1.006 1.62.496 6.345 6.39 6.345 7.916 0 1.958-1.04.352-2.885-2.22zm3.529.663c-.354-1.321-1.892-3.794-3.42-5.495-3.483-3.882-2.77-4.932.859-1.264 2.804 2.836 5.63 9.162 4.092 9.162-.489 0-1.177-1.081-1.531-2.403z" fill="#feb25f"/><path d="M13.232 2.673C5.195 2.735.002 8.832 0 18.552c-.002 7.296 2.11 12.016 6.544 14.624 7.527 4.428 17.536.246 20.007-8.358 2.986-10.394-2.425-21.015-11.219-22.026a17.24 17.24 0 0 0-2.1-.119zm-2.574 1.718c1.813 0 2.03.752 2.03 6.939v6.943H2.116v-3.89c0-3.022.723-4.57 3.25-6.94 1.79-1.678 4.174-3.052 5.293-3.052zm5.732 0c.872 0 1.286.287 2.11.803.558.349.024.276.533.685.582.466.309.083.984.933.564.711.476 1.087.867 1.297.436.234.268.164.793.532.396.277.678 1.172 1.507 1.652.83.48 1.633 2.36 1.786 4.177l.278 3.305-5.222.184-5.222.18v-6.874c0-5.45.328-6.874 1.586-6.874zm.886 1.931c-.586 0-1.062.451-1.062 1.006 0 .556.476 1.003 1.062 1.003.585 0 1.057-.447 1.057-1.003 0-.555-.472-1.006-1.057-1.006zM19.71 9.25c-.586 0-1.058.45-1.058 1.006 0 .555.472 1.006 1.058 1.006.585 0 1.062-.45 1.062-1.006 0-.555-.477-1.006-1.062-1.006zM16 9.86c-.586 0-1.058.45-1.058 1.006 0 .555.472 1.006 1.057 1.006.586 0 1.062-.45 1.062-1.006 0-.555-.476-1.006-1.062-1.006zm5.829 2.188c-.585 0-1.057.45-1.057 1.006 0 .555.472 1.006 1.057 1.006s1.062-.45 1.062-1.006c0-.555-.477-1.006-1.062-1.006zm-4.026.524c-.585 0-1.062.45-1.062 1.006 0 .555.477 1.006 1.062 1.006.586 0 1.058-.45 1.058-1.006 0-.555-.472-1.006-1.058-1.006zm6.043 2.448c-.585 0-1.062.45-1.062 1.006s.477 1.006 1.062 1.006c.586 0 1.058-.45 1.058-1.006 0-.555-.472-1.006-1.058-1.006zm-3.501.176c-.586 0-1.058.45-1.058 1.006s.472 1.002 1.058 1.002c.585 0 1.062-.446 1.062-1.002 0-.555-.477-1.006-1.062-1.006zm-4.026.088c-.585 0-1.062.447-1.062 1.002 0 .556.477 1.006 1.062 1.006.586 0 1.058-.45 1.058-1.006 0-.555-.472-1.002-1.058-1.002zm-14.205 4.97h23.541l-.63 3.718c-.406 2.39-1.78 4.692-3.855 6.445-4.717 3.988-11.351 3.85-15.805-.325-2.365-2.217-3.25-3.977-3.25-6.445v-3.393z"/></svg>