<svg width="308" height="167" viewBox="0 0 308 167" xmlns="http://www.w3.org/2000/svg" xmlns:xlink="http://www.w3.org/1999/xlink">
    <title>
        Page 1
    </title>
    <defs>
        <path id="a" d="M48.828 45.598H.095V.195h48.733z"/>
    </defs>
    <g fill="none" fill-rule="evenodd">
        <path d="M2.132 147.499c8.771 1.315 16.502 1.902 24.995 1.902 5.27 0 10.482-.222 16.001-.457l.748-.032.128-.639c1.665-8.382 2.765-13.92 6.867-19.605 7.335-10.166 22.128-10.387 39.256-10.644 2.118-.032 4.278-.064 6.47-.115l1.16-45.817c.25-9.87-.072-20.009-6.8-26.14-20.02 2.173-42.114 6.237-65.68 12.078C16.22 70.428 9.654 83.974 6.286 97.218c-4.462 17.539-5.747 33.066-4.155 50.28m24.995 3.086c-8.703 0-16.609-.612-25.632-1.985a.591.591 0 0 1-.5-.529C-.677 130.532.6 114.758 5.136 96.927c3.422-13.451 10.098-27.203 19.308-39.768a.592.592 0 0 1 .336-.225c23.8-5.908 46.11-10.008 66.311-12.187a.594.594 0 0 1 .457.146c7.297 6.449 7.654 16.988 7.394 27.23l-1.174 46.379a.592.592 0 0 1-.578.576c-2.39.06-4.743.095-7.047.13-16.808.25-31.323.468-38.31 10.151-3.952 5.477-4.974 10.621-6.668 19.144l-.217 1.095a.592.592 0 0 1-.556.476l-1.214.052c-5.532.235-10.757.458-16.052.458" fill="#000"/>
        <path d="M2.4 147.245c8.67 1.29 16.306 1.866 24.727 1.866 5.264 0 10.473-.222 15.989-.457l.52-.023.082-.414c1.673-8.42 2.778-13.982 6.916-19.719 7.421-10.284 22.281-10.507 39.487-10.764 2.03-.03 4.103-.062 6.193-.109l1.152-45.54c.248-9.748-.062-19.769-6.61-25.83-19.938 2.172-41.943 6.22-65.407 12.031C16.448 70.63 9.92 84.115 6.569 97.29 2.13 114.735.844 130.152 2.4 147.245m24.727 2.447c-8.525 0-16.247-.588-25.039-1.906l-.226-.034-.02-.227c-1.596-17.252-.312-32.79 4.162-50.379 3.377-13.276 9.96-26.86 19.037-39.287l.062-.086.103-.025c23.58-5.844 45.69-9.91 65.719-12.085l.13-.014.098.089C97.975 51.955 98.3 62.17 98.049 72.1l-1.167 46.093-.277.006c-2.186.051-4.355.084-6.452.115-17.072.256-31.796.477-39.046 10.524-4.065 5.634-5.16 11.147-6.818 19.492l-.172.862-.976.042c-5.522.236-10.738.458-16.014.458M91.156 45.034l-.034.002c-20.186 2.177-42.483 6.275-66.27 12.18a.302.302 0 0 0-.172.115C15.492 69.867 8.832 83.583 5.419 96.998c-4.527 17.797-5.802 33.54-4.135 51.045a.3.3 0 0 0 .255.27c9.008 1.37 16.9 1.981 25.588 1.981 5.288 0 10.509-.223 16.037-.459l1.216-.051a.301.301 0 0 0 .283-.243l.218-1.094c1.701-8.564 2.728-13.73 6.716-19.257 7.073-9.802 21.657-10.02 38.543-10.273 2.283-.034 4.644-.07 7.044-.13a.301.301 0 0 0 .294-.293l1.174-46.38c.258-10.173-.093-20.637-7.296-27.004a.3.3 0 0 0-.2-.076m-64.029 105.84c-8.719 0-16.638-.612-25.676-1.988a.881.881 0 0 1-.747-.789c-1.673-17.573-.393-33.377 4.15-51.242C8.287 83.369 14.98 69.583 24.21 56.987a.887.887 0 0 1 .502-.335c23.812-5.91 46.135-10.013 66.35-12.193a.894.894 0 0 1 .68.216c7.39 6.532 7.754 17.144 7.493 27.455l-1.175 46.38a.883.883 0 0 1-.861.859c-2.403.06-4.766.095-7.05.129-16.73.25-31.178.466-38.08 10.03-3.913 5.425-4.93 10.546-6.617 19.029l-.218 1.098a.881.881 0 0 1-.829.709l-1.213.052c-5.537.236-10.765.459-16.065.459" fill="#000"/>
        <path d="M38.436 150.322a.592.592 0 0 1-.584-.7l.137-.733c1.63-8.776 3.66-19.696 8.8-26.308 3.178-4.085 8.377-5.826 13.044-6.99 12.416-3.096 28.82-3.216 37.492-3.012a.592.592 0 0 1 .579.605.6.6 0 0 1-.607.577c-8.612-.203-24.895-.085-37.177 2.978-4.47 1.115-9.438 2.767-12.393 6.567-4.965 6.385-6.965 17.15-8.572 25.798l-.136.734a.593.593 0 0 1-.583.484" fill="#000"/>
        <path d="M91.922 112.806c-9.064 0-21.878.538-32.019 3.067-4.619 1.152-9.76 2.87-12.883 6.886-5.1 6.557-7.12 17.439-8.744 26.183l-.137.733a.302.302 0 0 0 .593.11l.137-.733c1.612-8.68 3.619-19.483 8.628-25.924 3.01-3.87 8.034-5.544 12.553-6.67 12.318-3.073 28.628-3.19 37.253-2.987a.29.29 0 0 0 .21-.08.305.305 0 0 0 .1-.214.3.3 0 0 0-.295-.308c-1.569-.036-3.39-.063-5.396-.063m-53.486 37.806a.884.884 0 0 1-.87-1.043l.137-.733c1.636-8.806 3.671-19.765 8.857-26.433 3.23-4.155 8.487-5.918 13.202-7.094 12.45-3.104 28.882-3.224 37.57-3.02a.878.878 0 0 1 .619.273.878.878 0 0 1-.042 1.253.88.88 0 0 1-.626.237c-8.59-.203-24.84-.087-37.092 2.969-4.422 1.103-9.333 2.733-12.234 6.463-4.922 6.33-6.915 17.055-8.516 25.673l-.136.734a.884.884 0 0 1-.869.721" fill="#000"/>
        <path d="M25.093 83.907a.443.443 0 0 1-.11-.873l8.947-2.302a.444.444 0 1 1 .222.86l-8.947 2.301a.437.437 0 0 1-.112.014" fill="#000"/>
        <path d="M34.042 81.008a.13.13 0 0 0-.037.005l-8.95 2.302a.15.15 0 0 0-.094.07.151.151 0 0 0-.016.117.16.16 0 0 0 .185.11l8.95-2.302a.152.152 0 0 0 .093-.07.151.151 0 0 0 .017-.116.158.158 0 0 0-.073-.096.153.153 0 0 0-.075-.02m-8.949 3.19a.736.736 0 0 1-.633-1.108c.1-.169.26-.288.45-.337l8.947-2.302a.72.72 0 0 1 .553.075.731.731 0 0 1 .264 1.009.733.733 0 0 1-.45.338l-8.946 2.301a.725.725 0 0 1-.185.024" fill="#000"/>
        <path d="M20.509 75.67c-1.377 1.084-8.318 15.229-9.406 33.312 7.712-4.153 26.026-7.59 35.027-9.28 1.988-.373 3.75-.704 4.451-.872.205-3.879.1-7.924-.01-12.199-.106-4.08-.215-8.293-.041-12.473-5.04.104-9.957.432-14.718.75-4.942.329-10.05.67-15.303.761m-10.056 34.965a.591.591 0 0 1-.592-.619c.493-10.587 2.923-19.423 4.876-24.971 1.029-2.927 4.05-10.53 5.643-10.556 5.261-.088 10.392-.43 15.353-.761 4.974-.332 10.118-.675 15.408-.765.14.003.321.063.435.18a.588.588 0 0 1 .167.44c-.212 4.345-.098 8.754.013 13.019.115 4.444.224 8.643-.013 12.69-.034.568-.034.568-5.393 1.574-9.33 1.751-28.746 5.395-35.581 9.678a.595.595 0 0 1-.316.09" fill="#000"/>
        <path d="M20.621 75.958c-1.437 1.408-8.034 15.091-9.194 32.527 8.001-4.067 25.941-7.434 34.65-9.068l.053-.01c1.803-.339 3.383-.635 4.171-.811.19-3.797.087-7.758-.021-11.947-.104-3.99-.21-8.101-.053-12.195-4.923.111-9.733.432-14.389.742-4.926.329-10 .667-15.217.762zm-9.84 33.527l.032-.52c1.095-18.214 8.012-32.339 9.515-33.524l.078-.06.098-.002c5.24-.092 10.342-.432 15.275-.761 4.78-.319 9.702-.646 14.745-.75l.31-.007-.013.309c-.174 4.175-.065 8.384.04 12.454.111 4.291.216 8.335.01 12.221l-.01.216-.212.051c-.702.17-2.42.492-4.412.866l-.053.01c-8.851 1.66-27.27 5.118-34.942 9.25l-.46.247zm40.354-36.232c-5.271.09-10.411.432-15.382.763-4.963.331-10.095.674-15.368.763-.837.014-3.13 3.979-5.374 10.36-1.946 5.53-4.368 14.336-4.86 24.89a.3.3 0 0 0 .15.274.308.308 0 0 0 .314-.006c6.881-4.312 26.333-7.963 35.681-9.718 4.896-.919 5.137-.98 5.156-1.305.237-4.033.128-8.224.013-12.66-.11-4.275-.225-8.69-.013-13.046a.3.3 0 0 0-.085-.223.371.371 0 0 0-.232-.092zm-40.682 37.671a.886.886 0 0 1-.883-.923c.495-10.623 2.933-19.488 4.892-25.053.386-1.097 3.828-10.715 5.913-10.75 5.259-.089 10.383-.43 15.339-.761 4.978-.332 10.125-.675 15.422-.765a.954.954 0 0 1 .65.268c.169.174.26.414.248.657-.212 4.334-.098 8.738.013 12.996.116 4.454.224 8.657-.014 12.715-.047.795-.047.795-5.63 1.842-9.312 1.748-28.69 5.385-35.48 9.64a.891.891 0 0 1-.47.134z" fill="#000"/>
        <path d="M21.694 78.518c-4.028 10.035-6.052 18.112-6.177 24.655 9.618-3.558 21.306-6.062 32.25-6.906a700.7 700.7 0 0 0-.047-6.357c-.044-4.323-.086-8.414.034-12.88a106.406 106.406 0 0 0-4.703-.103c-6.318 0-13.11.506-21.357 1.591m-6.628 25.741a.444.444 0 0 1-.445-.443c0-6.822 2.076-15.284 6.344-25.869a.444.444 0 0 1 .354-.274c8.403-1.114 15.308-1.633 21.732-1.633 1.767 0 3.51.041 5.182.124.241.012.43.214.422.456-.134 4.62-.09 8.827-.045 13.28.023 2.221.045 4.462.045 6.778 0 .233-.179.426-.412.443-11.21.823-23.246 3.414-33.02 7.11a.44.44 0 0 1-.157.028" fill="#000"/>
        <path d="M21.9 78.784c-3.889 9.721-5.88 17.569-6.081 23.969 9.46-3.45 20.954-5.904 31.656-6.754a715.662 715.662 0 0 0-.046-6.086c-.043-4.231-.085-8.233.027-12.606-1.434-.06-2.914-.09-4.406-.09-6.264 0-12.99.498-21.15 1.567zm-6.682 24.81l.008-.426c.126-6.583 2.153-14.68 6.197-24.758l.064-.157.169-.022c8.262-1.088 15.06-1.595 21.394-1.595 1.6 0 3.186.035 4.717.103l.286.013-.008.285c-.12 4.474-.078 8.552-.033 12.87.02 2.05.042 4.17.045 6.36v.269l-.268.02c-10.879.84-22.605 3.35-32.17 6.89l-.4.148zM43.05 76.33c-6.409 0-13.302.518-21.693 1.63a.153.153 0 0 0-.122.095c-4.254 10.55-6.323 18.977-6.323 25.76a.154.154 0 0 0 .208.144c9.8-3.705 21.864-6.303 33.102-7.128a.154.154 0 0 0 .142-.153c0-2.307-.023-4.568-.045-6.754l.29-.042-.29.003c-.046-4.451-.09-8.655.045-13.274a.154.154 0 0 0-.146-.157c-1.67-.082-3.408-.124-5.168-.124zm-27.984 28.22a.735.735 0 0 1-.736-.734c0-6.86 2.082-15.357 6.365-25.977a.737.737 0 0 1 .585-.454c8.417-1.116 15.335-1.636 21.77-1.636 1.77 0 3.518.042 5.197.125a.74.74 0 0 1 .7.754c-.135 4.608-.092 8.806-.046 13.25v.04c.023 2.188.046 4.45.046 6.76 0 .383-.3.705-.682.733-11.184.82-23.19 3.405-32.938 7.091a.74.74 0 0 1-.261.048z" fill="#000"/>
        <path d="M21.81 91.398a.443.443 0 0 1-.113-.872l19.197-5.047a.444.444 0 1 1 .227.858l-19.197 5.047a.443.443 0 0 1-.114.014" fill="#000"/>
        <path d="M41.009 85.755a.157.157 0 0 0-.041.005L21.77 90.807a.153.153 0 0 0-.11.187c.022.08.106.131.19.109l19.196-5.047a.151.151 0 0 0 .094-.071.152.152 0 0 0-.132-.23M21.81 91.689a.735.735 0 0 1-.187-1.444l19.197-5.047a.737.737 0 0 1 .824 1.08.73.73 0 0 1-.449.34l-19.197 5.047a.756.756 0 0 1-.188.024" fill="#000"/>
        <path d="M28.094 94.948a.445.445 0 0 1-.084-.88 78.006 78.006 0 0 0 9.915-2.606.445.445 0 1 1 .283.841 78.848 78.848 0 0 1-10.029 2.637.444.444 0 0 1-.085.008" fill="#000"/>
        <path d="M38.067 91.73a.148.148 0 0 0-.048.007 78.284 78.284 0 0 1-9.953 2.617.153.153 0 0 0-.122.179.155.155 0 0 0 .181.121 78.59 78.59 0 0 0 9.99-2.627.154.154 0 0 0 .097-.194.153.153 0 0 0-.145-.104m-9.973 3.51a.736.736 0 0 1-.61-1.145.733.733 0 0 1 .471-.31 77.69 77.69 0 0 0 9.877-2.597.732.732 0 0 1 .932.461c.129.384-.08.801-.464.93a79.216 79.216 0 0 1-10.065 2.647.755.755 0 0 1-.14.013" fill="#000"/>
        <path d="M29.737 144.63a.445.445 0 0 1-.444-.428.445.445 0 0 1 .429-.459c1.112-.04 2.224-.086 3.336-.143.223-.002.455.175.467.42a.444.444 0 0 1-.422.466 211.61 211.61 0 0 1-3.35.144h-.016" fill="#000"/>
        <path d="M33.063 143.89h-.002c-1.078.055-2.202.104-3.329.143a.153.153 0 1 0 .005.306v.291l.004-.29c1.107-.039 2.232-.087 3.348-.144a.154.154 0 0 0 .145-.16c-.004-.082-.097-.145-.171-.145zm-3.326 1.03a.732.732 0 0 1-.735-.708.736.736 0 0 1 .71-.76c1.123-.039 2.244-.087 3.332-.142.4-.01.752.308.772.696a.733.733 0 0 1-.698.77c-1.118.057-2.247.105-3.355.144h-.026z" fill="#000"/>
        <path d="M22.474 144.756c-4.992 0-10.007-.177-14.961-.531a.443.443 0 1 1 .063-.885c6.328.451 12.755.615 19.103.487.272 0 .449.19.454.434a.445.445 0 0 1-.435.453c-1.405.028-2.814.042-4.224.042" fill="#000"/>
        <path d="M7.546 143.63a.158.158 0 0 0-.155.14.154.154 0 0 0 .142.165 210.705 210.705 0 0 0 19.159.488.154.154 0 0 0 .15-.156c-.001-.055-.024-.15-.164-.15a209.96 209.96 0 0 1-19.123-.488h-.01m14.928 1.418c-4.997 0-10.038-.18-14.981-.533a.735.735 0 1 1 .105-1.464c6.314.451 12.732.615 19.076.486.43.002.742.304.751.719a.737.737 0 0 1-.72.75 212.11 212.11 0 0 1-4.23.042" fill="#000"/>
        <path d="M263.867 135.218h26.774c.158-2.498.122-5.172.085-7.992-.026-1.867-.052-3.796-.017-5.686-3.871-.02-7.837-.037-11.743-.054-8.036-.036-16.325-.072-23.519-.127 5.268 4.556 8.028 9.098 8.42 13.859M103.357 1.776c-.122 21.234-.043 44.424.033 66.858.076 22.455.155 45.665.032 66.92 9.972-.06 20.29-.226 30.274-.387 25.472-.41 51.803-.834 76.911.367 1.732-8.575 8.331-15.104 18.642-18.417 8.91-2.863 18.206-1.681 24.702 3.047 7.527.061 16.42.1 25.02.139 8.478.037 17.236.076 24.701.136.343-14.16.776-27.96 1.195-41.31.833-26.492 1.619-51.528 1.631-76.428-67.005 1.43-147.86.162-203.14-.925M211.093 136.74h-.03c-25.224-1.23-51.723-.803-77.348-.39-10.189.163-20.724.333-30.887.39h-.003a.593.593 0 0 1-.593-.595c.127-21.412.048-44.846-.029-67.508-.076-22.648-.156-46.067-.029-67.47a.593.593 0 0 1 .179-.42.623.623 0 0 1 .426-.167c55.45 1.094 136.954 2.38 204.299.924a.642.642 0 0 1 .427.169.591.591 0 0 1 .178.423c0 25.119-.792 50.353-1.631 77.068-.425 13.532-.864 27.525-1.21 41.884a.593.593 0 0 1-.592.578h-.005c-3.831-.032-8.021-.057-12.35-.08-.036 1.875-.01 3.8.015 5.663.04 3.054.08 5.938-.126 8.644a.592.592 0 0 1-.59.547H263.31a.592.592 0 0 1-.593-.566c-.2-4.685-2.897-9.183-8.246-13.754a19.848 19.848 0 0 0-1.1-.874c-6.196-4.58-15.153-5.728-23.759-2.964-10.077 3.239-16.446 9.634-17.935 18.01a.592.592 0 0 1-.583.488" fill="#000"/>
        <path d="M264.132 134.927h26.235c.138-2.406.104-4.974.068-7.687-.024-1.778-.05-3.604-.022-5.41-3.777-.02-7.641-.037-11.448-.053l-.586-.003c-7.536-.034-15.32-.069-22.155-.119 4.858 4.356 7.45 8.706 7.908 13.272zm26.782.581H263.6l-.023-.266c-.384-4.685-3.106-9.155-8.32-13.664l-.596-.515.79.005c7.018.054 15.108.09 22.932.125l.585.003c3.907.016 7.872.034 11.744.054l.295.001-.006.295c-.035 1.893-.009 3.816.017 5.676.037 2.837.073 5.508-.085 8.014l-.018.272zM103.647 2.072c-.12 21.121-.042 44.17.034 66.463v.098c.076 22.332.155 45.42.034 66.63 9.876-.063 20.089-.227 29.969-.386 25.407-.41 51.651-.832 76.688.355 1.828-8.557 8.49-15.082 18.787-18.39 8.967-2.882 18.262-1.748 24.887 3.033 7.39.06 16.1.098 24.523.136l.404.001c7.917.035 16.878.074 24.415.134.343-14.118.773-27.797 1.189-41.027.828-26.39 1.611-51.321 1.63-76.121-66.954 1.42-147.588.154-202.56-.926zm-.518 133.775l.002-.294c.123-21.287.044-44.484-.032-66.918v-.098c-.076-22.398-.154-45.558-.033-66.763l.002-.294.295.005c55.054 1.083 136.007 2.358 203.13.926l.297-.006V2.7c-.013 24.907-.8 49.937-1.632 76.436-.418 13.319-.85 27.091-1.195 41.309l-.007.286-.286-.003c-7.595-.06-16.682-.1-24.7-.136l-.403-.001c-8.46-.038-17.208-.077-24.618-.137l-.094-.001-.075-.055c-6.481-4.717-15.618-5.84-24.442-3.005-10.186 3.273-16.737 9.735-18.446 18.197l-.05.245-.249-.012c-25.093-1.2-51.418-.776-76.875-.367-10.004.161-20.324.327-30.294.388l-.295.002zm69.844-.208c12.843 0 25.627.203 38.106.811h.015a.3.3 0 0 0 .297-.248c1.508-8.486 7.948-14.962 18.132-18.235 8.71-2.798 17.69-1.674 24.022 3.007a20.066 20.066 0 0 1 1.116.887c5.413 4.625 8.143 9.192 8.347 13.961a.3.3 0 0 0 .301.289h27.885c.157 0 .289-.123.301-.279.204-2.69.166-5.564.125-8.607l.29-.043-.29.004c-.025-1.855-.051-3.774-.016-5.645l.006-.286.287.001c4.33.023 8.52.049 12.351.08.165 0 .3-.132.305-.294.342-14.278.779-28.195 1.201-41.654l.008-.232c.839-26.712 1.631-51.942 1.631-77.06a.3.3 0 0 0-.09-.215.353.353 0 0 0-.23-.086c-67.329 1.456-148.844.17-204.3-.924a.326.326 0 0 0-.216.086.304.304 0 0 0-.09.214c-.127 21.375-.049 44.765.028 67.385v.081c.077 22.644.157 46.06.03 67.51a.3.3 0 0 0 .302.303c10.182-.056 20.706-.226 30.884-.39 12.96-.209 26.14-.421 39.262-.421zm38.121 1.392h-.038c-25.215-1.23-51.702-.803-77.317-.39-10.198.163-20.724.333-30.908.39a.882.882 0 0 1-.89-.888c.129-21.447.049-44.86-.028-67.504v-.081c-.077-22.622-.156-46.013-.029-67.39a.89.89 0 0 1 .266-.627.91.91 0 0 1 .63-.25c55.455 1.093 136.961 2.38 204.292.923.252.006.48.097.638.253a.885.885 0 0 1 .266.63c0 25.126-.793 50.36-1.633 77.077l-.007.232c-.422 13.458-.858 27.374-1.201 41.65a.89.89 0 0 1-.884.861c-3.753-.03-7.843-.056-12.07-.078-.027 1.77-.003 3.583.02 5.339l.001.039c.041 3.056.08 5.943-.127 8.66a.887.887 0 0 1-.881.815h-27.885a.88.88 0 0 1-.882-.845c-.197-4.6-2.862-9.03-8.145-13.545a19.566 19.566 0 0 0-1.096-.871c-6.17-4.56-14.954-5.652-23.485-2.911-9.969 3.203-16.268 9.519-17.737 17.783a.882.882 0 0 1-.87.728z" fill="#000"/>
        <path d="M144.923 122.444c-15.052 0-29.548-.188-42.064-.717a.592.592 0 0 1-.567-.617.608.608 0 0 1 .617-.565c29.724 1.256 70.681.586 103.592.047 5.379-.088 10.543-.173 15.407-.245a.584.584 0 0 1 .602.583.592.592 0 0 1-.585.6c-4.863.072-10.026.156-15.405.245-19.078.312-40.861.669-61.597.669" fill="#000"/>
        <path d="M102.888 120.835c-.137 0-.299.123-.306.287a.302.302 0 0 0 .29.314c11.403.483 25.159.717 42.051.717 20.738 0 42.443-.355 61.593-.67 5.378-.087 10.542-.172 15.405-.243.166-.003.3-.14.298-.306-.003-.176-.129-.295-.314-.297-4.857.072-10.02.157-15.4.245-32.919.54-73.879 1.21-103.609-.047h-.008zm42.035 1.9c-16.9 0-30.664-.236-42.077-.718a.884.884 0 0 1-.846-.92c.02-.473.447-.872.919-.843 29.716 1.257 70.666.587 103.57.048 5.386-.089 10.55-.174 15.415-.246.507.005.89.379.897.87a.885.885 0 0 1-.87.895c-4.864.071-10.027.156-15.406.244-19.152.313-40.859.67-61.602.67z" fill="#000"/>
        <path d="M74.984 122.82c-6.244 0-12.146 2.065-16.616 5.816-5.69 4.775-8.764 11.994-8.02 18.84 1.03 9.503 8.02 16.022 18.697 17.439 1.806.24 3.535.36 5.14.36 3.852.001 7.23-.7 10.039-2.085 7.633-3.761 12.748-13.729 11.647-22.692-1.103-8.971-7.17-15.564-15.835-17.207a27.207 27.207 0 0 0-5.052-.471m-.798 43.639c-1.658 0-3.44-.125-5.297-.372-11.254-1.493-18.627-8.403-19.72-18.484-.786-7.232 2.447-14.847 8.436-19.872 4.683-3.93 10.855-6.095 17.379-6.095 1.775 0 3.55.166 5.274.493 9.188 1.742 15.622 8.725 16.79 18.225 1.159 9.43-4.243 19.927-12.3 23.897-2.973 1.465-6.526 2.208-10.562 2.208" fill="#000"/>
        <path d="M74.984 123.11c-6.176 0-12.01 2.042-16.429 5.748-5.617 4.714-8.651 11.836-7.919 18.586 1.017 9.362 7.913 15.785 18.447 17.183 1.793.238 3.51.359 5.102.359h.003c3.805 0 7.138-.692 9.907-2.056 7.529-3.71 12.574-13.548 11.487-22.396-1.087-8.842-7.065-15.34-15.6-16.958a26.912 26.912 0 0 0-4.998-.466m-.796 42.456h-.003c-1.618 0-3.36-.122-5.178-.363-10.818-1.436-17.902-8.051-18.95-17.697-.753-6.94 2.36-14.256 8.124-19.092 4.522-3.795 10.49-5.885 16.803-5.885 1.719 0 3.437.16 5.107.477 8.792 1.667 14.95 8.356 16.068 17.457 1.117 9.078-4.07 19.175-11.806 22.988-2.85 1.403-6.27 2.115-10.165 2.115m.796-43.64c-6.455 0-12.56 2.141-17.192 6.027-5.915 4.964-9.11 12.481-8.335 19.619 1.08 9.939 8.358 16.753 19.47 18.227 1.843.245 3.613.37 5.258.37 3.992 0 7.502-.734 10.435-2.179 7.952-3.918 13.284-14.285 12.138-23.6-1.151-9.37-7.495-16.258-16.555-17.976a28.1 28.1 0 0 0-5.22-.487m-.797 44.822c-1.672 0-3.467-.126-5.336-.374-11.396-1.512-18.861-8.518-19.971-18.741-.796-7.327 2.476-15.039 8.539-20.126 4.735-3.974 10.974-6.162 17.566-6.162 1.792 0 3.585.167 5.328.498 9.318 1.766 15.84 8.845 17.024 18.475 1.174 9.545-4.298 20.171-12.459 24.192-3.012 1.485-6.61 2.238-10.691 2.238" fill="#000"/>
        <path d="M73.188 132.181c-3.905 0-8.838 1.639-10.972 6.238-1.597 3.438-1.072 8.062 1.274 11.246 2.134 2.895 5.602 4.623 9.279 4.623.16 0 .318-.003.476-.01 4.332-.183 8.312-2.824 10.141-6.728 1.938-4.135 1.142-9.455-1.85-12.374-2.154-2.1-5.045-2.757-7.09-2.94a14.22 14.22 0 0 0-1.258-.055m-.419 23.29c-4.052 0-7.879-1.908-10.235-5.105-2.631-3.571-3.192-8.572-1.394-12.445 2.37-5.104 7.777-6.923 12.048-6.923.455 0 .914.02 1.363.06 3.21.286 5.911 1.417 7.814 3.272 3.335 3.254 4.237 9.153 2.096 13.721-2.014 4.3-6.397 7.207-11.166 7.41-.175.007-.35.01-.526.01" fill="#000"/>
        <path d="M73.188 132.472c-3.815 0-8.63 1.594-10.708 6.069-1.553 3.346-1.042 7.85 1.244 10.952 2.08 2.82 5.46 4.505 9.045 4.505.155 0 .31-.004.464-.01 4.224-.179 8.106-2.754 9.89-6.56 1.887-4.03 1.118-9.207-1.79-12.044-2.093-2.04-4.915-2.68-6.914-2.858a13.868 13.868 0 0 0-1.23-.054m-.42 22.107c-3.769 0-7.325-1.773-9.514-4.742-2.406-3.265-2.942-8.01-1.303-11.54 2.192-4.723 7.241-6.406 11.236-6.406.432 0 .864.019 1.283.057 2.093.186 5.053.86 7.268 3.02 3.077 3.002 3.899 8.464 1.91 12.705-1.873 4.001-5.952 6.708-10.391 6.895-.163.007-.326.01-.488.01m.418-23.29c-4.18 0-9.472 1.775-11.784 6.755-1.754 3.78-1.206 8.663 1.365 12.15 2.301 3.124 6.04 4.988 10 4.988v.29-.29c.172 0 .343-.004.513-.011 4.663-.197 8.947-3.04 10.915-7.242 2.09-4.462 1.215-10.218-2.036-13.39-1.853-1.808-4.494-2.91-7.636-3.19-.44-.04-.89-.06-1.337-.06m-.418 24.474h-.001c-4.145 0-8.059-1.953-10.469-5.224-2.693-3.654-3.265-8.773-1.424-12.739 2.427-5.228 7.951-7.091 12.312-7.091.465 0 .932.02 1.389.061 3.277.292 6.04 1.451 7.991 3.354 3.42 3.336 4.346 9.377 2.156 14.051-2.059 4.396-6.54 7.37-11.417 7.576-.178.008-.358.012-.537.012" fill="#000"/>
        <path d="M73.379 140.587c-.91 0-1.792.506-2.246 1.289-.36.618-.423 1.418-.176 2.193.24.749.73 1.339 1.344 1.62a2.2 2.2 0 0 0 .921.194c1.157 0 2.266-.794 2.58-1.847.204-.685.076-1.502-.344-2.187-.404-.658-1.011-1.104-1.665-1.225a2.298 2.298 0 0 0-.414-.037m-.157 6.48c-.5 0-.976-.102-1.414-.302-.919-.42-1.64-1.271-1.98-2.337-.35-1.092-.248-2.238.278-3.145.769-1.325 2.413-2.097 3.902-1.823.985.182 1.882.828 2.46 1.772.603.98.774 2.125.47 3.142-.465 1.56-2.028 2.692-3.716 2.692" fill="#000"/>
        <path d="M73.379 140.877c-.808 0-1.591.45-1.995 1.144-.317.548-.372 1.262-.15 1.96.214.67.647 1.197 1.189 1.444.243.111.512.168.8.168 1.032 0 2.021-.705 2.3-1.64.181-.607.064-1.337-.313-1.953-.361-.587-.897-.985-1.47-1.09a1.996 1.996 0 0 0-.361-.033m-.157 5.296c-.37 0-.722-.074-1.042-.22-.69-.315-1.237-.97-1.5-1.796-.272-.854-.2-1.738.2-2.427a2.934 2.934 0 0 1 2.499-1.434c.158 0 .315.014.467.042.735.136 1.413.631 1.86 1.36.462.753.602 1.658.376 2.42-.35 1.172-1.58 2.055-2.86 2.055m.169-6.478c-1.204 0-2.417.672-3.033 1.733-.485.836-.577 1.898-.253 2.912.315.988.98 1.775 1.824 2.16.4.183.835.276 1.293.276 1.562 0 3.008-1.045 3.437-2.485.28-.938.12-1.998-.438-2.908-.536-.874-1.362-1.47-2.266-1.637a3.122 3.122 0 0 0-.564-.051m-.169 7.662c-.542 0-1.06-.11-1.535-.328-.994-.454-1.772-1.37-2.137-2.513-.374-1.17-.263-2.401.305-3.379.83-1.433 2.6-2.258 4.206-1.962 1.066.196 2.034.89 2.656 1.905.645 1.05.828 2.281.5 3.376-.5 1.68-2.181 2.9-3.995 2.9" fill="#000"/>
        <path d="M80.245 162.55a.444.444 0 0 1-.13-.868c2.263-.69 4.236-1.711 5.864-3.038 2.49-2.026 4.144-4.824 4.541-7.675a.445.445 0 0 1 .882.122c-.428 3.07-2.2 6.074-4.86 8.24-1.718 1.4-3.794 2.476-6.167 3.2a.435.435 0 0 1-.13.019" fill="#000"/>
        <path d="M90.961 150.877a.154.154 0 0 0-.152.133c-.408 2.922-2.1 5.787-4.645 7.86-1.657 1.349-3.663 2.389-5.963 3.09a.154.154 0 0 0-.102.192c.023.077.118.124.19.101 2.338-.712 4.38-1.771 6.07-3.146 2.603-2.121 4.336-5.057 4.754-8.056a.153.153 0 0 0-.152-.174M80.245 162.84a.733.733 0 0 1-.215-1.436c2.228-.679 4.167-1.683 5.765-2.984 2.433-1.982 4.05-4.711 4.437-7.49a.735.735 0 1 1 1.458.201c-.438 3.142-2.247 6.213-4.963 8.426-1.749 1.423-3.857 2.517-6.267 3.251a.722.722 0 0 1-.215.032" fill="#000"/>
        <path d="M73.33 163.548c-6.809 0-13.384-2.695-17.307-7.236a.445.445 0 0 1 .674-.58c4.283 4.959 11.892 7.619 19.389 6.775a.443.443 0 1 1 .1.881c-.952.108-1.906.16-2.855.16" fill="#000"/>
        <path d="M56.36 155.869a.151.151 0 0 0-.1.037.152.152 0 0 0-.053.105.15.15 0 0 0 .037.111c3.801 4.401 10.348 7.135 17.087 7.135.944 0 1.894-.052 2.821-.157a.152.152 0 0 0 .078-.272.148.148 0 0 0-.11-.032c-7.59.854-15.3-1.845-19.644-6.874a.153.153 0 0 0-.105-.053h-.011m16.97 7.97c-7.007 0-13.56-2.743-17.527-7.338a.73.73 0 0 1 .077-1.035.729.729 0 0 1 .534-.176.73.73 0 0 1 .503.253c4.223 4.888 11.736 7.509 19.136 6.675a.735.735 0 0 1 .165 1.46c-.95.106-1.92.16-2.887.16" fill="#000"/>
        <path d="M55.332 155.144a.445.445 0 0 1-.365-.19 15.88 15.88 0 0 1-1.081-1.787.443.443 0 1 1 .79-.408c.3.58.643 1.147 1.02 1.688a.443.443 0 0 1-.364.697" fill="#000"/>
        <path d="M54.28 152.81a.153.153 0 0 0-.135.224c.31.6.668 1.191 1.06 1.754a.154.154 0 0 0 .215.038.153.153 0 0 0 .038-.213 15.367 15.367 0 0 1-1.04-1.72.154.154 0 0 0-.138-.083m1.052 2.625a.738.738 0 0 1-.604-.314 16.214 16.214 0 0 1-1.1-1.821.726.726 0 0 1-.048-.56.731.731 0 0 1 .924-.476c.188.06.34.188.43.362.295.567.631 1.124 1.001 1.655a.734.734 0 0 1-.603 1.154" fill="#000"/>
        <path d="M91.238 133.288a.443.443 0 0 1-.358-.18c-.354-.48-.733-.95-1.125-1.398a.443.443 0 0 1 .043-.626.446.446 0 0 1 .627.042c.409.467.802.957 1.17 1.456a.443.443 0 0 1-.357.706" fill="#000"/>
        <path d="M90.09 131.265a.156.156 0 0 0-.102.038.15.15 0 0 0-.051.105c-.003.04.01.08.037.11.398.455.781.932 1.14 1.417a.15.15 0 0 0 .124.063.153.153 0 0 0 .123-.244 22.6 22.6 0 0 0-1.155-1.437.153.153 0 0 0-.116-.052m1.148 2.314a.74.74 0 0 1-.593-.3 21.51 21.51 0 0 0-1.11-1.378.727.727 0 0 1-.18-.533.728.728 0 0 1 .251-.503.74.74 0 0 1 1.039.07c.413.473.812.97 1.185 1.475a.728.728 0 0 1-.156 1.026.733.733 0 0 1-.436.143" fill="#000"/>
        <path d="M88.929 130.629a.442.442 0 0 1-.313-.128c-5.032-4.949-11.767-6.944-18.013-5.337a.444.444 0 1 1-.222-.86c6.554-1.684 13.603.395 18.86 5.565a.443.443 0 0 1-.312.76" fill="#000"/>
        <path d="M74.922 124.328c4.984 0 9.957 2.09 13.899 5.966a.153.153 0 0 0 .107.044.153.153 0 0 0 .108-.262c-5.182-5.097-12.129-7.149-18.582-5.49a.153.153 0 1 0 .076.297 17.608 17.608 0 0 1 4.392-.555m14.006 6.59a.73.73 0 0 1-.516-.21c-4.96-4.877-11.59-6.845-17.736-5.263a.737.737 0 0 1-.896-.527.733.733 0 0 1 .529-.895c6.654-1.709 13.807.398 19.136 5.64a.73.73 0 0 1 .007 1.037.729.729 0 0 1-.524.219" fill="#000"/>
        <path d="M236.706 140.587c-.91 0-1.791.506-2.246 1.289-.359.618-.423 1.418-.176 2.193.24.749.73 1.339 1.345 1.62a2.2 2.2 0 0 0 .921.194c1.156 0 2.266-.794 2.58-1.847.204-.685.076-1.502-.344-2.187-.404-.658-1.011-1.104-1.666-1.225a2.298 2.298 0 0 0-.414-.037m-.156 6.48c-.5 0-.976-.102-1.414-.302-.92-.42-1.641-1.271-1.981-2.337-.349-1.092-.247-2.239.28-3.145.768-1.325 2.413-2.097 3.9-1.823.986.182 1.883.828 2.462 1.772.602.98.773 2.125.47 3.142-.466 1.56-2.029 2.692-3.717 2.692" fill="#000"/>
        <path d="M236.707 140.877c-.808 0-1.591.45-1.995 1.144-.318.548-.373 1.263-.15 1.96.214.67.647 1.197 1.188 1.444.244.111.513.168.8.168 1.033 0 2.022-.705 2.301-1.64.18-.607.064-1.337-.314-1.953-.36-.587-.896-.985-1.47-1.09a1.996 1.996 0 0 0-.36-.033m-.157 5.296c-.371 0-.722-.074-1.042-.22-.69-.315-1.237-.97-1.501-1.796-.272-.853-.199-1.737.201-2.427a2.934 2.934 0 0 1 2.499-1.434c.158 0 .315.014.466.042.736.136 1.414.631 1.861 1.36.462.753.602 1.658.376 2.42-.35 1.172-1.58 2.055-2.86 2.055m.168-6.478c-1.203 0-2.416.672-3.032 1.733-.485.836-.578 1.897-.254 2.912.315.988.98 1.775 1.825 2.16.4.183.835.276 1.293.276 1.562 0 3.008-1.045 3.438-2.485.28-.938.12-1.998-.44-2.908-.536-.874-1.361-1.47-2.265-1.637a3.122 3.122 0 0 0-.565-.051m-.168 7.662c-.542 0-1.06-.11-1.535-.328-.994-.454-1.773-1.37-2.138-2.513-.373-1.17-.262-2.402.306-3.379.831-1.433 2.6-2.258 4.206-1.962 1.066.196 2.034.89 2.656 1.905.645 1.05.828 2.281.5 3.376-.501 1.68-2.181 2.9-3.995 2.9" fill="#000"/>
        <path d="M238.54 122.974c-6.244 0-12.145 2.066-16.615 5.817-5.69 4.775-8.764 11.994-8.021 18.839 1.032 9.503 8.021 16.023 18.698 17.44 1.806.24 3.535.36 5.14.36 3.853.001 7.23-.701 10.038-2.085 7.633-3.761 12.75-13.73 11.648-22.692-1.104-8.971-7.171-15.565-15.835-17.207a27.203 27.203 0 0 0-5.052-.472m-.799 43.64c-1.657 0-3.439-.125-5.297-.372-11.253-1.493-18.625-8.404-19.72-18.485-.785-7.232 2.448-14.846 8.437-19.871 4.684-3.93 10.855-6.095 17.379-6.095 1.775 0 3.55.166 5.273.493 9.189 1.741 15.622 8.725 16.79 18.225 1.16 9.43-4.243 19.927-12.299 23.896-2.973 1.466-6.527 2.209-10.563 2.209" fill="#000"/>
        <g transform="translate(212.223 121.306)">
            <mask id="b" fill="#fff">
                <use xlink:href="#a"/>
            </mask>
            <path d="M26.318 1.959c-6.176 0-12.01 2.041-16.429 5.748-5.617 4.713-8.651 11.835-7.918 18.586 1.016 9.36 7.912 15.784 18.446 17.183 1.793.238 3.51.358 5.102.358 3.807 0 7.14-.691 9.909-2.056 7.53-3.71 12.575-13.547 11.488-22.396-1.088-8.841-7.066-15.339-15.6-16.957a26.91 26.91 0 0 0-4.998-.466m-.8 42.456a39.62 39.62 0 0 1-5.178-.363C9.522 42.616 2.44 36 1.392 26.355.638 19.415 3.75 12.099 9.515 7.262c4.522-3.794 10.49-5.884 16.803-5.884a27.5 27.5 0 0 1 5.106.477c8.792 1.667 14.95 8.356 16.07 17.456 1.116 9.078-4.07 19.176-11.808 22.988-2.849 1.404-6.27 2.116-10.167 2.116m.799-43.64c-6.455 0-12.56 2.141-17.192 6.027C3.21 11.766.016 19.283.792 26.42 1.87 36.36 9.149 43.173 20.26 44.648c1.844.245 3.613.37 5.259.37 3.992 0 7.502-.734 10.434-2.179 7.952-3.918 13.284-14.285 12.14-23.6C46.94 9.867 40.596 2.98 31.537 1.262a28.092 28.092 0 0 0-5.22-.487m-.798 44.822c-1.671 0-3.466-.126-5.335-.374C8.788 43.712 1.323 36.706.213 26.482-.583 19.156 2.689 11.444 8.75 6.357 13.487 2.383 19.726.195 26.318.195c1.792 0 3.585.167 5.327.498 9.318 1.766 15.841 8.845 17.025 18.475 1.174 9.545-4.3 20.171-12.46 24.192-3.012 1.485-6.61 2.238-10.69 2.238" fill="#000" mask="url(#b)"/>
        </g>
        <path d="M236.745 132.336c-4.907 0-9.213 2.448-10.972 6.238-1.596 3.438-1.073 8.063 1.273 11.246 2.135 2.895 5.604 4.623 9.28 4.623.16 0 .318-.003.477-.01 4.33-.183 8.31-2.824 10.14-6.728 1.938-4.136 1.141-9.455-1.85-12.374-2.154-2.1-5.045-2.758-7.091-2.94a14.328 14.328 0 0 0-1.257-.055m-.418 23.29h-.001c-4.052 0-7.878-1.909-10.235-5.106-2.632-3.57-3.192-8.57-1.394-12.444 2.37-5.104 7.777-6.923 12.048-6.923.455 0 .913.02 1.362.06 3.21.285 5.912 1.417 7.814 3.272 3.335 3.253 4.237 9.152 2.097 13.72-2.015 4.3-6.397 7.208-11.166 7.41-.175.007-.35.011-.525.011" fill="#000"/>
        <path d="M236.745 132.626c-4.793 0-8.996 2.383-10.708 6.07-1.553 3.347-1.042 7.85 1.244 10.951 2.08 2.821 5.46 4.505 9.045 4.505.155 0 .31-.003.465-.01 4.223-.178 8.105-2.753 9.888-6.56 1.888-4.029 1.118-9.207-1.79-12.043-2.092-2.04-4.914-2.68-6.913-2.858a13.98 13.98 0 0 0-1.23-.055m-.42 22.107c-3.769 0-7.325-1.772-9.514-4.741-2.406-3.264-2.942-8.01-1.304-11.54 1.807-3.892 6.218-6.407 11.237-6.407.429 0 .86.02 1.283.057 2.093.186 5.053.861 7.268 3.021 3.076 3.002 3.898 8.463 1.911 12.705-1.875 4.001-5.954 6.708-10.392 6.895-.163.007-.326.01-.488.01m.418-23.29c-4.18 0-9.472 1.775-11.784 6.755-1.755 3.78-1.206 8.663 1.365 12.15 2.302 3.123 6.04 4.987 10 4.988v.29-.29c.172 0 .343-.004.513-.011 4.662-.197 8.946-3.04 10.915-7.242 2.09-4.462 1.215-10.219-2.036-13.39-1.854-1.808-4.495-2.911-7.637-3.19-.439-.04-.889-.06-1.336-.06m-.418 24.474c-4.145 0-8.06-1.954-10.47-5.224-2.693-3.654-3.266-8.773-1.424-12.739 2.427-5.229 7.951-7.091 12.312-7.091.465 0 .932.02 1.388.06 3.277.292 6.04 1.452 7.992 3.355 3.42 3.335 4.346 9.376 2.157 14.051-2.06 4.396-6.542 7.37-11.417 7.576-.179.008-.359.012-.538.012" fill="#000"/>
        <path d="M236.888 163.703c-6.81 0-13.385-2.695-17.308-7.236a.443.443 0 0 1 .047-.626.446.446 0 0 1 .627.046c4.283 4.959 11.895 7.618 19.388 6.775a.444.444 0 1 1 .1.881c-.952.107-1.905.16-2.854.16" fill="#000"/>
        <path d="M219.916 156.024a.153.153 0 0 0-.152.142.15.15 0 0 0 .036.11c3.803 4.402 10.35 7.136 17.088 7.136.942 0 1.892-.053 2.82-.158a.15.15 0 0 0 .104-.056.15.15 0 0 0 .032-.112.157.157 0 0 0-.17-.136c-7.588.855-15.297-1.844-19.641-6.873a.153.153 0 0 0-.117-.053m16.972 7.97c-7.007 0-13.56-2.743-17.529-7.338a.73.73 0 0 1 .078-1.035.738.738 0 0 1 1.037.076c4.222 4.889 11.736 7.509 19.135 6.676a.737.737 0 0 1 .814.648.73.73 0 0 1-.649.811 25.94 25.94 0 0 1-2.886.161" fill="#000"/>
        <path d="M218.89 155.299a.445.445 0 0 1-.366-.19c-.399-.572-.762-1.173-1.082-1.787a.445.445 0 0 1 .79-.408c.302.58.645 1.148 1.022 1.688a.443.443 0 0 1-.364.697" fill="#000"/>
        <path d="M217.838 152.964a.155.155 0 0 0-.147.107.153.153 0 0 0 .01.117c.313.604.67 1.194 1.062 1.755a.154.154 0 0 0 .252-.175 15.56 15.56 0 0 1-1.041-1.72.153.153 0 0 0-.136-.084m1.052 2.625a.737.737 0 0 1-.605-.314 16.3 16.3 0 0 1-1.1-1.82.729.729 0 0 1 .315-.99.739.739 0 0 1 .99.314c.295.568.632 1.125 1.003 1.657a.73.73 0 0 1-.603 1.154" fill="#000"/>
        <path d="M256.956 138.71a.445.445 0 0 1-.43-.33 19.442 19.442 0 0 0-.757-2.25.445.445 0 0 1 .823-.334c.31.76.577 1.552.794 2.354a.444.444 0 0 1-.43.56" fill="#000"/>
        <path d="M256.18 135.81a.15.15 0 0 0-.14.093.152.152 0 0 0-.002.117c.303.744.561 1.513.77 2.285.021.08.1.132.19.108a.153.153 0 0 0 .107-.187 19.925 19.925 0 0 0-.782-2.321.154.154 0 0 0-.143-.096m.776 3.19a.737.737 0 0 1-.71-.542 19.21 19.21 0 0 0-.747-2.219.73.73 0 0 1 .405-.956.738.738 0 0 1 .958.404c.314.77.585 1.574.805 2.389a.734.734 0 0 1-.71.925" fill="#000"/>
        <path d="M255.318 134.577a.445.445 0 0 1-.392-.233c-.77-1.422-1.696-2.67-2.755-3.706-5.043-4.936-11.784-6.912-18.026-5.29a.443.443 0 1 1-.225-.859c6.55-1.704 13.605.36 18.874 5.516 1.123 1.099 2.103 2.417 2.914 3.918a.443.443 0 0 1-.39.654" fill="#000"/>
        <path d="M238.508 124.502c4.97 0 9.929 2.075 13.867 5.929 1.079 1.055 2.023 2.326 2.807 3.775a.158.158 0 0 0 .208.062.153.153 0 0 0 .062-.208c-.797-1.475-1.76-2.77-2.862-3.848-5.197-5.085-12.148-7.12-18.597-5.441a.153.153 0 0 0 .077.296c1.462-.38 2.95-.565 4.438-.565m16.81 10.365a.736.736 0 0 1-.648-.385c-.756-1.398-1.666-2.622-2.703-3.637-4.969-4.862-11.604-6.812-17.749-5.216a.73.73 0 0 1-.556-.076.735.735 0 0 1 .184-1.344c6.648-1.73 13.807.359 19.152 5.588 1.143 1.12 2.141 2.46 2.967 3.988a.735.735 0 0 1-.647 1.082" fill="#000"/>
        <path d="M246.899 161.567a.445.445 0 0 1-.187-.846 16.262 16.262 0 0 0 5.067-3.675.443.443 0 1 1 .654.601 17.151 17.151 0 0 1-5.347 3.879.445.445 0 0 1-.187.041" fill="#000"/>
        <path d="M252.107 157.194a.155.155 0 0 0-.114.05 16.555 16.555 0 0 1-5.159 3.74.153.153 0 0 0-.075.204.157.157 0 0 0 .204.075 16.842 16.842 0 0 0 5.257-3.812.151.151 0 0 0 .04-.11.153.153 0 0 0-.153-.147m-5.208 4.664a.74.74 0 0 1-.668-.426.73.73 0 0 1 .359-.975 15.972 15.972 0 0 0 4.975-3.608.739.739 0 0 1 1.04-.042.729.729 0 0 1 .236.51.725.725 0 0 1-.193.527 17.43 17.43 0 0 1-5.44 3.945.725.725 0 0 1-.31.069" fill="#000"/>
        <path d="M242.921 162.83a.444.444 0 0 1-.079-.88c.555-.1 1.113-.234 1.658-.395a.444.444 0 1 1 .253.85c-.576.171-1.165.311-1.752.418a.439.439 0 0 1-.08.007" fill="#000"/>
        <path d="M244.628 161.827a.161.161 0 0 0-.045.006c-.555.165-1.123.3-1.689.402a.155.155 0 0 0-.124.18c.016.08.096.138.179.122a16.423 16.423 0 0 0 1.721-.41.152.152 0 0 0 .103-.19.151.151 0 0 0-.145-.11m-1.707 1.293a.736.736 0 0 1-.724-.602.737.737 0 0 1 .593-.854 15.42 15.42 0 0 0 1.627-.388c.39-.114.8.108.915.496a.73.73 0 0 1-.497.913c-.586.173-1.186.316-1.782.424a.773.773 0 0 1-.132.011" fill="#000"/>
        <path d="M21.318 70.125a.593.593 0 0 1-.038-1.182 846.747 846.747 0 0 1 68.076-1.633.593.593 0 0 1-.01 1.183h-.01a844.632 844.632 0 0 0-68.018 1.632" fill="#000"/>
        <path d="M75.63 67.488c-18.116 0-36.334.585-54.331 1.745a.302.302 0 0 0-.282.32c.01.158.142.282.3.282h.02a844.969 844.969 0 0 1 68.004-1.632.303.303 0 0 0 .307-.296.302.302 0 0 0-.297-.306 835.862 835.862 0 0 0-13.72-.113m-54.313 2.928a.885.885 0 0 1-.882-.825.884.884 0 0 1 .825-.937 847.02 847.02 0 0 1 68.1-1.634c.487.008.877.41.869.896a.886.886 0 0 1-.884.868 844.392 844.392 0 0 0-68.028 1.632" fill="#000"/>
        <path d="M58.735 114.824h-.001a.592.592 0 0 1-.592-.593c0-.277.059-27.887-.001-42.074a.593.593 0 0 1 .59-.594h.003c.326 0 .592.263.593.589.06 14.19.001 41.804 0 42.081 0 .327-.265.59-.592.59" fill="#000"/>
        <path d="M58.734 71.854a.302.302 0 0 0-.302.302c.059 13.881.004 40.914.001 42.058 0 .098.031.174.088.23a.299.299 0 0 0 .213.09l.001.29v-.29a.302.302 0 0 0 .302-.301c.002-1.162.057-28.196-.002-42.08 0-.165-.136-.3-.301-.3m.001 43.261h-.001a.879.879 0 0 1-.883-.884c.002-1.161.058-28.192-.001-42.072a.884.884 0 0 1 1.768-.007c.058 13.885.003 40.922 0 42.065a.888.888 0 0 1-.883.898" fill="#000"/>
        <path d="M34.955 111.022c1.984.04 3.896.013 5.806-.015 1.925-.028 3.85-.056 5.854-.014-.01-.407-.032-.799-.054-1.207-.024-.415-.047-.84-.056-1.286-1.934-.002-3.82-.013-5.706-.023-1.901-.011-3.803-.022-5.724-.023l-.06 1.305-.06 1.263m2.136 1.203c-.912 0-1.834-.01-2.774-.035a.591.591 0 0 1-.576-.62c.03-.594.059-1.23.088-1.866.03-.638.06-1.276.09-1.871a.592.592 0 0 1 .591-.563c2.141 0 4.219.012 6.296.024 2.075.012 4.15.023 6.25.023.159 0 .33.064.441.176a.609.609 0 0 1 .19.423c-.007.631.024 1.201.058 1.805.033.597.067 1.214.059 1.885a.594.594 0 0 1-.61.584c-2.205-.06-4.31-.03-6.415 0-1.223.018-2.446.035-3.688.035" fill="#000"/>
        <path d="M35.26 110.737c1.89.033 3.722.006 5.497-.02 1.796-.026 3.65-.054 5.557-.02-.011-.298-.027-.592-.044-.895-.02-.35-.037-.676-.049-1.011-1.834-.004-3.629-.013-5.424-.024-1.809-.01-3.618-.02-5.444-.023l-.093 1.993zm1.844.596c-.71 0-1.428-.006-2.155-.02l-.3-.007.148-3.143h.278c1.922.002 3.824.012 5.725.023 1.886.011 3.772.022 5.705.024h.284l.007.284c.01.43.03.833.055 1.276.023.411.045.806.055 1.216l.007.303-.305-.006c-2.006-.041-3.956-.013-5.843.015-1.193.017-2.414.035-3.661.035zm-2.594-3.773a.301.301 0 0 0-.301.287c-.027.528-.052 1.09-.079 1.656l-.01.215-.088 1.866a.302.302 0 0 0 .293.315c.857.024 1.762.036 2.766.036 1.24 0 2.48-.018 3.68-.035 2.073-.03 4.213-.06 6.432 0 .08.008.16-.028.217-.084a.304.304 0 0 0 .093-.213c.008-.662-.026-1.274-.059-1.866a26.23 26.23 0 0 1-.058-1.824c.001-.067-.039-.147-.106-.215a.346.346 0 0 0-.234-.09c-2.1 0-4.176-.012-6.252-.024-2.076-.011-4.154-.024-6.294-.024zm2.581 4.956c-1.01 0-1.92-.012-2.782-.036a.884.884 0 0 1-.86-.924c.03-.594.06-1.23.09-1.865l.01-.214c.026-.567.052-1.13.078-1.66a.883.883 0 0 1 .883-.838c2.142 0 4.22.013 6.298.025 2.074.011 4.148.023 6.248.023.244 0 .486.098.648.263a.895.895 0 0 1 .274.63c-.007.628.024 1.19.057 1.785.034.602.068 1.223.06 1.904a.888.888 0 0 1-.27.625.867.867 0 0 1-.65.246c-2.195-.06-4.329-.03-6.392 0-1.205.018-2.448.036-3.692.036z" fill="#000"/>
        <path d="M82.23 106.149c-1.528 0-3.054-.019-4.573-.057a.445.445 0 0 1-.434-.454c.006-.245.207-.42.455-.433 4.918.122 9.897.046 14.797-.228a.451.451 0 0 1 .47.418.445.445 0 0 1-.42.468c-3.41.19-6.857.286-10.295.286" fill="#000"/>
        <path d="M77.671 105.496c-.062.004-.155.053-.157.15a.154.154 0 0 0 .15.156 184.473 184.473 0 0 0 14.845-.228.155.155 0 0 0 .145-.163c-.006-.089-.104-.14-.168-.143-4.906.274-9.892.35-14.815.228m4.559.943c-1.528 0-3.07-.019-4.58-.056a.737.737 0 0 1-.718-.752c.01-.388.324-.696.732-.716 4.929.122 9.9.045 14.795-.227a.741.741 0 0 1 .776.691.737.737 0 0 1-.694.774c-3.402.19-6.871.286-10.311.286" fill="#000"/>
        <path d="M74.344 105.98h-.02c-.846-.036-1.693-.079-2.538-.127a.444.444 0 0 1-.42-.468.449.449 0 0 1 .47-.418c.842.048 1.684.09 2.527.126a.444.444 0 0 1-.019.887" fill="#000"/>
        <path d="M71.815 105.257a.156.156 0 0 0-.158.145.155.155 0 0 0 .145.162c.845.047 1.69.09 2.535.126l.007.29v-.29a.154.154 0 0 0 .006-.306c-.844-.036-1.687-.079-2.53-.127h-.005zm2.53 1.013h-.033c-.848-.036-1.695-.079-2.543-.127a.736.736 0 0 1-.693-.774c.024-.4.36-.69.77-.692.847.048 1.687.09 2.53.126.405.017.72.36.703.765a.733.733 0 0 1-.735.702z" fill="#000"/>
        <path d="M92.5 95.987H78.706a.444.444 0 1 1 0-.888H92.5a.444.444 0 1 1 0 .888" fill="#000"/>
        <path d="M78.706 95.39a.153.153 0 1 0 0 .306H92.5a.154.154 0 0 0 0-.306H78.706zm13.794.887H78.706a.736.736 0 0 1-.736-.734c0-.405.33-.734.736-.734H92.5c.406 0 .736.33.736.734 0 .405-.33.734-.736.734z" fill="#000"/>
        <path d="M81.531 87.754a.444.444 0 0 1-.003-.887l9.706-.071h.004a.444.444 0 0 1 .003.887l-9.706.071h-.004z" fill="#000"/>
        <path d="M91.238 87.086l-9.708.071a.153.153 0 0 0 .001.307h.004l9.704-.071a.154.154 0 0 0-.001-.307zm-9.702.959h-.005a.735.735 0 0 1-.006-1.468l9.707-.072c.409 0 .739.327.741.73a.736.736 0 0 1-.73.738l-9.707.072z" fill="#000"/>
        <path d="M306.976 19.806h-.005l-204.275-1.749a.592.592 0 0 1-.588-.597.601.601 0 0 1 .598-.586l204.275 1.75a.592.592 0 0 1-.005 1.182" fill="#000"/>
        <path d="M102.702 17.164c-.159 0-.301.14-.303.3a.302.302 0 0 0 .3.303l204.275 1.749.002.29v-.29a.302.302 0 0 0 .003-.602l-204.275-1.75h-.002zm204.274 2.933h-.005l-204.278-1.75a.884.884 0 0 1-.876-.89.887.887 0 0 1 .887-.874h.004l204.276 1.75c.488.004.88.403.876.89a.886.886 0 0 1-.884.874z" fill="#000"/>
        <path d="M132.754 132.47a.444.444 0 0 1-.002-.888l50.41-.229a.46.46 0 0 1 .447.442.444.444 0 0 1-.443.445l-50.41.23h-.002z" fill="#000"/>
        <path d="M183.173 131.643h-.001l-50.418.23a.154.154 0 0 0-.154.153c0 .084.07.153.154.153h.002l50.409-.229a.152.152 0 0 0 .153-.154.155.155 0 0 0-.052-.106.152.152 0 0 0-.093-.047zm-50.417 1.117h-.002a.737.737 0 0 1-.736-.731.732.732 0 0 1 .733-.737l50.41-.23a.716.716 0 0 1 .509.21c.146.14.23.33.23.522a.734.734 0 0 1-.733.737l-50.411.229z" fill="#000"/>
        <path d="M123.56 132.511a.444.444 0 0 1-.002-.887l4.087-.019h.003a.444.444 0 0 1 .002.887l-4.089.019h-.002z" fill="#000"/>
        <path d="M127.648 131.896l-4.089.018a.153.153 0 0 0 0 .306h.002l4.088-.018a.152.152 0 0 0 .152-.154.154.154 0 0 0-.153-.152zm-4.086.905h-.003a.737.737 0 0 1-.735-.73.733.733 0 0 1 .732-.738l4.088-.018c.408 0 .738.328.74.73a.733.733 0 0 1-.732.737l-4.09.02z" fill="#000"/>
        <path d="M284.663 132.855h-18.392a.444.444 0 1 1 0-.887h18.392a.444.444 0 1 1 0 .887" fill="#000"/>
        <path d="M266.27 132.258a.153.153 0 1 0 0 .307h18.393a.154.154 0 0 0 0-.307h-18.392zm18.393.888h-18.392a.736.736 0 0 1-.736-.734c0-.405.33-.734.736-.734h18.392c.406 0 .736.329.736.734 0 .404-.33.734-.736.734z" fill="#000"/>
        <path d="M130.452 62.706a.593.593 0 0 1-.299-1.103l53.265-30.879a.594.594 0 0 1 .81.215.59.59 0 0 1-.215.809L130.75 62.626a.588.588 0 0 1-.297.08" fill="#000"/>
        <path d="M183.714 30.934a.296.296 0 0 0-.15.041L130.3 61.855a.3.3 0 0 0-.11.41.31.31 0 0 0 .412.11l53.265-30.878a.301.301 0 0 0-.153-.563m-53.262 32.063a.888.888 0 0 1-.765-.44.88.88 0 0 1 .32-1.206l53.265-30.878a.874.874 0 0 1 .667-.09.88.88 0 0 1 .22 1.616l-53.264 30.878a.88.88 0 0 1-.443.12" fill="#000"/>
        <path d="M148.374 90.463a.59.59 0 0 1-.292-1.107l88.308-49.762a.59.59 0 1 1 .584 1.03l-88.31 49.763a.592.592 0 0 1-.29.076" fill="#000"/>
        <path d="M236.681 39.809a.303.303 0 0 0-.148.039L148.225 89.61a.3.3 0 0 0-.115.41c.08.14.27.194.412.114l88.309-49.763a.301.301 0 0 0-.15-.562m-88.307 50.945a.882.882 0 0 1-.436-1.65l88.31-49.762a.882.882 0 1 1 .87 1.536l-88.31 49.762a.89.89 0 0 1-.434.114" fill="#000"/>
        <path d="M209.01 105.153a.593.593 0 0 1-.292-1.107l61.621-34.644a.594.594 0 0 1 .808.225.59.59 0 0 1-.225.805L209.3 105.077a.592.592 0 0 1-.29.076" fill="#000"/>
        <path d="M270.63 69.616a.301.301 0 0 0-.148.039l-61.621 34.644a.3.3 0 0 0-.115.41c.079.14.27.195.411.115l61.622-34.645a.3.3 0 0 0 .115-.41.298.298 0 0 0-.264-.153m-61.62 35.827a.885.885 0 0 1-.853-1.119.877.877 0 0 1 .418-.53l61.622-34.645a.885.885 0 0 1 1.285 1.005.878.878 0 0 1-.417.532l-61.622 34.644a.886.886 0 0 1-.433.113" fill="#000"/>
    </g>
</svg>
