<svg width="332" height="230" viewBox="0 0 332 230" xmlns="http://www.w3.org/2000/svg" xmlns:xlink="http://www.w3.org/1999/xlink">
    <title>
        Page 1
    </title>
    <defs>
        <path id="a" d="M0 .055h175.938v179.796H0V.055z"/>
        <path id="c" d="M122.088 50.735h-122V.26h122z"/>
        <path id="e" d="M166.79.176V58.64H.086V.176z"/>
    </defs>
    <g fill="none" fill-rule="evenodd">
        <g transform="translate(0 .24)">
            <mask id="b" fill="#fff">
                <use xlink:href="#a"/>
            </mask>
            <path d="M175.938.149c.044.405-10.75 1.528-11.537 1.601a758.362 758.362 0 0 1-17.579 1.43c-6.02.42-12.055.695-18.086.923-6.043.228-12.086.432-18.132.595-6.19.166-12.38.311-18.571.457-6.258.147-12.515.308-18.771.505-6.055.19-12.11.396-18.16.705-6.072.31-12.136.687-18.202 1.09-5.795.387-11.578 1.005-17.35 1.627-2.868.31-5.724.661-8.582 1.046l-4.066.547c-1.164.156-2.56.155-3.63.685-.998.494-.73 1.745-.59 2.65.216 1.373.44 2.744.684 4.112.47 2.639.988 5.268 1.538 7.89C6.03 31.381 7.25 36.73 8.436 42.085L11.915 57.8l3.816 17.245 4.024 18.179a11310.615 11310.615 0 0 1 7.896 36.044c1.18 5.43 2.356 10.86 3.523 16.291.53 2.464 1.057 4.928 1.583 7.393.578 2.713 1.095 5.446 1.767 8.138 1.377 5.522 3.549 11.074 6.973 15.664a31.32 31.32 0 0 0 2.077 2.48c.105.115.78.84.283.547-.484-.286-.929-.695-1.334-1.08-1.806-1.716-3.29-3.731-4.54-5.88a46.173 46.173 0 0 1-3.604-7.865c-.982-2.785-1.656-5.644-2.333-8.514a4532.45 4532.45 0 0 1-3.495-14.945 8158.682 8158.682 0 0 1-3.874-16.768c-1.37-5.959-2.736-11.919-4.098-17.88-1.398-6.115-2.788-12.233-4.175-18.351l-4.059-17.914-3.822-16.867C7.38 48.668 6.233 43.62 5.091 38.57 3.83 33.005 2.556 27.44 1.466 21.836.959 19.232.457 16.616.094 13.988c-.186-1.346-.167-2.806.74-3.908.628-.764 1.533-1.192 2.476-1.43 1.095-.276 2.243-.369 3.36-.518l4.04-.539c2.881-.383 5.76-.73 8.65-1.036 5.953-.63 11.918-1.236 17.894-1.612a1076.08 1076.08 0 0 1 18.163-1.006c6.08-.28 12.164-.454 18.248-.606 6.228-.156 12.457-.273 18.685-.37 6.207-.096 12.413-.187 18.619-.29 6.071-.1 12.142-.229 18.212-.38 6.083-.15 12.168-.34 18.245-.635 5.868-.284 11.733-.583 17.597-.949 2.58-.16 5.155-.385 7.736-.529.19-.01 3.155-.254 3.179-.031" fill="#000" mask="url(#b)"/>
        </g>
        <path d="M214.907 135.148c-.293.075-.947-2.162-1.01-2.345-.713-2.106-1.349-4.238-1.981-6.37-1.49-5.025-2.908-10.072-4.313-15.122a2694.645 2694.645 0 0 1-4.672-17.035c-1.39-5.126-2.77-10.256-4.143-15.387-1.001-3.746-1.993-7.494-2.989-11.242-.631-2.375-1.2-4.768-1.798-7.151a2047.195 2047.195 0 0 1-3.744-15.166 3452.018 3452.018 0 0 1-4.097-17.056c-1.27-5.35-2.525-10.703-3.735-16.067-.544-2.407-.916-4.93-1.878-7.214-.464-1.103-1.055-2.168-1.912-3.017a4.66 4.66 0 0 0-1.457-.981c-.44-.186-.893-.224-1.347-.348-.345-.094-.19-.182.07-.243.229-.055.456-.073.69-.069.533.01 1.049.142 1.535.359 1.107.492 1.983 1.404 2.662 2.386 1.503 2.172 2.11 4.779 2.798 7.286 1.42 5.176 2.791 10.366 4.149 15.558 1.489 5.698 2.943 11.404 4.403 17.11l3.738 14.605 2.154 8.415c.447 1.748.907 3.493 1.363 5.24 1.27 4.865 2.537 9.731 3.792 14.6 1.438 5.574 2.865 11.15 4.277 16.73a1718.702 1718.702 0 0 1 4.086 16.447c1.104 4.554 2.253 9.114 3.117 13.721.033.177.52 2.285.242 2.356-.299.077.299-.076 0 0" fill="#000"/>
        <path d="M214.783 134.993c.07.299-2.834 1.062-3.044 1.125-2.698.806-5.42 1.533-8.14 2.256-6.398 1.699-12.817 3.318-19.24 4.915a2355.181 2355.181 0 0 1-21.67 5.275 2348.112 2348.112 0 0 1-19.453 4.56c-4.58 1.053-9.165 2.086-13.75 3.121-3.262.737-6.546 1.39-9.821 2.073-6.487 1.35-12.98 2.67-19.48 3.948a1467.21 1467.21 0 0 1-21.871 4.148c-6.738 1.219-13.484 2.397-20.245 3.477-3.15.503-6.304.986-9.464 1.423-1.986.275-3.988.585-5.992.692-.085.005-.83.09-.857-.055-.027-.145.685-.31.766-.334 1.914-.567 3.896-.938 5.847-1.347 6.3-1.32 12.622-2.541 18.935-3.8 7.204-1.435 14.413-2.854 21.61-4.326 6.9-1.41 13.798-2.833 20.69-4.28 5.654-1.188 11.302-2.4 16.951-3.606 2.333-.498 4.66-1.017 6.987-1.536a6823.447 6823.447 0 0 0 18.332-4.117c7.117-1.609 14.236-3.21 21.35-4.827a4501.129 4501.129 0 0 1 21.034-4.743c5.827-1.295 11.656-2.641 17.532-3.703.2-.036 2.924-.626 2.993-.339.07.299-.072-.3 0 0" fill="#000"/>
        <g transform="translate(43.391 179.286)">
            <mask id="d" fill="#fff">
                <use xlink:href="#c"/>
            </mask>
            <path d="M122.078 46.27c.156.314-2.177 1.388-2.432 1.509-.817.386-1.67.707-2.525.997a37.144 37.144 0 0 1-6.858 1.596c-2.483.342-5.002.456-7.504.283-2.64-.183-5.213-.751-7.742-1.512-5.082-1.527-9.915-3.756-14.665-6.095-4.564-2.247-9.108-4.538-13.653-6.825-2.474-1.245-4.959-2.472-7.423-3.737-2.59-1.33-5.162-2.695-7.743-4.043-4.308-2.25-8.609-4.513-12.907-6.781A2877.596 2877.596 0 0 1 24.206 14c-4.44-2.377-8.875-4.766-13.285-7.197A372.953 372.953 0 0 1 4.803 3.37C3.445 2.589 2.066 1.816.776.923.654.84.095.535.09.351.084.187.336.287.446.316c1.206.318 2.372.93 3.5 1.443 4.196 1.907 8.326 3.96 12.454 6.009 4.757 2.36 9.499 4.752 14.235 7.154 4.708 2.389 9.41 4.79 14.107 7.2 4.104 2.104 8.204 4.22 12.303 6.335 1.565.807 3.129 1.617 4.697 2.416 3.664 1.866 7.328 3.73 10.987 5.604 4.635 2.376 9.24 4.83 13.955 7.046 2.43 1.141 4.897 2.205 7.425 3.11 2.453.877 4.976 1.646 7.56 2.016 5.041.723 10.251.263 15.183-.942.87-.213 1.734-.45 2.588-.72.233-.074 2.518-.96 2.638-.717.035.07-.034-.069 0 0" fill="#000" mask="url(#d)"/>
        </g>
        <path d="M152.44 225.54c-.035.29-2.11.055-2.326.03a32.075 32.075 0 0 1-2.578-.403c-2.135-.431-4.228-1.059-6.272-1.806-4.445-1.625-8.672-3.768-12.852-5.972-8.275-4.363-16.542-8.741-24.84-13.062-4.529-2.358-9.044-4.737-13.548-7.142a1907.033 1907.033 0 0 0-24.912-13.061l-12.308-6.34c-1.922-.99-3.845-1.977-5.756-2.988-.927-.49-1.855-.977-2.77-1.488-.677-.377-1.49-.742-2.062-1.28-.383-.36.249-.197.45-.142.898.244 1.768.604 2.631.944 2.04.805 4.052 1.678 6.057 2.564a443.324 443.324 0 0 1 11.9 5.5c8.494 4.057 16.898 8.3 25.248 12.645 4.606 2.397 9.193 4.83 13.785 7.253 8.122 4.287 16.215 8.638 24.224 13.134 4.178 2.346 8.332 4.742 12.667 6.792a66.29 66.29 0 0 0 11.406 4.174c.168.044 1.893.37 1.857.647-.01.077.046-.357 0 0" fill="#000"/>
        <g transform="translate(165.004 167.192)">
            <mask id="f" fill="#fff">
                <use xlink:href="#e"/>
            </mask>
            <path d="M157.437.34c-.01-.287 1.491-.116 1.682-.081.731.135 1.431.419 2.085.768 1.515.81 2.817 1.959 4.157 3.019.586.464 1.198.975 1.38 1.737.195.82-.227 1.57-.758 2.164-1.11 1.241-2.567 2.124-4.07 2.809-1.57.716-3.22 1.253-4.849 1.823a1347.792 1347.792 0 0 1-15.037 5.188 1922.508 1922.508 0 0 1-20.365 6.769 2329.5 2329.5 0 0 1-19.872 6.37c-3.852 1.22-7.704 2.455-11.576 3.61A2083.2 2083.2 0 0 1 58.32 43.77a1891.534 1891.534 0 0 1-21.442 5.901c-6.586 1.77-13.18 3.506-19.795 5.166-3.111.78-6.226 1.548-9.35 2.278-2.095.49-4.195.993-6.316 1.359-.267.046-.535.09-.804.121-.113.013-.345.074-.453.024-.209-.097.081-.194.215-.257 1.459-.694 3.1-1.1 4.637-1.576 5.948-1.838 11.943-3.525 17.924-5.25l20.788-5.993a4332.496 4332.496 0 0 0 20.939-6.097 4161.951 4161.951 0 0 0 18.423-5.471c2.639-.788 5.282-1.563 7.914-2.375a7119.647 7119.647 0 0 0 16.954-5.248 3283.035 3283.035 0 0 0 20.299-6.403c6.882-2.189 13.766-4.372 20.644-6.57 3.36-1.075 6.729-2.128 10.083-3.224 1.54-.504 3.097-1.055 4.471-1.932.66-.421 1.417-.946 1.859-1.606.448-.672-.174-1.192-.661-1.624-1.22-1.083-2.383-2.254-3.731-3.181a8.576 8.576 0 0 0-1.832-.982c-.19-.071-1.644-.364-1.649-.49" fill="#000" mask="url(#f)"/>
        </g>
        <path d="M324.64 167.816c-.067.211-1.118-.059-1.242-.083-1.093-.212-2.173-.49-3.25-.77-3.63-.943-7.234-1.994-10.834-3.05-9.01-2.643-17.987-5.404-26.955-8.189-5.164-1.604-10.336-3.19-15.467-4.899a2817.883 2817.883 0 0 1-24.975-8.427c-4.519-1.551-9.006-3.215-13.548-4.696-3.936-1.283-7.976-2.274-12.119-2.527-.106-.006-1.398-.007-1.353-.22.024-.117.384-.189.466-.213.372-.108.76-.17 1.143-.219 1.915-.246 3.875-.102 5.781.154 4.63.622 9.073 2.107 13.514 3.494 8.788 2.745 17.554 5.56 26.305 8.418 5.066 1.655 10.135 3.3 15.211 4.925a2277.593 2277.593 0 0 1 26.24 8.553 763.607 763.607 0 0 1 12.468 4.25c2.548.898 5.14 1.759 7.604 2.874.111.05 1.078.42 1.012.625-.189.586.188-.587 0 0" fill="#000"/>
        <path d="M220.229 178.196c.111.32-3.949 1.707-4.332 1.842-1.81.636-3.643 1.207-5.482 1.751-3.877 1.149-7.8 2.145-11.725 3.111-5.994 1.476-12.03 2.778-17.987 4.402a222.131 222.131 0 0 0-5.751 1.658c-1.671.505-3.333 1.113-5.031 1.517-.08.02-.549.172-.603.072-.056-.103.444-.328.493-.353.74-.384 1.514-.707 2.282-1.029 1.733-.726 3.52-1.34 5.302-1.932 6.088-2.023 12.33-3.477 18.561-4.97 3.693-.885 7.389-1.758 11.075-2.671 3.762-.931 7.49-1.981 11.225-3.009.184-.05 1.9-.596 1.973-.389.025.073-.026-.072 0 0" fill="#000"/>
        <path d="M255.876 191.57c.043.255-5.156 1.33-5.482 1.409-3.43.823-6.838 1.72-10.227 2.695-6.707 1.93-13.322 4.158-19.872 6.563a372.505 372.505 0 0 0-7.184 2.725c-1.969.77-4.056 1.814-6.208 1.788-1.792-.022-3.452-.808-5.082-1.468a388.716 388.716 0 0 0-4.88-1.942c-3.432-1.338-6.88-2.632-10.324-3.936-3.174-1.202-6.347-2.406-9.498-3.666-2.415-.966-4.919-1.88-7.212-3.116-.305-.164-.582-.364-.055-.23.919.232 1.815.586 2.707.901 2.975 1.052 5.944 2.122 8.916 3.183 6.817 2.437 13.656 4.822 20.385 7.497 1.526.606 3.116 1.417 4.783 1.508 1.587.086 3.085-.587 4.534-1.143 1.466-.564 2.93-1.134 4.4-1.688 6.324-2.385 12.718-4.58 19.2-6.5 3.465-1.027 6.966-1.973 10.492-2.769 3.032-.683 6.085-1.34 9.17-1.73.095-.011 1.415-.215 1.437-.081.028.165-.023-.14 0 0" fill="#000"/>
        <path d="M256.06 191.708c-.134.25-2.398-.823-2.59-.902a331.525 331.525 0 0 0-4.103-1.666 190.157 190.157 0 0 0-8.931-3.292c-4.794-1.626-9.574-3.289-14.316-5.061a131.609 131.609 0 0 1-4.04-1.568 29.213 29.213 0 0 1-1.334-.58c-.18-.084-.606-.215-.716-.397-.078-.128-.057-.106.088-.134.245-.046.603.091.837.146 1.15.267 2.284.617 3.413.962 4.97 1.516 9.878 3.221 14.805 4.867 2.81.938 5.586 1.987 8.316 3.138 1.49.628 2.966 1.29 4.418 2 1.226.6 2.47 1.218 3.601 1.985.069.047.622.376.553.502-.075.14.072-.132 0 0" fill="#000"/>
        <path d="M177.67 9.338c.021.323-13.129 1.212-14.066 1.281a2370 2370 0 0 1-18.009 1.258c-6.626.441-13.254.863-19.882 1.272-5.914.364-11.828.724-17.743 1.06l-12.182.694c-2.859.163-5.72.283-8.58.423-5.858.288-11.717.554-17.575.823-6.589.302-13.177.61-19.766.902-6.315.28-12.63.553-18.946.806-5.434.218-10.874.477-16.313.537-.118 0-1.925.063-1.932-.06-.016-.327 14.307-1.077 15.378-1.14 6.578-.388 13.158-.749 19.739-1.102 7.042-.378 14.086-.733 21.13-1.094l17.54-.897 8.931-.457c1.865-.096 3.73-.206 5.595-.31l15.533-.862c6.9-.384 13.8-.769 20.7-1.15l20.712-1.14c5.854-.322 11.71-.697 17.571-.868.122-.003 2.157-.108 2.165.024" fill="#000"/>
        <path d="M42.843 155.422c-.215.068-1.644-4.494-1.767-4.888a196.935 196.935 0 0 1-2.163-7.41c-1.392-5.144-2.594-10.34-3.684-15.556-1.14-5.45-2.172-10.92-3.16-16.4-.878-4.87-1.723-9.749-2.59-14.622a1449.09 1449.09 0 0 0-1.713-9.403c-.465-2.522-.92-5.045-1.392-7.565-.907-4.831-1.848-9.656-2.823-14.473a888.43 888.43 0 0 0-7.02-31.734c-1.067-4.449-2.213-8.88-3.253-13.335-.107-.455-.213-.91-.301-1.37-.015-.072-.152-.538-.082-.6.056-.048.465 1.12.5 1.228.748 2.266 1.398 4.562 2.046 6.857 1.34 4.745 2.57 9.522 3.754 14.308a652.619 652.619 0 0 1 3.776 16.195 796.316 796.316 0 0 1 3.236 15.456c.853 4.271 1.672 8.55 2.459 12.833.306 1.668.613 3.336.917 5.004.819 4.497 1.594 9.001 2.365 13.507.905 5.285 1.81 10.571 2.772 15.847.994 5.446 2.05 10.883 3.244 16.29 1.112 5.037 2.356 10.037 3.678 15.023.1.381 1.403 4.743 1.2 4.808" fill="#000"/>
        <path d="M203.5 123.055c.084.315-12.11 3.565-12.976 3.8a906.036 906.036 0 0 1-16.288 4.268 705.758 705.758 0 0 1-18.38 4.384c-5.956 1.332-11.93 2.59-17.929 3.718-4.364.82-8.737 1.597-13.124 2.287-3.934.62-7.88 1.16-11.829 1.668-5.53.713-11.067 1.371-16.601 2.056-6.234.771-12.468 1.566-18.68 2.501-5.865.883-11.715 1.885-17.523 3.084-5.285 1.09-10.494 2.446-15.712 3.812-.105.028-1.664.482-1.703.366-.072-.222 5.323-1.861 5.805-2.003a185.22 185.22 0 0 1 8.386-2.268c5.78-1.41 11.632-2.533 17.497-3.527 6.473-1.097 12.979-1.998 19.488-2.85 5.779-.758 11.564-1.472 17.344-2.214 4.113-.527 8.22-1.095 12.318-1.73 2.715-.42 5.425-.865 8.131-1.336a544.283 544.283 0 0 0 17.097-3.262 764.987 764.987 0 0 0 19.012-4.2 1436.616 1436.616 0 0 0 18.095-4.378c5.22-1.292 10.428-2.655 15.675-3.834.11-.024 1.865-.463 1.897-.342" fill="#000"/>
        <path d="M205.022 121.9c.091.121-1.428 1.299-1.561 1.409-2.223-8.458-4.201-16.978-6.233-25.483-1.976-8.275-3.925-16.557-5.88-24.837-.714-3.018-1.422-6.037-2.11-9.062-1.76-7.75-3.522-15.499-5.283-23.248-1.973-8.681-3.963-17.36-5.804-26.07-.349-1.648-.753-3.31-.966-4.982-.039-.301-.047-.626.128-.162.285.755.477 1.553.69 2.33 1.027 3.766 1.957 7.56 2.889 11.35 2.22 9.025 4.36 18.069 6.478 27.118 1.368 5.846 2.704 11.7 4.067 17.546 1.76 7.553 3.495 15.112 5.231 22.67 2.016 8.772 3.991 17.556 5.852 26.362.41 1.94.846 3.883 1.17 5.84.076-.049 1.266-.868 1.332-.78" fill="#000"/>
        <path d="M327.573 170.25c.102.224-5.938 2.928-6.58 3.216a293.723 293.723 0 0 1-8.639 3.706 393.812 393.812 0 0 1-18.415 7.016c-6.889 2.438-13.852 4.63-20.833 6.783-6.529 2.013-13.06 4.019-19.601 5.992-4.099 1.237-8.197 2.476-12.296 3.71-3.093.93-6.2 1.818-9.3 2.727a3935.452 3935.452 0 0 1-39.324 11.307 2918.261 2918.261 0 0 1-20.074 5.588c-5.735 1.573-11.471 3.151-17.239 4.603-.225.057-3.328.886-3.369.741-.085-.302 15.113-4.62 16.229-4.944l19.375-5.63a13618.37 13618.37 0 0 0 21.14-6.167c6.277-1.834 12.558-3.656 18.83-5.506l13.07-3.857c2.912-.859 5.818-1.742 8.727-2.614 6.441-1.932 12.879-3.874 19.317-5.816 6.996-2.11 13.998-4.2 20.932-6.508a481.106 481.106 0 0 0 19.393-6.925c5.59-2.13 11.112-4.419 16.648-6.683.116-.047 1.956-.852 2.009-.738.016.035-.034-.073 0 0" fill="#000"/>
        <path d="M232.3 143.572c.077.315-12.431 3.383-13.313 3.605a1671.26 1671.26 0 0 1-16.996 4.18 2341.607 2341.607 0 0 1-18.996 4.49c-5.637 1.308-11.279 2.6-16.924 3.87-4.244.957-8.494 1.888-12.74 2.831-2.354.523-4.715 1.012-7.074 1.51a2445.402 2445.402 0 0 1-16.524 3.426 1825.41 1825.41 0 0 1-18.712 3.721c-6.266 1.207-12.562 2.305-18.746 3.892-5.582 1.432-11.12 3.189-16.38 5.561-.273.123-3.006 1.467-3.071 1.35-.09-.162 2.765-1.644 3.037-1.784a51.533 51.533 0 0 1 3.91-1.805 96.575 96.575 0 0 1 7.926-2.887c5.958-1.878 12.05-3.163 18.166-4.4 6.311-1.276 12.62-2.557 18.925-3.861a2873.937 2873.937 0 0 0 16.988-3.563c3.596-.766 7.194-1.527 10.789-2.3 2.934-.63 5.862-1.289 8.793-1.934a3691.384 3691.384 0 0 0 16.83-3.747c6.259-1.408 12.515-2.829 18.768-4.263l17.98-4.123c5.167-1.185 10.325-2.429 15.52-3.479.106-.02 1.816-.409 1.844-.29.019.075-.018-.075 0 0" fill="#000"/>
        <path d="M114.497 201.514c-.085.306-2.766-.617-2.953-.682-1.684-.583-3.32-1.316-4.918-2.105-3.249-1.603-6.358-3.46-9.483-5.286-4.977-2.908-10.096-5.576-15.414-7.81-1.64-.69-3.295-1.346-4.958-1.98-.783-.297-1.57-.588-2.351-.89-.49-.189-1.03-.355-1.483-.627-.22-.133-.218-.2.045-.195.521.008 1.072.18 1.574.302 1.612.39 3.199.881 4.768 1.415 5.569 1.892 10.89 4.397 16.007 7.284 3.038 1.714 5.976 3.598 8.993 5.348 3.07 1.779 6.212 3.332 9.44 4.793.079.036.774.291.733.433-.038.137.046-.158 0 0" fill="#000"/>
        <path d="M278.839 158.631c.091.31-11.991 3.871-12.852 4.13-5.392 1.617-10.8 3.185-16.216 4.719a1319.47 1319.47 0 0 1-18.41 5.067 1518.076 1518.076 0 0 1-17.164 4.487 1750.146 1750.146 0 0 1-15.88 3.96c-3.981.977-7.98 1.892-11.977 2.806a1643.186 1643.186 0 0 1-16.598 3.711 1411.36 1411.36 0 0 1-18.467 3.889c-6.109 1.245-12.257 2.364-18.286 3.96-2.719.72-5.41 1.543-8.042 2.533-2.617.986-5.117 2.328-7.786 3.165-.196.062-2.811.753-2.84.492-.01-.069 1.628-.462 1.727-.494 1.247-.393 2.436-.938 3.612-1.504 2.613-1.258 5.242-2.435 7.98-3.398 5.692-2.003 11.603-3.295 17.496-4.543 6.252-1.323 12.5-2.654 18.741-4.027a1946.667 1946.667 0 0 0 17.251-3.874 2429.13 2429.13 0 0 0 15.438-3.606c4.33-1.023 8.645-2.107 12.962-3.181a1970.965 1970.965 0 0 0 35.127-9.09c5.801-1.559 11.594-3.145 17.385-4.74 5.018-1.383 10.024-2.839 15.074-4.108.095-.024 1.691-.466 1.725-.354" fill="#000"/>
        <path d="M278.482 158.742c-.106.424-6.382-1.196-6.811-1.3a248.947 248.947 0 0 1-11.835-3.199c-5.886-1.737-11.675-3.757-17.333-6.141-1.883-.794-3.636-1.802-5.462-2.71a14.86 14.86 0 0 0-4.697-1.453c-.325-.044-.828-.143-.166-.267.779-.146 1.613-.07 2.386.07 1.973.356 3.76 1.318 5.552 2.167 3.522 1.666 7.278 2.903 10.955 4.178 2.154.748 4.315 1.462 6.49 2.148a639.546 639.546 0 0 0 11.395 3.457c1.853.547 3.709 1.085 5.559 1.642 1.173.354 2.376.679 3.512 1.142.055.023.481.163.455.266-.075.299.075-.299 0 0" fill="#000"/>
        <path d="M122.626 197.585c-.128.199-1.591-.664-1.728-.736-1.333-.704-2.643-1.452-3.956-2.192-3.111-1.755-6.224-3.508-9.367-5.207-4.972-2.69-9.908-5.444-14.903-8.094-1.422-.755-2.848-1.504-4.258-2.282a38.211 38.211 0 0 1-1.388-.794c-.186-.113-.633-.3-.734-.508-.07-.145-.039-.129.129-.118.3.018.632.182.91.284 1.238.457 2.446 1 3.647 1.543 5.228 2.366 10.282 5.075 15.312 7.828a210.322 210.322 0 0 1 8.996 5.203c1.47.901 2.928 1.824 4.362 2.783.905.605 1.848 1.203 2.67 1.92.045.04.366.28.308.37-.168.262.165-.257 0 0" fill="#000"/>
        <path d="M132.606 192.764c-.206.224-2.677-1.793-2.96-2a89.34 89.34 0 0 0-3.65-2.516 82.07 82.07 0 0 0-7.908-4.552c-4.684-2.367-9.437-4.562-14.237-6.684-1.232-.544-2.465-1.088-3.682-1.665a24.058 24.058 0 0 1-1.178-.588c-.128-.07-.538-.228-.591-.384-.086-.25.874.06.995.095 1.085.308 2.15.691 3.21 1.075 5.008 1.814 9.913 3.908 14.662 6.317 2.566 1.302 5.066 2.705 7.481 4.27 2.451 1.59 4.872 3.382 6.924 5.47.105.108 1.075 1.01.934 1.162" fill="#000"/>
        <path d="M148.836 189.478c-.116.218-1.681-.547-1.824-.609-1.38-.6-2.739-1.255-4.093-1.912-3.07-1.49-6.116-3.03-9.154-4.585-1.205-.616-2.4-1.24-3.588-1.89a543.054 543.054 0 0 1-8.62-4.813 160.802 160.802 0 0 1-4.196-2.463c-.487-.299-.973-.6-1.446-.921-.215-.146-.61-.34-.746-.573-.09-.151-.068-.15.108-.14.303.021.651.222.924.337 1.24.527 2.445 1.136 3.647 1.74 3.12 1.563 6.205 3.194 9.284 4.835 1.296.691 2.587 1.393 3.888 2.074a612.218 612.218 0 0 1 8.04 4.274c1.526.827 3.05 1.662 4.557 2.524.967.553 1.971 1.093 2.868 1.758.054.04.404.262.35.364-.286.545.288-.546 0 0" fill="#000"/>
        <path d="M160.49 185.78c-.119.205-1.47-.499-1.605-.56-1.209-.553-2.397-1.152-3.586-1.745-2.813-1.403-5.623-2.814-8.452-4.185-4.443-2.152-8.841-4.396-13.276-6.565-1.28-.625-2.561-1.247-3.825-1.902-.41-.213-.821-.428-1.22-.662-.14-.083-.558-.258-.616-.429-.047-.139.045-.11.178-.1.292.02.599.146.874.235 1.145.37 2.266.823 3.38 1.277 4.612 1.88 9.085 4.067 13.549 6.27a187.858 187.858 0 0 1 8.048 4.205c1.302.723 2.595 1.464 3.867 2.239.814.496 1.672.984 2.408 1.595.047.04.327.236.275.327-.154.269.153-.266 0 0" fill="#000"/>
        <path d="M171.692 182.225c-.165.236-1.96-.925-2.13-1.023-1.15-.667-2.292-1.346-3.44-2.015a186.65 186.65 0 0 0-7.35-4.074c-3.84-2.012-7.692-3.998-11.63-5.814-1.182-.544-2.366-1.081-3.55-1.621-.555-.254-1.112-.507-1.658-.78-.21-.106-.77-.294-.889-.52-.097-.184.073-.144.245-.124.434.052.867.195 1.284.318 1.216.36 2.41.792 3.594 1.245 4.119 1.577 8.079 3.497 11.982 5.54a101.054 101.054 0 0 1 6.934 3.972c2.122 1.335 4.367 2.704 6.22 4.408.057.053.465.379.388.488-.09.13.086-.123 0 0" fill="#000"/>
        <path d="M184.47 180.527c-.109.104-.574-.292-.653-.348-.483-.342-.96-.695-1.45-1.028a38.172 38.172 0 0 0-3.288-1.976c-2.419-1.315-4.905-2.508-7.347-3.78-3.91-2.035-7.736-4.242-11.527-6.489a99.47 99.47 0 0 1-3.163-1.936 22.1 22.1 0 0 1-1.09-.736c-.139-.101-.468-.279-.533-.451-.123-.323.676.055.804.107.952.388 1.874.855 2.792 1.315 4.06 2.033 8.017 4.26 12.023 6.395 2.335 1.244 4.67 2.488 6.98 3.78 2.172 1.213 4.565 2.597 6.14 4.575.05.063.416.478.312.572-.117.113.107-.097 0 0" fill="#000"/>
        <path d="M197.454 177.57c-.178.217-1.782-.99-1.934-1.092-1.032-.694-2.06-1.393-3.1-2.076a101.799 101.799 0 0 0-6.882-4.175c-3.67-2.019-7.386-3.953-11.237-5.608-1.168-.503-2.342-.99-3.52-1.47-.573-.233-1.147-.461-1.715-.706-.336-.144-.748-.277-1.04-.505-.152-.12-.175-.159.013-.202.304-.07.776.103 1.07.168 1.195.267 2.37.629 3.53 1.019 4.235 1.425 8.248 3.339 12.17 5.462a67.99 67.99 0 0 1 6.605 4.072c1.974 1.38 4.062 2.837 5.707 4.612.053.058.417.401.333.502-.101.123.095-.115 0 0" fill="#000"/>
        <path d="M210.833 174.163c-.119.206-1.374-.446-1.503-.505-1.118-.51-2.214-1.067-3.308-1.624-2.565-1.305-5.113-2.641-7.667-3.968-3.308-1.72-6.556-3.551-9.81-5.37a246.888 246.888 0 0 1-3.752-2.126c-.824-.48-1.685-.947-2.443-1.53-.054-.041-.36-.238-.317-.34.045-.106.358.015.425.034.864.25 1.696.662 2.51 1.035 4.256 1.946 8.361 4.195 12.487 6.397a262.724 262.724 0 0 1 7.249 3.991c1.207.694 2.408 1.4 3.59 2.137.77.48 1.583.95 2.275 1.54.05.042.318.235.264.329-.154.268.153-.267 0 0" fill="#000"/>
        <path d="M223.569 171.007c-.131.397-2.55-.763-2.739-.862-1.097-.574-2.117-1.284-3.114-2.015-2.04-1.495-4.037-2.986-6.336-4.071-3.823-1.805-7.91-2.975-11.766-4.699-2.108-.942-4.409-2.07-6.01-3.78-.259-.276-.376-.526.093-.312.5.228.965.55 1.445.816 1.01.56 2.031 1.08 3.087 1.549 3.928 1.741 8.093 2.874 12.05 4.547a27.484 27.484 0 0 1 6.364 3.776c1.969 1.554 3.836 3.196 6.026 4.442.126.071.956.437.9.609-.024.071.024-.075 0 0" fill="#000"/>
        <path d="M235.905 167.429c-.185.19-1.872-1.144-2.046-1.26a39.008 39.008 0 0 0-3.136-1.86c-2.32-1.241-4.754-2.259-7.157-3.326-3.869-1.72-7.663-3.617-11.425-5.558a87.163 87.163 0 0 1-3.103-1.661 18.599 18.599 0 0 1-1.057-.635c-.117-.077-.46-.245-.501-.392-.082-.287.7.029.835.074.961.324 1.898.727 2.83 1.125 3.998 1.704 7.906 3.602 11.858 5.406 2.253 1.029 4.516 2.041 6.698 3.216 2.094 1.127 4.36 2.477 5.897 4.332.05.06.403.443.307.539-.114.117.102-.102 0 0" fill="#000"/>
        <path d="M247.352 165.973c-.12.194-1.283-.455-1.407-.516-1.098-.537-2.175-1.122-3.252-1.7-2.554-1.371-5.106-2.748-7.679-4.082-4.097-2.124-8.149-4.333-12.243-6.462-1.156-.6-2.315-1.197-3.455-1.83-.367-.203-.735-.409-1.089-.636-.085-.055-.489-.261-.494-.389-.01-.246.923.118 1.05.162 1.053.359 2.081.795 3.102 1.235 4.192 1.805 8.238 3.912 12.27 6.043a155.1 155.1 0 0 1 7.261 4.075 92.23 92.23 0 0 1 3.559 2.23c.723.48 1.487.955 2.131 1.541.046.042.302.24.246.329-.163.263.163-.26 0 0" fill="#000"/>
        <path d="M256.979 160.676c-.064.337-2.51-.235-2.779-.303a28.147 28.147 0 0 1-3.197-.986c-2.28-.87-4.472-1.958-6.614-3.122-3.32-1.804-6.5-3.897-9.921-5.505-1.063-.5-2.13-1.003-3.23-1.418-1.064-.401-2.17-.698-3.228-1.11-.143-.055-.648-.196-.415-.353.125-.085.487-.01.624.001.308.024.614.063.92.105 1.121.153 2.223.487 3.294.84 3.813 1.262 7.24 3.348 10.72 5.308 2.216 1.249 4.425 2.537 6.729 3.622 1.28.604 2.572 1.186 3.903 1.671.614.224 1.225.452 1.847.65.17.054 1.39.372 1.347.6-.015.075.014-.076 0 0" fill="#000"/>
        <path d="M238.152 149.641c.07.306-11.48 3.016-12.3 3.215a2699.584 2699.584 0 0 1-15.475 3.702 5748.18 5748.18 0 0 1-17.37 4.076l-15.903 3.712c-4.187.978-8.375 1.95-12.568 2.904a343.37 343.37 0 0 1-8.822 1.874c-5.517 1.102-11.07 2.007-16.638 2.815-5.847.848-11.703 1.649-17.532 2.614-5.7.943-11.366 2.07-16.94 3.593a112.05 112.05 0 0 0-7.547 2.354c-2.529.887-4.992 1.913-7.453 2.97-.093.04-1.542.716-1.601.603-.122-.235 4.835-2.525 5.23-2.7a81.542 81.542 0 0 1 7.733-2.98c5.565-1.821 11.265-3.187 17.015-4.28 6.076-1.155 12.197-2.053 18.313-2.97 5.848-.876 11.692-1.785 17.496-2.926a342.508 342.508 0 0 0 9.922-2.093l7.84-1.784 14.86-3.383c5.97-1.359 11.937-2.724 17.91-4.07 5.739-1.293 11.48-2.58 17.225-3.846 4.927-1.086 9.853-2.213 14.813-3.146.104-.02 1.764-.374 1.792-.254" fill="#000"/>
        <path d="M243.242 153.335c.04.217-4.91 1.234-5.292 1.325-2.488.588-4.976 1.171-7.458 1.782-5.203 1.279-10.38 2.661-15.55 4.065-5.488 1.49-10.968 3.013-16.46 4.487-5.14 1.379-10.29 2.716-15.472 3.924-3.741.87-7.494 1.689-11.264 2.422-3.286.638-6.597 1.168-9.905 1.676-4.948.76-9.907 1.443-14.862 2.155-5.537.796-11.074 1.615-16.574 2.639-5.4 1.006-10.79 2.154-16.067 3.687-2.536.736-5.07 1.491-7.558 2.38-2.405.859-4.76 1.828-7.133 2.77-.096.038-1.424.615-1.478.504-.092-.188 4.434-2.253 4.81-2.41a144.384 144.384 0 0 1 7.42-2.867c5.117-1.812 10.432-3.127 15.734-4.274 5.518-1.193 11.083-2.138 16.661-3.004 5.039-.782 10.088-1.489 15.129-2.254 4.37-.664 8.743-1.34 13.087-2.16a277.315 277.315 0 0 0 7.95-1.636c5.17-1.132 10.31-2.394 15.436-3.706 5.456-1.397 10.893-2.863 16.34-4.294 5.336-1.402 10.68-2.774 16.05-4.037 4.936-1.161 9.908-2.264 14.923-3.02.097-.015 1.512-.266 1.533-.154" fill="#000"/>
        <path d="M254.589 156.06c.094.318-11.233 3.673-12.037 3.914a748.304 748.304 0 0 1-32.366 8.925 670.076 670.076 0 0 1-15.818 3.782 615.156 615.156 0 0 1-13.729 2.932c-2.51.506-5.028.973-7.548 1.427a532.983 532.983 0 0 1-16.695 2.745c-5.81.859-11.628 1.664-17.411 2.688-5.658 1-11.291 2.2-16.79 3.875-2.675.814-5.288 1.803-7.952 2.649-2.453.78-5.055 1.44-7.65 1.224a9.43 9.43 0 0 1-1.458-.221c-.07-.017-.789-.204-.703-.272.096-.075.54.047.646.059.494.053.99.085 1.486.088 2.6.02 5.122-.69 7.557-1.544 2.65-.93 5.255-1.969 7.929-2.835 2.75-.89 5.546-1.649 8.358-2.32 5.723-1.368 11.527-2.368 17.337-3.282 5.675-.892 11.356-1.737 17.024-2.673 4.583-.757 9.156-1.6 13.716-2.486 2.713-.528 5.42-1.085 8.125-1.65a662.306 662.306 0 0 0 15.146-3.367 885.35 885.35 0 0 0 16.984-4.157c5.57-1.418 11.123-2.896 16.67-4.402 4.833-1.311 9.656-2.657 14.49-3.964.427-.115 4.63-1.331 4.689-1.134" fill="#000"/>
        <path d="M263.9 157.994c.103.33-11.321 3.82-12.134 4.07a597.948 597.948 0 0 1-15.386 4.488 652.181 652.181 0 0 1-17.393 4.567 702.12 702.12 0 0 1-28.408 6.439 598.05 598.05 0 0 1-9.564 1.844c-5.599 1.044-11.216 1.993-16.838 2.902-5.89.952-11.785 1.887-17.62 3.134a187.415 187.415 0 0 0-16.741 4.396c-4.756 1.485-9.42 3.212-14.089 4.942-.094.035-1.58.638-1.628.526-.089-.203 4.133-1.971 4.561-2.153 2.364-1 4.76-1.927 7.173-2.8a165.782 165.782 0 0 1 15.977-4.873c5.774-1.454 11.62-2.56 17.487-3.563 5.681-.97 11.368-1.904 17.038-2.937 4.377-.797 8.748-1.62 13.11-2.493 3.17-.635 6.334-1.3 9.495-1.98a818.801 818.801 0 0 0 32.92-7.808 950.271 950.271 0 0 0 16.293-4.391c4.7-1.308 9.375-2.717 14.092-3.957.096-.025 1.618-.468 1.655-.353" fill="#000"/>
        <path d="M110.482 209.785c-.086.341-.923.217-1.146.194a10.234 10.234 0 0 1-1.77-.359c-.907-.257-1.713-.7-2.49-1.235-.377-.26-.943-.61-1.138-1.049-.2-.446.328-.366.6-.293.97.262 1.856.788 2.781 1.165.588.239 1.192.437 1.781.675.24.097 1.487.482 1.382.902-.075.299.075-.3 0 0" fill="#000"/>
        <path d="M120.605 215.177c-.259.4-1.546-.221-1.848-.329-.456-.163-.934-.303-1.378-.496-.5-.217-.982-.501-1.465-.752-.285-.148-1.46-.6-1.408-1.04.095-.797 2.985.446 3.355.607.577.251 1.147.499 1.681.836.22.138 1.312.79 1.063 1.174-.168.26.167-.257 0 0" fill="#000"/>
        <path d="M132.61 221.244c-.249.254-1.017-.263-1.238-.377a25.873 25.873 0 0 0-1.818-.872c-.954-.402-1.873-.879-2.832-1.275-.204-.084-1.354-.448-1.078-.806.278-.36 1.334-.123 1.694-.058 1 .182 1.953.593 2.855 1.053a7.57 7.57 0 0 1 1.727 1.182c.162.151.964.876.69 1.153-.217.222.215-.217 0 0" fill="#000"/>
        <path d="M50.26 180.801c-.307.465-1.629-.058-2.003-.242-.37-.184-1.71-1.002-1.466-1.517.283-.598 1.64.175 1.997.353.336.168 1.855.827 1.472 1.406-.17.258.169-.256 0 0" fill="#000"/>
    </g>
</svg>
