<svg width="185" height="44" viewBox="0 0 185 44" xmlns="http://www.w3.org/2000/svg" xmlns:xlink="http://www.w3.org/1999/xlink">
    <title>
        Page 1
    </title>
    <defs>
        <path id="a" d="M184.952 35.384V.262H0v35.122h184.952z"/>
    </defs>
    <g fill="none" fill-rule="evenodd">
        <path d="M93.134 9.3c-.124.022-.22.093-.328.154l-.025-.104c-.027.008-.05.01-.068.021-.099.057-.196.115-.293.173l.01-.086c-.027.008-.05.011-.068.021l-.305.16-.056-.129c-.181.051-.306.174-.428.313l-.079-.206c-.157.07-.258.19-.351.328l-.06-.189c-.205.038-.324.18-.429.346l-.06-.135c-.162.103-.25.259-.35.415-.013-.053-.025-.1-.04-.153-.145.09-.203.238-.274.382l-.098-.153c-.144.115-.233.266-.33.419l-.08-.121c-.168.093-.255.252-.352.404-.027-.01-.054-.016-.076-.03-.045-.026-.081-.015-.121.011a.64.64 0 0 0-.226.26c-.046.095-.051.096-.115.02-.097.098-.192.197-.292.292-.03.028-.073.043-.11.062-.043.022-.091.035-.13.063-.17.12-.348.223-.546.288-.067.022-.137.037-.205.056a.204.204 0 0 1 .03-.073c.138-.226.317-.417.505-.602.08-.078.162-.155.247-.23.096-.084.195-.167.293-.25l.18-.144c.073-.058.145-.118.22-.174.075-.056.152-.107.228-.16l-.037-.078c.176-.09.343-.178.513-.266l-.098-.119c.12-.067.237-.125.347-.194.075-.047.142-.106.209-.163.021-.018.032-.048.049-.075a84.717 84.717 0 0 1-.19-.122c.224-.086.408-.224.585-.362l-.248-.144c.247-.085.434-.224.594-.409l-.154-.105c.19-.091.35-.21.486-.369l-.207-.052c.21-.137.362-.32.512-.5a79.36 79.36 0 0 0-.267-.11c.21-.147.341-.276.386-.376a32.66 32.66 0 0 1-.165-.102c.135-.088.203-.216.268-.351l-.12-.065.246-.294-.146-.044a.936.936 0 0 0 .273-.317l-.102-.064.286-.37-.136-.085c.032-.035.058-.067.088-.095.038-.036.082-.066.118-.102.02-.02.029-.048.043-.073l-.01-.011c-.043.025-.078.016-.11-.017-.034-.035-.015-.07 0-.102.027-.058.052-.118.088-.17.147-.215.297-.428.447-.642.038-.052.078-.102.118-.153a.88.88 0 0 0-.151.045c-.177.068-.36.12-.52.228a2.714 2.714 0 0 0-.543.488c-.04.047-.07.047-.11 0-.013-.016-.024-.034-.038-.055-.117.105-.157.248-.214.383l-.134-.102-.193.26c-.118-.03-.118-.03-.183.078-.018.03-.036.06-.052.092l-.08.162-.12-.114c-.046.055-.056.124-.069.19-.012.068-.02.136-.03.215l-.157-.088c-.096.154-.131.332-.191.51l-.12-.125c-.109.131-.128.295-.178.469l-.077-.112-.019.014c-.062.178-.029.364-.04.56l-.213-.139c-.006.015-.014.028-.017.042l-.107.564a53.07 53.07 0 0 1-.189-.1c-.074.205-.073.42-.092.637l-.198-.17c-.016.036-.033.064-.04.094-.042.183-.086.366-.119.55-.025.135-.055.157-.183.103l-.014.004c-.058.218-.045.444-.036.67l-.225-.013c.038.226.025.445.012.666l-.127-.013c0 .047.007.09-.001.13-.032.148-.07.294-.105.441a.122.122 0 0 1-.074.088.104.104 0 0 0-.048.05c-.062.165-.116.333-.182.496a3.535 3.535 0 0 1-.398.758c-.023.033-.051.063-.077.094-.012-.68.154-1.322.386-1.953a47.733 47.733 0 0 1-.114-.038c.026-.038.05-.072.072-.108.055-.088.114-.175.16-.268.047-.091.035-.108-.06-.128.089-.186.175-.367.263-.546.023-.047.01-.077-.032-.1-.027-.016-.054-.03-.08-.042.157-.185.213-.409.282-.63l-.171-.039c.16-.224.226-.473.27-.737l-.231-.036c.137-.204.216-.428.27-.671h-.249a1.8 1.8 0 0 0 .248-.626h-.198c.136-.187.174-.395.198-.616h-.25c.09-.171.077-.355.109-.527l-.248.062c.095-.213.109-.422.115-.64h-.201v-.46l-.193.047.07-.586-.2.015-.003-.045c-.015-.19-.027-.38-.045-.57-.013-.126-.054-.145-.152-.093 0-.07.003-.146 0-.22a4.84 4.84 0 0 0-.182-1.047c-.094-.347-.117-.703-.145-1.06-.011-.144-.017-.29-.026-.436a.208.208 0 0 0-.014.062L86.6.223c-.025.243-.049.486-.077.728-.026.222-.05.445-.086.665a5.06 5.06 0 0 0-.073 1.232c.002.045-.019.061-.059.062l-.087-.003c-.006.02-.013.039-.017.058a1.5 1.5 0 0 0-.004.523c.007.055-.01.083-.056.1-.023.009-.048.02-.072.02-.053-.001-.065.028-.053.07.027.099.058.196.088.293.005.017.013.032.021.051h-.088c-.12-.002-.127.003-.102.126.02.101.05.2.075.301a.414.414 0 0 0-.243-.05c-.018.189.043.36.087.533-.048 0-.092.004-.135 0-.041-.005-.056.013-.064.05a.633.633 0 0 0 .016.295c.023.088.053.174.08.265l-.203-.013a.922.922 0 0 0 .021.397c.031.128.073.253.11.38l-.215-.062c-.02.253.088.468.167.701-.041 0-.076.002-.11 0-.036-.002-.053.01-.041.047.025.076.047.154.077.228.053.13.112.259.168.388l.028.06-.26.041c.067.224.213.4.342.59l-.188.03c.075.246.21.457.323.678-.057.022-.11.045-.164.062-.044.015-.05.04-.027.075.057.086.112.172.173.254.061.083.128.16.193.242l-.132.044c.144.202.236.425.343.65l-.099-.012c.02.054.04.104.055.155.117.428.234.855.348 1.284a.643.643 0 0 1-.032.392c-.454-.584-.676-1.267-.928-1.936l-.108.067c.013-.283-.02-.544-.178-.77l-.127.034c.008-.216-.05-.406-.12-.597l-.114.03a2.678 2.678 0 0 0-.208-.534l-.159.102c-.047-.292-.158-.548-.269-.808l-.134.12c-.026-.192-.103-.353-.18-.517l-.138.105-.219-.591-.205.121c-.014-.089-.025-.17-.042-.25-.016-.08-.037-.16-.056-.234l-.238.129c-.004-.195-.076-.352-.155-.506l-.168.098-.175-.444-.204.113-.117-.294-.138.1c-.028-.16-.124-.263-.222-.363l-.117.044c-.235-.441-.565-.789-.93-1.106.224.418.305.877.409 1.329-.032.012-.055.02-.085.033.045.15.134.275.207.409-.044.025-.083.05-.124.069-.03.014-.034.035-.02.06.034.063.07.127.108.187.038.06.081.115.123.174l-.128.053.248.325-.121.03c.134.167.3.286.46.427l-.223.094c.095.126.23.2.35.293l-.125.071c.137.165.316.272.486.394l-.125.09c.139.176.32.296.495.436l-.182.047.512.418-.186.065c.181.207.412.331.629.48l-.119.083c.22.183.471.303.714.443l-.125.064c.222.185.466.326.704.485l-.11.036c0 .004-.002.01-.004.014.094.053.188.107.284.157.098.052.198.1.298.15l-.034.083c.276.18.953.81 1.008.943-.023-.008-.042-.013-.06-.022l-.784-.391a.585.585 0 0 1-.234-.224c-.047-.074-.047-.074-.133-.046-.002.001-.006 0-.01-.001l-.074-.155-.084.051a.583.583 0 0 0-.214-.22c-.041-.023-.084-.041-.117-.02l-.407-.426-.08.054-.365-.318-.103.123c-.09-.136-.213-.226-.336-.32-.025.035-.045.065-.061.09-.115-.106-.228-.213-.34-.318l-.073.134a.84.84 0 0 0-.323-.309l-.09.086-.312-.216-.033.129c-.12-.093-.259-.128-.399-.167l-.026.07c-.057-.027-.112-.06-.171-.08-.097-.03-.098-.027-.146.06l-.004.005c-.071-.036-.142-.07-.21-.108-.057-.032-.11-.04-.159.01-.001.003-.006.002-.006.002-.116-.078-.249-.087-.382-.108l.023.09c-.316-.065-1.05-.16-1.13-.144.403.12.782.275 1.118.533-.022.05.016.064.055.075.034.01.068.02.102.027l.15.036-.03.08.277.12-.057.06.258.126.003.017-.058.032.378.213-.078.056.41.138-.106.099c.174.117.37.126.564.158l-.057.1.42.087c-.005.02-.006.04-.014.058-.018.04-.005.063.037.074.062.015.122.037.185.048.106.018.214.031.323.046l-.097.128.527.067-.043.067c.099.007.187.017.274.02.09.004.18.001.268.001l-.01.121h.436l-.006.087h.592l-.006.064c.341.048 1.066.215 1.2.273-.526.087-1.017.297-1.517.487l.08.077c-.296.142-.582.283-.84.494l.08.042c-.105.121-.216.24-.319.367-.103.127-.198.261-.297.392.38-.21.772-.384 1.157-.564l.088.083c.082-.098.341-.303.454-.36l.02.028c.092.133.074.11.175.036.38-.28.754-.565 1.13-.849l.062-.047c.003.06.006.109.007.157.002.258 0 .516.006.774.01.34.004.68-.042 1.018a2.7 2.7 0 0 0-.022.282c-.004.108.098.172.196.129.037-.017.06-.044.05-.088a4.25 4.25 0 0 1-.073-.834c-.003-.411.005-.822.01-1.233 0-.073.007-.146.01-.23l.226.21c.118.104.23.219.358.31.214.154.462.236.714.306.007.002.015 0 .024 0l.025-.098.165.102.134.078c0 .06.066.08.11.124l.035-.091 1.066.477c-.005-.02-.007-.044-.018-.063-.034-.058-.066-.118-.107-.171-.1-.13-.205-.257-.31-.384a2.13 2.13 0 0 0-.666-.523l-.051-.029.072-.096c-.124-.025-.24-.052-.356-.072-.119-.02-.238-.032-.365-.049l.045-.042.052-.05c-.297-.075-.588-.056-.88-.057a.61.61 0 0 1 .242-.137c.37-.138.758-.203 1.146-.263.156-.024.313-.043.47-.065a5.095 5.095 0 0 1-.011-.063c.114.005.225.008.335.014.045.003.071-.006.07-.058-.001-.02.008-.041.01-.055h.49v-.114l.487-.066-.038-.18c.178.002.353.002.524-.054l-.015-.157c.192.004.375-.03.556-.07l.01-.02c-.048-.043-.097-.085-.144-.125l.543-.076.002-.015c-.044-.04-.088-.08-.133-.123.174.006.33-.046.49-.1l-.108-.133.366-.057-.118-.143.31-.053-.102-.11.262-.11-.04-.093c.146-.033.268-.1.386-.178l-.039-.05c.029-.024.059-.042.08-.067a.904.904 0 0 1 .33-.235c.293-.135.588-.265.882-.397l.045-.02c-.458-.072-.885.042-1.312.186l-.005-.087" fill="#FEFEFE"/>
        <g transform="translate(0 8.439)">
            <mask id="b" fill="#fff">
                <use xlink:href="#a"/>
            </mask>
            <path fill="#FEFEFE" mask="url(#b)" d="M96.073.262v1.267h87.613v32.588H1.266V1.53h76.402V.262H0v35.122h184.952V.262z"/>
        </g>
        <path d="M12.505 35.364h2.738c4.543 0 5.539-2.077 5.539-4.247 0-2.598-2.552-4.248-8.277-3.729v7.976zm4.076-11.673c1.152-.52 1.805-1.437 1.805-2.965 0-3.148-3.61-3.76-5.975-3.76v7.305c2.054 0 3.174-.122 4.17-.58zm-4.2 14.76c-.686 0-2.273 0-3.02-.03V13.94c.374-.03.81-.03 1.152-.03 4.823 0 11.016.856 11.016 6.815 0 1.65-.84 3.453-1.712 4.431 2.677.55 4.108 2.965 4.108 5.654v.214c-.218 5.378-2.552 7.395-11.545 7.426z" fill="#FEFEFE"/>
        <path d="M37.805 35.395c5.103 0 9.428-3.973 9.428-9.046 0-5.318-4.2-9.352-9.553-9.352-5.072 0-9.304 4.218-9.304 9.2 0 5.164 4.263 9.198 9.429 9.198m.062-21.423c6.877 0 12.447 5.47 12.447 12.224 0 6.754-5.57 12.224-12.447 12.224-6.877 0-12.447-5.47-12.447-12.224 0-6.753 5.57-12.224 12.447-12.224" fill="#FEFEFE"/>
        <path fill="#FEFEFE" d="M64.972 13.972l-5.944 12.286 5.944 12.193h-3.36l-4.233-8.74-4.232 8.74h-3.36l5.912-12.193-5.912-12.286 3.33.03 4.262 8.802 4.263-8.801z"/>
        <path d="M114.503 31.361V13.972h3.129v17.725c0 3.087-1.304 5.379-3.553 6.754l-4.433-.03c2.673-1.498 4.857-3.606 4.857-7.06" fill="#FEFEFE"/>
        <path d="M125.912 30.72h7.594l-3.683-9.138-3.911 9.137zm13.853 7.7h-3.292l-1.826-4.706h-9.974l-1.955 4.707h-3.52l10.625-24.419 9.942 24.419z" fill="#FEFEFE"/>
        <path fill="#FEFEFE" d="M157.466 38.451l-12.974-15.525v15.495h-3.161V14.033l13.006 15.8V13.972h3.129z"/>
        <path fill="#FEFEFE" d="M160.726 13.972h12.125v3.056l-8.93.03v11.339h7.3v2.964h-7.3v4.003h8.93v3.057H160.76z"/>
        <path d="M83.152 22.76c-2.545 0-4.695 2.167-4.695 4.732 0 2.61 2.134 4.732 4.758 4.732s4.758-2.087 4.758-4.653c0-2.698-2.118-4.811-4.821-4.811m.095 11.159c-3.54 0-6.419-2.883-6.419-6.427 0-3.544 2.88-6.427 6.42-6.427 3.538 0 6.418 2.883 6.418 6.427 0 3.544-2.88 6.427-6.419 6.427" fill="#FEFEFE"/>
        <path d="M83.215 32.165c-2.59 0-4.699-2.097-4.699-4.673 0-2.533 2.123-4.673 4.636-4.673 2.67 0 4.762 2.088 4.762 4.753 0 2.532-2.108 4.593-4.699 4.593m.032-11.16c-3.572 0-6.478 2.91-6.478 6.487 0 3.576 2.906 6.486 6.478 6.486 3.572 0 6.478-2.91 6.478-6.486 0-3.576-2.906-6.486-6.478-6.486m-.032 11.278c2.608 0 4.818-2.07 4.818-4.712 0-2.77-2.147-4.872-4.881-4.872-2.592 0-4.754 2.197-4.754 4.792 0 2.69 2.178 4.792 4.817 4.792m.032-11.16c3.514 0 6.36 2.85 6.36 6.368a6.362 6.362 0 0 1-6.36 6.368 6.362 6.362 0 0 1-6.36-6.368 6.362 6.362 0 0 1 6.36-6.368" fill="#FEFEFE"/>
        <path fill="#FEFEFE" d="M91.154 33.919l-.016-12.854h6.033v1.71l-4.357.017v5.787h3.562v1.662h-3.561l.016 3.678z"/>
        <path d="M97.23 21.006h-6.152v.118l.016 12.736v.118H92.892l-.001-.119-.016-3.558h3.561v-1.782h-3.561v-5.668l4.238-.016h.118V21.006zm-.118.118v1.592l-4.357.016v5.906h3.562v1.544h-3.562l.016 3.677h-1.558l-.016-12.735h5.915z" fill="#FEFEFE"/>
    </g>
</svg>
