<svg width="185" height="45" viewBox="0 0 185 45" xmlns="http://www.w3.org/2000/svg">
    <title>
        Group
    </title>
    <g fill-rule="nonzero" fill="#A65ABD">
        <path d="M92.67 9.3c-.12.02-.22.09-.32.15l-.03-.1-.07.02-.29.17.01-.08-.07.02-.3.16a1.63 1.63 0 0 1-.06-.13.89.89 0 0 0-.43.31l-.08-.2a.98.98 0 0 0-.35.32l-.06-.18c-.2.03-.32.18-.43.34l-.06-.13c-.16.1-.25.26-.35.41l-.04-.15c-.14.09-.2.24-.27.38a1.3 1.3 0 0 0-.1-.15c-.14.11-.23.26-.33.42a1.25 1.25 0 0 0-.08-.12c-.17.09-.25.25-.35.4l-.08-.03c-.04-.03-.08-.01-.12.01a.62.62 0 0 0-.22.26c-.05.1-.05.1-.12.02l-.29.29a.24.24 0 0 1-.11.06l-.13.07c-.17.12-.35.22-.55.29l-.2.05c0-.03.02-.05.03-.07.2-.318.454-.599.75-.83l.29-.25.18-.15.22-.17.23-.16-.04-.08.52-.27-.1-.11.35-.2c.07-.04.14-.1.21-.16l.04-.08-.19-.12c.23-.08.41-.22.59-.36l-.25-.14c.25-.09.44-.23.6-.41l-.16-.11c.19-.09.35-.21.49-.37l-.21-.05c.21-.14.36-.32.51-.5l-.26-.11c.21-.15.34-.28.38-.38l-.16-.1c.13-.09.2-.21.26-.35l-.12-.06.25-.3-.15-.04a.95.95 0 0 0 .28-.32l-.1-.06.28-.37-.13-.09.08-.09.12-.1.04-.08-.01-.01c-.04.03-.07.02-.1-.02-.04-.03-.02-.07-.01-.1l.09-.17.45-.64.12-.15a.54.54 0 0 0-.15.04c-.18.07-.36.12-.52.23-.21.14-.39.3-.55.49-.04.05-.07.05-.11 0l-.03-.06c-.12.11-.16.25-.22.39l-.13-.1-.2.25c-.11-.03-.11-.03-.18.08l-.05.09-.08.17-.12-.12c-.05.06-.06.13-.07.19l-.03.22-.16-.09c-.09.15-.13.33-.19.51a1.54 1.54 0 0 1-.12-.13c-.11.14-.13.3-.18.47a.67.67 0 0 1-.07-.11l-.02.02c-.06.17-.03.36-.04.56l-.21-.14-.02.04-.11.56-.19-.1c-.07.21-.07.42-.09.64l-.2-.17-.04.09-.12.55c-.02.14-.05.16-.18.11h-.01c-.06.22-.05.44-.04.67l-.22-.01c.03.22.02.44.01.66l-.13-.01v.13l-.11.44a.13.13 0 0 1-.07.09.12.12 0 0 0-.05.05l-.18.5a3.6 3.6 0 0 1-.4.75l-.07.1a5.3 5.3 0 0 1 .38-1.96l-.11-.03.07-.11.16-.27c.05-.09.04-.11-.06-.13l.26-.54c.03-.05.01-.08-.03-.1l-.08-.05c.16-.18.21-.4.28-.63l-.17-.03c.16-.23.23-.48.27-.74a1.85 1.85 0 0 1-.23-.04c.14-.2.22-.42.27-.67h-.25c.12-.19.21-.4.25-.62h-.2c.14-.19.18-.4.2-.62h-.25c.09-.17.08-.36.11-.53l-.25.06c.1-.21.11-.42.12-.63h-.21v-.47l-.19.05.07-.58-.2.01v-.04l-.05-.57c-.01-.13-.05-.15-.15-.1v-.22c-.02-.35-.09-.7-.18-1.04A5.5 5.5 0 0 1 86.2.44L86.17 0l-.02.06-.01.16-.08.73-.08.67a4.8 4.8 0 0 0-.09.85l.01.38c.01.04-.02.06-.06.06h-.08l-.02.05c-.04.18-.03.35 0 .53 0 .05-.01.08-.06.1a.19.19 0 0 1-.07.02c-.05 0-.07.03-.05.07l.08.29.02.05h-.08c-.12 0-.13 0-.11.13l.08.3a.39.39 0 0 0-.24-.05c-.02.19.04.36.08.53h-.13c-.04 0-.06.01-.07.05-.02.1 0 .2.02.3l.08.26-.2-.01a.9.9 0 0 0 .02.4l.11.38-.22-.07c-.02.26.09.47.17.71l-.11-.01c-.04 0-.05.02-.04.05l.08.23.16.39.03.06-.26.04c.07.22.22.4.34.59l-.18.03c.07.24.21.46.32.68l-.16.06c-.05.01-.05.04-.03.07l.17.26.19.24a.5.5 0 0 1-.13.04c.15.21.24.43.35.65l-.1-.01.05.16.35 1.28c.03.13.02.25-.03.39-.46-.58-.68-1.26-.93-1.93l-.11.06c.01-.28-.02-.54-.18-.77l-.12.04c0-.22-.05-.41-.12-.6l-.12.03a1.9 1.9 0 0 0-.21-.53l-.15.1a3.67 3.67 0 0 0-.27-.81l-.14.12c-.02-.19-.1-.35-.18-.52l-.14.11-.21-.59-.21.12a1.87 1.87 0 0 0-.04-.25l-.06-.24-.24.13c0-.19-.07-.35-.15-.5l-.17.1-.17-.45-.21.11-.11-.29-.14.1c-.03-.16-.13-.26-.22-.36l-.12.04a3.97 3.97 0 0 0-.93-1.1c.22.41.3.87.41 1.32l-.09.04c.05.15.14.27.21.41l-.12.07c-.03.01-.04.03-.02.06l.1.18.13.18-.13.05.25.32a.56.56 0 0 0-.12.04c.13.16.3.28.46.42l-.23.1c.1.12.23.2.35.29l-.12.07c.14.17.31.27.48.39l-.12.09c.14.18.32.3.49.44l-.18.05.51.42-.18.06c.18.21.41.33.63.48l-.12.08c.22.19.47.31.71.45l-.12.06c.22.18.46.33.7.48a.49.49 0 0 1-.11.04v.02l.28.15.3.15-.04.09c.28.17.96.81 1.01.94l-.06-.02-.78-.4a.56.56 0 0 1-.24-.22c-.04-.07-.04-.07-.13-.04l-.01-.01-.07-.15-.09.05a.56.56 0 0 0-.21-.22c-.04-.02-.08-.04-.12-.02l-.4-.43-.08.06-.37-.32-.1.12c-.09-.13-.22-.22-.34-.32a.35.35 0 0 1-.06.09l-.34-.32a.91.91 0 0 0-.07.14.82.82 0 0 0-.33-.31l-.09.09-.31-.22-.03.13c-.12-.09-.26-.13-.4-.17l-.03.07a.89.89 0 0 0-.17-.08c-.09-.03-.09-.03-.14.06l-.01.01-.21-.11c-.05-.03-.11-.04-.15.01h-.01c-.12-.08-.25-.09-.38-.11l.02.09A8.44 8.44 0 0 0 79 9.52c.4.12.78.27 1.12.53-.02.05.01.07.05.08l.1.02.16.04a.3.3 0 0 1-.04.08l.28.12-.06.06a2.1 2.1 0 0 1 .27.14.2.2 0 0 0-.06.04l.38.21-.08.05.41.14a1 1 0 0 1-.11.1c.18.12.37.13.57.16l-.06.1.42.09-.02.05c-.01.04 0 .07.04.08l.19.05.32.04-.1.13.53.07-.04.06.27.02h.27l-.01.13h.43v.08h.59l-.01.07a9.1 9.1 0 0 1 1.21.27c-.53.09-1.02.3-1.52.49l.08.07c-.3.15-.58.29-.84.5l.08.04-.32.37-.3.39c.38-.21.77-.38 1.16-.57l.09.09c.08-.1.34-.3.45-.36l.02.03c.09.13.07.11.18.03l1.13-.85.06-.04v.15l.01.78c.01.34 0 .68-.04 1.01l-.02.29c-.01.1.09.17.19.13.04-.02.06-.05.05-.09a4.76 4.76 0 0 1-.07-.84l.01-1.23.01-.23.23.21c.11.11.23.22.35.31.22.15.47.24.72.31h.02l.03-.1.16.1.14.08c0 .06.06.08.11.12l.03-.09 1.07.48-.02-.06-.11-.18-.31-.38a2.09 2.09 0 0 0-.66-.52l-.06-.03.08-.1-.36-.07-.36-.05.04-.04.05-.05c-.29-.07-.59-.06-.88-.06a.58.58 0 0 1 .24-.13c.38-.14.76-.21 1.15-.27l.47-.06-.01-.06.33.01c.05 0 .08-.01.07-.06l.02-.05h.48v-.12l.49-.06a.8.8 0 0 0-.04-.18c.18 0 .36 0 .53-.06l-.02-.16c.19.01.38-.02.56-.07l.01-.02-.15-.12.55-.08v-.01l-.13-.12c.17 0 .33-.05.49-.1l-.11-.14.36-.05-.11-.15.31-.05-.11-.11.27-.11-.04-.09c.14-.04.26-.1.38-.18l-.04-.05.08-.07a.82.82 0 0 1 .33-.23l.89-.4.04-.02c-.46-.07-.88.04-1.31.19l-.01-.09"/>
        <path d="M96.07 9v1.27h87.62v32.59H1.27V10.27h76.4V9H0v35.12h184.95V9z"/>
        <path d="M12.14 27.48c5.73-.52 8.28 1.13 8.28 3.73 0 2.17-1 4.24-5.54 4.24h-2.74v-7.97zm4.08-3.7c-1 .46-2.12.58-4.17.58v-7.3c2.36 0 5.97.61 5.97 3.75 0 1.53-.65 2.45-1.8 2.97zm-4.2 14.76c8.99-.03 11.33-2.05 11.54-7.43v-.21c0-2.69-1.43-5.1-4.1-5.65a7.35 7.35 0 0 0 1.71-4.44c0-5.95-6.2-6.81-11.02-6.81-.34 0-.78 0-1.15.03v24.48c.75.03 2.33.03 3.02.03z"/>
        <path d="M37.38 35.42a9.28 9.28 0 0 1-9.42-9.2 9.35 9.35 0 0 1 9.3-9.19c5.35 0 9.55 4.03 9.55 9.35 0 5.07-4.32 9.04-9.43 9.04zM37.45 14A12.33 12.33 0 0 0 25 26.22c0 6.76 5.57 12.23 12.45 12.23 6.87 0 12.44-5.47 12.44-12.23 0-6.75-5.57-12.22-12.44-12.22z"/>
        <path d="M65.19 14l-5.95 12.29 5.95 12.19h-3.37l-4.23-8.74-4.23 8.74H50l5.91-12.19L50 14l3.33.03 4.26 8.8 4.27-8.8z"/>
        <path d="M114.86 31.39V14h3.13v17.73c0 3.08-1.31 5.37-3.56 6.75l-4.43-.03c2.67-1.5 4.86-3.61 4.86-7.06"/>
        <path d="M129.63 21.58l3.68 9.14h-7.6l3.92-9.14zm0-7.58L119 38.42h3.52l1.96-4.71h9.97l1.83 4.71h3.29L129.63 14z"/>
        <path d="M157.13 38.48l-12.97-15.53v15.5H141V14.06l13.01 15.8V14h3.12z"/>
        <path d="M161 14h12.13v3.06l-8.94.03v11.33h7.31v2.97h-7.31v4h8.94v3.06h-12.1z"/>
        <path d="M83.32 22.69a4.77 4.77 0 0 1 4.82 4.82 4.7 4.7 0 0 1-4.75 4.65 4.75 4.75 0 0 1-4.76-4.73 4.78 4.78 0 0 1 4.69-4.74zm.1 11.16A6.43 6.43 0 1 0 83.917 21a6.43 6.43 0 0 0-.497 12.85z"/>
        <path d="M83.45 32.16c2.59 0 4.7-2.06 4.7-4.59 0-2.67-2.1-4.76-4.77-4.76a4.72 4.72 0 0 0-4.63 4.68 4.7 4.7 0 0 0 4.7 4.67zM83.48 21a6.5 6.5 0 0 1 0 12.97 6.5 6.5 0 0 1 0-12.97zm-.03 11.28a4.8 4.8 0 1 1 .362-9.593 4.8 4.8 0 0 1-.362 9.593zm.03-11.16a6.36 6.36 0 1 0 0 12.72 6.36 6.36 0 0 0 0-12.72z"/>
        <path d="M91.02 33.85L91 21h6.03v1.71l-4.35.02v5.78h3.56v1.67h-3.56l.01 3.67z"/>
        <path d="M97.15 22.83h-.12l-4.23.01v5.67h3.56v1.79H92.8l.01 3.55v.12h-1.79v-.12L91 21.12V21h6.15v1.83zm-6.03-1.71l.01 12.73h1.56l-.01-3.67h3.56v-1.55h-3.56v-5.9l4.35-.02v-1.59h-5.91z"/>
    </g>
</svg>
