<?xml version="1.0" encoding="UTF-8" standalone="no"?>
<!-- Created with Inkscape (http://www.inkscape.org/) -->

<svg
   xmlns:dc="http://purl.org/dc/elements/1.1/"
   xmlns:cc="http://creativecommons.org/ns#"
   xmlns:rdf="http://www.w3.org/1999/02/22-rdf-syntax-ns#"
   xmlns:svg="http://www.w3.org/2000/svg"
   xmlns="http://www.w3.org/2000/svg"
   xmlns:sodipodi="http://sodipodi.sourceforge.net/DTD/sodipodi-0.dtd"
   xmlns:inkscape="http://www.inkscape.org/namespaces/inkscape"
   width="45.029827"
   height="30.025229"
   id="svg2"
   version="1.1"
   inkscape:version="0.48.5 r10040"
   sodipodi:docname="down_quates.svg">
  <defs
     id="defs4" />
  <sodipodi:namedview
     id="base"
     pagecolor="#ffffff"
     bordercolor="#666666"
     borderopacity="1.0"
     inkscape:pageopacity="0.0"
     inkscape:pageshadow="2"
     inkscape:zoom="1.4"
     inkscape:cx="-465.60585"
     inkscape:cy="-839.8725"
     inkscape:document-units="px"
     inkscape:current-layer="layer1"
     showgrid="false"
     fit-margin-top="0"
     fit-margin-left="0"
     fit-margin-right="0"
     fit-margin-bottom="0"
     inkscape:window-width="1366"
     inkscape:window-height="717"
     inkscape:window-x="0"
     inkscape:window-y="0"
     inkscape:window-maximized="1" />
  <metadata
     id="metadata7">
    <rdf:RDF>
      <cc:Work
         rdf:about="">
        <dc:format>image/svg+xml</dc:format>
        <dc:type
           rdf:resource="http://purl.org/dc/dcmitype/StillImage" />
        <dc:title />
      </cc:Work>
    </rdf:RDF>
  </metadata>
  <g
     inkscape:label="Layer 1"
     inkscape:groupmode="layer"
     id="layer1"
     transform="translate(-366.40613,-514.0357)">
    <g
       transform="matrix(2.6199173,0,0,2.5086352,-1306.0017,-1495.3811)"
       id="layer1-2"
       inkscape:label="Layer 1"
       style="fill:#ffffff">
      <path
         inkscape:connector-curvature="0"
         id="path2998-5-4"
         d="m 638.34375,801 0,0.0625 1.5625,3.1875 0.625,1.15625 c -1.15771,0.72554 -1.9375,2.0017 -1.9375,3.46875 0,2.26644 1.82731,4.09375 4.09375,4.09375 2.26644,0 4.125,-1.82731 4.125,-4.09375 0,-0.85855 -0.268,-1.65365 -0.71875,-2.3125 l -3.0625,-5.5625 -3.65625,0 -0.0625,0 -0.96875,0 z m 8.71875,0 0,0.0625 1.5625,3.1875 0.625,1.15625 c -1.15771,0.72554 -1.9375,2.0017 -1.9375,3.46875 0,2.26644 1.82731,4.09375 4.09375,4.09375 2.26644,0 4.125,-1.82731 4.125,-4.09375 0,-0.85855 -0.268,-1.65365 -0.71875,-2.3125 L 651.75,801 l -3.65625,0 -0.0625,0 -0.96875,0 z"
         style="fill:#ffffff;fill-opacity:1" />
    </g>
  </g>
</svg>
