<svg xmlns="http://www.w3.org/2000/svg" width="40" height="40"><path d="M2.767 29.878c-3.996-5.332-3.534-14.71.549-20.253l3.69-4.11 1.571 2.007 2.897 2.007-3 3.736c-3.468 4.318-3.274 9.418-.15 13.376 4.22 5.344 2.984 3.499.774 5.715-2.798 2.806-1.465 4.012-6.33-2.478z" fill="#fbac57"/><path d="M15.068 38.881c-1.814-.617-4.446-1.837-5.849-2.711l-2.55-1.59 2.221-2.05 2.221-2.052 3.938 2.087c4.926 2.612 13.05 2.208 17.698-.88 1.693-1.125 3.831-2.045 4.75-2.045 2.614 0 3.13 2.731.937 4.947-4.787 4.836-15.815 6.863-23.366 4.295z" fill="#12b8e1"/><path d="M32.535 8.434c-4.344-3.04-12.578-3.43-17.486-.828l-3.622 1.93-2.802-1.917-1.62-2.086 2.26-1.635C12.563 1.514 18.609.017 23.807.043c7.537.038 17.44 5.625 15.99 9.02-.86 2.014-3.854 1.755-7.26-.629z" fill="#54bc76"/></svg>