<svg xmlns="http://www.w3.org/2000/svg" width="1000" height="1000"><path d="M-1094.342 205.009c-8.898-1.05-22.254-4.883-28.84-8.277-8.661-4.463-11.746-10.494-11.746-22.961 0-11.44 2.219-14.887 13.303-20.663 6.43-3.352 7.088-4.25 8.807-12.018 5.04-22.784 39.946-37.546 73.707-31.17 19.494 3.681 37.347 15.623 41.079 27.476 3.03 9.626 1.137 28.595-3.815 38.215-7.314 14.208-24.801 25.774-43.77 28.95-8.163 1.366-38.567 1.646-48.725.448zm61.613-10.026c13.359-5.853 24.142-16.119 27.503-26.184 2.997-8.975 3.116-26.488.223-32.647-2.951-6.282-13.965-14.386-24.751-18.214-12.986-4.608-38.427-4.523-51.707.173-12.161 4.301-22.426 13.262-24.723 21.585-3.355 12.151-4.11 13.212-13.25 18.633l-9.128 5.414v10.402c0 9.062.518 10.95 4.026 14.657 7.628 8.062 25.058 11.434 57.293 11.084 23.547-.256 24.08-.331 34.514-4.903zm-70.357-13.79c-13.477-2.679-18.314-5.88-18.314-12.119 0-4.164 1.05-5.4 8.281-9.756 8.287-4.991 11.615-9.765 11.615-16.662 0-15.649 27.241-27.922 54.514-24.56 25.67 3.163 43.13 20.719 37.715 37.92-2.529 8.033-15.216 18.505-27.97 23.087-8.085 2.905-12.466 3.411-32.427 3.752-15.848.27-26.317-.25-33.415-1.661zm60.873-6.306c33.093-11.09 37.283-33.556 8.86-47.513-7.631-3.748-9.876-4.153-22.79-4.114-24.415.074-37.487 7.356-39.661 22.095-1.406 9.527-3.847 12.845-12.935 17.581-5.503 2.868-7.142 4.51-6.776 6.789 1.38 8.596 52.345 12.185 73.302 5.162zm2.782-9.414c0-.53 2.823-3.111 6.274-5.738 3.45-2.626 6.721-6.031 7.27-7.567 1.147-3.216 3.964-3.768 3.964-.777 0 2.901-7.56 10.47-12.922 12.935-2.522 1.16-4.586 1.676-4.586 1.147zm-28.147-17.522c-5.018-1.798-7.411-6.352-5.236-9.966 5.358-8.904 31.792-6.493 31.792 2.899 0 4.487-7.519 8.503-15.733 8.403-4.04-.05-8.91-.65-10.823-1.336zm19.319-3.048c2.234-.905 4.054-2.828 4.054-4.282 0-5.59-17.595-7.467-24.097-2.568l-3.757 2.83 3.757 2.831c4.256 3.207 13.684 3.765 20.043 1.189zm119.777 60.689c-3.34-1.053-7.582-3.168-9.426-4.701-3.35-2.785-3.353-2.803-3.698-24.451-.322-20.238-.177-21.833 2.2-24.23 2.28-2.3 2.544-4.279 2.544-19.056 0-16.027.09-16.568 3.22-19.312 5.648-4.95 11.873-6.485 26.315-6.485 20.277 0 29.536 4.708 29.536 15.019 0 3.778.198 3.89 6.85 3.89 9.983 0 19.087 2.555 23.35 6.553l3.734 3.501v20.953c0 20.664-.044 20.998-3.207 24.265-4.153 4.29-13.844 6.904-25.835 6.97l-9.561.052-1.122 5.621c-.966 4.842-1.95 6.08-7.096 8.924-7.528 4.161-28.178 5.52-37.804 2.487zm31.204-5.234c9.12-2.559 9.558-3.767 9.156-25.224l-.352-18.753-5.028-2.801c-6.754-3.764-31.336-3.992-38.68-.359l-4.748 2.348.348 20.716.349 20.716 6.284 2.39c7.317 2.783 24.4 3.288 32.671.967zm-36.232-11.995c-1.347-1.5-.965-17.275.419-17.275.709 0 1.256 3.969 1.256 9.105 0 9.169-.145 9.876-1.675 8.17zm9.143-20.004c-10.336-3.495-11.674-8.522-3.383-12.716 3.755-1.9 8.14-2.702 14.768-2.702 19.439 0 27.329 10.412 11.583 15.285-5.363 1.66-18.233 1.735-22.968.133zm19.554-7.776c0-1.528-12.414-2.735-15.326-1.49-.99.424-1.432 1.433-.983 2.244 1.036 1.868 16.31 1.162 16.31-.754zm50.66 19.554l5.334-2.379-.347-20.476-.347-20.477-3.36-1.792c-8.74-4.664-32.883-4.468-41.216.334-2.959 1.705-3.811 3.137-3.811 6.398 0 3.31.732 4.496 3.456 5.595 10.316 4.164 11.625 6.74 11.625 22.88 0 6.384.425 12.1.943 12.703 1.563 1.817 22.008-.238 27.723-2.786zm-24.267-29.281c-.691-.302-3.409-.95-6.04-1.442-6.256-1.168-10.207-5.404-8.452-9.06 3.959-8.244 35.019-8.372 38.961-.162 1.499 3.12-.558 6.426-5.185 8.338-3.722 1.537-17.329 3.179-19.284 2.326zm11.904-7.727c3.023-2.13.268-3.556-6.876-3.556-3.687 0-7.158.507-7.714 1.127-1.64 1.826 2.3 3.732 7.714 3.732 2.765 0 5.859-.586 6.876-1.303zm-45.634 2.047h9.002l.742-5.177c.425-2.964 1.87-6.055 3.378-7.233 2.41-1.88 1.99-1.992-4.882-1.298-13.697 1.385-26.73-4.496-23.352-10.536 2.052-3.672 8.955-5.705 19.662-5.792 14.247-.115 22.764 4.697 18.484 10.444-1.28 1.718-1.139 2.08.802 2.062 3.974-.036 5.72-2.163 5.282-6.434-.354-3.458-1.334-4.41-6.7-6.515-8.095-3.176-30.235-2.741-37.39.733l-4.713 2.29v29.59l5.342-1.067c2.938-.587 9.392-1.067 14.343-1.067zm11.693-21.652c1.476-1.04 1.146-1.594-1.652-2.78-1.923-.815-4.553-1.481-5.846-1.481-1.292 0-3.923.666-5.845 1.481-2.799 1.186-3.129 1.74-1.653 2.78 2.384 1.68 12.612 1.68 14.996 0zm157.143 68.541c-17.089-.978-34.738-2.236-39.22-2.793-7.93-.987-8.182-1.156-9.309-6.242-1.47-6.64-1.675-30.423-.308-35.894 1.25-5.003 6.472-7.39 27.17-12.419 12.647-3.073 14.308-3.83 14.308-6.524 0-1.677 1.767-5.133 3.926-7.68 3.83-4.519 3.855-4.725 1.048-8.422-1.583-2.084-5.186-5.343-8.006-7.243-3.296-2.22-4.776-4.188-4.143-5.508.541-1.13 1.473-2.054 2.072-2.054 2.579 0 12.84 7.968 15.66 12.16 2.551 3.793 4.217 4.696 9.75 5.29 4.629.497 8.008 1.912 11.026 4.616 4.129 3.699 4.698 3.828 11.126 2.522 6.34-1.289 7.098-1.135 11.813 2.4 2.77 2.078 8.385 7.878 12.477 12.89l7.439 9.111.721 21.107c.952 27.86 1.716 26.831-19.777 26.624-9.187-.089-30.685-.962-47.773-1.94zm61.321-20.732c0-9.678-.552-17.866-1.226-18.195-.675-.328-24.303-1.033-52.507-1.564l-51.28-.968.588 15.937c.418 11.343 1.208 16.243 2.74 17.001 1.183.586 15.532 1.783 31.886 2.661 16.355.878 31.207 1.77 33.006 1.982 1.799.213 10.813.467 20.032.565l16.761.178v-17.597zm-95.453 6.781c-.54-1.612-.991-7.202-1.004-12.422-.017-7.255.516-9.492 2.259-9.492 1.766 0 2.325 2.64 2.477 11.694.189 11.236-1.68 16.352-3.732 10.22zm85.718-40.807c-4.51-5.351-8.872-10.062-9.694-10.468-.821-.407-3.783-.372-6.582.076-4.019.643-5.741 1.995-8.19 6.428-1.706 3.087-4.782 6.333-6.835 7.213-6.005 2.573-15.814 1.987-20.048-1.197-2.045-1.539-4.582-2.797-5.638-2.797-1.055 0-9.102 1.915-17.882 4.255l-15.963 4.255 23.71.71c13.042.39 35.324.831 49.517.981l25.804.272-8.2-9.728zm-32.372-3.067c3.868-2.72 3.613-8.86-.506-12.157-7.606-6.09-22.12.846-18.59 8.884 2.876 6.546 12.173 8.14 19.096 3.273zm158.293 67.455c-4.09-1.15-8.623-2.733-10.074-3.517-1.451-.784-7.129-1.425-12.616-1.425-13.494 0-23.862-5.268-23.862-12.124 0-3.044 7.073-10.522 9.952-10.522.728 0-.008-2.636-1.637-5.857-1.629-3.222-3.744-9.75-4.702-14.507l-1.74-8.65-13.907-4.025c-7.65-2.214-14.697-4.68-15.66-5.48-3.977-3.303-1.869-7.987 6.916-15.366 4.769-4.005 11.553-10.743 15.075-14.973 6.55-7.865 11.487-10.46 15.292-8.037 3.302 2.102 4.09 4.47 5.835 17.553l1.62 12.132 10.05 2.987 10.05 2.987 3.966-4.858c4.101-5.021 8.537-6.166 13.503-3.484 2.797 1.511 6.34 9.467 8.453 18.98.75 3.376 3.578 9.46 6.285 13.521 5.741 8.61 10.58 23.25 10.58 32.009 0 4.427-.932 7.233-3.337 10.056-2.96 3.472-4.427 3.959-12.971 4.303-5.445.22-12.868-.52-17.07-1.703zm18.654-7.773c-.893-4.107.91-5.926 2.805-2.83.477.778 2.091 1.415 3.588 1.415 2.152 0 2.722-.992 2.722-4.732 0-6.833-4.925-20.288-10.572-28.884-2.686-4.087-5.584-10.774-6.44-14.86-3.35-15.97-8.806-19.846-13.339-9.476-2.026 4.635-3.056 5.582-5.36 4.928-17.368-4.932-25.138-7.766-26.114-9.526-.642-1.158-1.937-7.939-2.877-15.068-.94-7.13-2.28-12.964-2.978-12.964-.698 0-6.106 5.002-12.018 11.116-5.912 6.114-12.592 12.501-14.846 14.194-2.35 1.766-3.545 3.568-2.804 4.228.71.632 6.971 2.605 13.912 4.385 6.942 1.78 13.64 4.131 14.885 5.225 1.245 1.094 2.642 5.21 3.104 9.15.462 3.937 2.854 11.568 5.314 16.955 2.46 5.388 4.219 9.994 3.907 10.235-.311.241-3.04 1.355-6.064 2.475-7.172 2.656-7.68 4.81-1.967 8.325 3.556 2.188 7.09 2.87 14.919 2.873 5.642.003 11.637.76 13.322 1.684 4.318 2.366 16.1 5.135 22.455 5.278 5.255.117 5.35.029 4.446-4.126zm-31.551-12.783c0-4.467 3.973-12.997 8.058-17.302 4.345-4.578 15.78-8.58 15.78-5.522 0 .655-2.465 1.937-5.478 2.848-7.068 2.137-13.591 9.646-14.835 17.076-.995 5.943-3.525 8.024-3.525 2.9zm25.236-2.085c-1.556-1.891-1.496-2.623.367-4.503 2.794-2.82 6.65-1.461 6.65 2.343 0 1.581-.264 2.875-.587 2.875-.322 0-1.483.347-2.58.772-1.096.424-2.829-.244-3.85-1.487z" fill="#848484"/><path d="M-484.607 193.233c-2.003-1.511-2.404-3.49-2.066-10.198.412-8.18.487-8.33 4.391-8.668 2.185-.19 3.973-1.015 3.973-1.834 0-.82-1.788-1.645-3.973-1.835-3.76-.326-3.996-.68-4.405-6.595-.411-5.943-.164-6.46 5.056-10.538 10.14-7.925 41.362-26.274 46.796-27.502 11.87-2.682 23.883 1.18 38.475 12.37 8.574 6.576 9.84 9.684 11.414 28.017 1.003 11.673-.89 17.152-6.932 20.074-3.005 1.453-19.792 3.077-82.199 7.954-6.45.504-8.538.257-10.53-1.245zm57.338-6.41c34.074-2.77 35.032-3.017 36.918-9.506 2.18-7.504-1.71-31.253-5.29-32.29-1.916-.554-39.897 4.37-46.555 6.036-1.484.372-1.712.179-.722-.613 1.207-.965 16.854-3.88 39.512-7.36l4.844-.745-5.522-4.266c-11.644-8.995-25.81-11.126-36.203-5.446-15.566 8.505-40.933 25.42-41.734 27.828-1.384 4.158-.18 6.476 3.72 7.163 2.94.519 3.687 1.393 4.057 4.747.41 3.717.028 4.233-3.973 5.372-4.144 1.18-4.426 1.616-4.426 6.833 0 3.065.307 5.804.682 6.086.705.533 2.244.425 54.692-3.84zm-41.85-2.305c-1.269-2.492.507-4.903 3.61-4.903 3.104 0 4.88 2.411 3.612 4.903-.457.9-2.083 1.635-3.611 1.635-1.53 0-3.155-.736-3.612-1.635zm5.255-1.634c0-.6-.65-1.09-1.445-1.09-.794 0-1.444.49-1.444 1.09 0 .6.65 1.09 1.444 1.09.795 0 1.445-.49 1.445-1.09zm33.224-5.448c-3.478-2.623-3.534-3.179-.64-6.295 2.446-2.635 7.705-3.195 10.463-1.115 2.43 1.834 2.158 5.845-.537 7.877-3.043 2.295-5.808 2.156-9.286-.467zm7.945-3.284c0-1.931-.88-2.804-3.066-3.04-3.672-.394-5.685 2.643-3.23 4.874 2.59 2.354 6.296 1.274 6.296-1.834zm-32.395.165c-1.85-2.607 1.19-5.992 4.89-5.444 4.047.6 6.06 3.667 3.77 5.747-2.564 2.331-6.899 2.18-8.66-.303zm7.116-1.784c0-.9-.937-1.635-2.082-1.635-2.413 0-4.042 1.555-2.694 2.572 1.726 1.302 4.776.704 4.776-.937zm35.022-7.355c-3.523-3.323-3.455-6.205.213-8.972 4.222-3.184 6.246-3.382 10.668-1.046 3.58 1.892 4.45 7.83 1.477 10.072-2.276 1.717-10.517 1.68-12.358-.054zm11.564-3.257c.971-2.178-.445-4.98-2.874-5.682-6.66-1.928-11.658 3.89-6.204 7.22 3.37 2.058 7.81 1.306 9.078-1.538z" fill="#878787"/><path d="M-318.177 201.288c-1.209-1.037-2.198-5.338-2.198-9.557 0-7.064-.872-8.576-10.991-19.067-6.045-6.267-10.991-12.53-10.991-13.92 0-1.39 2.206-3.448 4.902-4.575 3.273-1.369 5.785-4.334 7.556-8.922 3.634-9.41 14.037-17.963 25.068-20.612 4.883-1.172 11.42-4.024 14.527-6.336 8.271-6.157 12.758-7.808 21.22-7.808 8.382 0 13.3 1.74 20.15 7.128l4.58 3.603 16.154-17.933c9.425-10.463 17.458-17.932 19.284-17.932 4.704 0 11.273 4.51 11.273 7.74 0 1.566-7.886 11.428-17.524 21.915l-17.524 19.067 3.659 3.989c2.012 2.193 4.21 6.141 4.884 8.773.892 3.484 2.917 5.39 7.454 7.016 3.426 1.227 6.228 3.351 6.228 4.72 0 1.37-4.533 8.006-10.075 14.749-8.956 10.899-10.075 13.13-10.075 20.1 0 5.7-.79 8.1-2.897 8.793-5.783 1.903-82.341 1.06-84.664-.931zm80.234-9.897v-5.498h-75.105v10.996h75.105v-5.498zm8.842-18.336c4.359-5.239 8.363-10.503 8.897-11.696.814-1.818-8.281-2.17-56.011-2.17-31.34 0-56.983.39-56.983.868s4.627 5.78 10.281 11.782l10.282 10.912 37.804-.084 37.804-.085 7.926-9.527zm-84.7-1.42c-2.608-2.659-4.742-5.61-4.742-6.558 0-2.042 8.735 4.684 11.223 8.642 2.853 4.538-1.29 3.206-6.481-2.084zm83.094-22.863c-3.543-7.991-20.599-26.12-28.205-29.978-7.353-3.73-16.566-2.44-24.825 3.478-4.22 3.023-12.114 6.604-17.541 7.957-10.48 2.613-19.065 9.546-22.607 18.26l-1.795 4.416h96.805l-1.832-4.133zm-46.62-2.15c-1.534-2.128.535-4.713 3.771-4.713 1.452 0 2.64 1.413 2.64 3.141 0 3.252-4.42 4.335-6.411 1.571zm-30.225-3.143c0-1.745 1.22-3.141 2.747-3.141s2.748 1.396 2.748 3.141c0 1.746-1.221 3.142-2.748 3.142-1.526 0-2.747-1.396-2.747-3.142zm50.375-6.283c-1.534-2.128.535-4.713 3.772-4.713 1.451 0 2.64 1.414 2.64 3.142 0 3.252-4.42 4.335-6.412 1.57zm-21.627-10.43c-1.71-1.466.356-3.708 3.417-3.708 1.451 0 2.64 1.06 2.64 2.356 0 2.366-3.868 3.23-6.057 1.352zm52.287-9.599c19.899-21.638 21.602-23.74 19.944-24.62-1.487-.788-33.202 31.998-33.202 34.324 0 3.027 4.744-.444 13.258-9.704z" fill="#838383"/><text style="line-height:125%;-inkscape-font-specification:roboto" x="-1100" y="89.505" font-size="150" font-weight="400" letter-spacing="0" word-spacing="0" font-family="roboto" transform="translate(0 -52.362)"><tspan x="-1100" y="89.505" font-size="100">a b c d e f</tspan></text></svg>