<?xml version="1.0" encoding="utf-8"?>
<!-- Generator: Adobe Illustrator 21.0.0, SVG Export Plug-In . SVG Version: 6.00 Build 0)  -->
<svg version="1.1" id="Layer_1" xmlns="http://www.w3.org/2000/svg" xmlns:xlink="http://www.w3.org/1999/xlink" x="0px" y="0px"
	 viewBox="0 0 1064.9 206.1" style="enable-background:new 0 0 1064.9 206.1;" xml:space="preserve">
<g id="Rectangle_1_copy_4">
	<path d="M9.9,0h27.9v37.9H0V9.9C0,4.5,4.5,0,9.9,0z M58.9,0h147.2v37.9H58.9V0z M0,168.2h206.1v27.9c0,5.5-4.5,9.9-9.9,9.9l0,0H0
		V168.2z M0,59h37.8v112.7H0V59z M178.3,59h27.8v88.1h-37.8V68.9C168.3,63.4,172.8,59,178.3,59L178.3,59z"/>
</g>
<g>
	<path d="M279.6,159.4v-17.8h11.5V63.4h-11.5V45.6h42.8v17.8H311v78.2h11.4v17.8H279.6z"/>
	<path d="M349.9,159.4v-17.8h6.9c2.4,0,3.5-1.1,3.5-3.5V45.6h18.9l43.1,63c2.6,3.8,6.3,10.1,8,13.5l1.4,2.6h0.3
		c-0.8-6.3-1.1-11.7-1.1-16V56.5c0-7.5,3.2-10.9,10.9-10.9h20.5v17.8h-6.9c-2.4,0-3.5,1.1-3.5,3.5v92.5h-18.8L390,96.6
		c-2.6-3.8-6.3-10.1-8-13.5l-1.4-2.6h-0.3c0.8,6.3,1.1,11.7,1.1,16v51.9c0,7.7-3.2,10.9-10.9,10.9H349.9z"/>
	<path d="M505.4,61.3c10.7-11.1,23.9-16.5,39.7-16.5c5.9,0,12,0.8,18.1,2.2c6.1,1.4,11.5,4.2,16.5,8c5,3.7,7.5,8.3,7.5,13.6V78
		h-10.6v-6.3c0-5-3.4-8.8-10.1-11.9c-6.7-3-13.8-4.5-21.2-4.5c-12.7,0-23.1,4.5-31.6,13.3c-8.5,8.8-12.7,19.9-12.7,33.5
		c0,13.6,4.3,25,12.8,34.5c8.5,9.5,19.2,14.1,31.9,14.1c18.8,0.2,30.8-10.3,35.4-14.3l1.4-1.6l6.4,8.2c-0.8,1.1-1.6,2.1-7.2,6.4
		c-2.7,2.1-5.8,3.8-9,5.4c-6.3,3.2-16.8,6.4-27.2,6.4c-16.3,0-29.8-5.6-40.4-17c-10.6-11.4-15.9-25.5-15.9-42.2
		C489.5,86,494.8,72.3,505.4,61.3z"/>
	<path d="M611.3,159.4v-9.9h1.9c3,0,5-1.1,5.8-3.5l36.9-99.2h12l36.9,99.2c0.8,2.4,2.7,3.5,5.8,3.5h2.1v9.9h-5.3
		c-4,0-6.9-0.6-8.7-1.8c-1.6-1.1-3-3.7-4.5-7.5l-9.9-26.6h-44.7l-9.8,26.6c-2.7,7.7-5.1,9.3-13.3,9.3H611.3z M642.8,113.7h38.6
		l-14.9-40.2L662,58.9h-0.3c-1.6,6.3-3,11.1-4.2,14.6L642.8,113.7z"/>
	<path d="M746.1,159.4V56.6h-10.4v-9.9h47.9c9.5,0,17.3,2.9,23.2,8.8C813,61.3,816,69,816,78.8c0,16.5-9.8,27.6-22,30.1v0.3
		c1.6,0.8,2.9,2.4,4,4.5l16.2,32.1c1.4,3.2,3.5,3.7,8,3.7h2.2v9.9h-5c-4.6,0-8-0.5-9.9-1.4c-1.9-1.1-3.8-3.4-5.6-7.1l-16.2-32.2
		c-3-5.8-5-6.7-11.4-6.7h-19.1v47.4H746.1z M757.4,102h25.2c13.5,0,21.8-8.8,21.8-22.9c0-13.9-8.3-22.4-21.6-22.4h-25.3V102z"/>
	<path d="M849.7,159.4v-9.9h6.9c2.4,0,3.5-1.1,3.5-3.5V46.7h10.3l57.5,80.3l9.1,14.7h0.3c-0.5-5.9-0.8-10.7-0.8-14.7V56.5
		c0-6.9,2.9-9.8,9.8-9.8h11.9v9.9h-6.9c-2.4,0-3.5,1.1-3.5,3.5v99.2h-10.3L880,79.1c-2.4-3.2-5.9-9-7.9-12.3l-1.4-2.4h-0.3
		c0.6,5.9,1,10.7,1,14.7v70.5c0,6.9-2.9,9.8-9.8,9.8H849.7z"/>
	<path d="M996.5,56.6h-10.4v-9.9h64.4c6.9,0,9.8,2.9,9.8,9.8v11.2h-10.4v-7.5c0-2.4-1.1-3.5-3.5-3.5h-38.6v41h42.5v9.9h-42.5v38.3
		c0,2.4,1.1,3.5,3.5,3.5h39.7c2.4,0,3.5-1.1,3.5-3.5v-7.5h10.4v11.2c0,6.9-2.9,9.8-9.8,9.8h-48.9c-6.9,0-9.8-2.9-9.8-9.8V56.6z"/>
</g>
</svg>
