<?xml version="1.0" encoding="UTF-8"?><!DOCTYPE svg PUBLIC "-//W3C//DTD SVG 1.1//EN" "http://www.w3.org/Graphics/SVG/1.1/DTD/svg11.dtd"><svg xmlns="http://www.w3.org/2000/svg"><defs>
        <style>
            .cls-1{fill-rule:evenodd}
        </style>
    </defs><symbol id="icon-arrow" viewBox="0 0 96 96">
    <path d="M84 44H21.656l21.456-21.456a4.001 4.001 0 0 0-5.657-5.657L9.172 45.171a3.996 3.996 0 0 0-.498.61c-.067.101-.114.21-.171.315-.067.124-.142.242-.196.373-.056.135-.088.276-.129.416-.032.111-.075.217-.098.331A3.98 3.98 0 0 0 8 48l.001.008c0 .259.027.519.078.774.024.121.069.232.104.349.039.133.07.268.123.397.058.139.136.265.208.396.054.098.096.198.159.292.147.221.314.427.501.614l28.282 28.281a4.001 4.001 0 0 0 5.657-5.657L21.657 52H84a4 4 0 0 0 0-8z"/>
</symbol><symbol id="icon-chat" viewBox="0 0 64 56">
    <path d="M0 56.038l16-14h44c2.2 0 4-1.8 4-4v-34c0-2.2-1.8-4-4-4H4c-2.2 0-4 1.8-4 4v52z"/>
</symbol><symbol id="icon-facebook" viewBox="0 0 10 19">
    <title>
        facebook
    </title>
    <path d="M9.766.157v2.946H8.014c-.64 0-1.071.134-1.295.402-.223.268-.335.67-.335 1.205v2.11h3.27l-.435 3.303H6.384v8.471H2.97v-8.47H.123V6.82H2.97V4.387c0-1.384.387-2.457 1.161-3.22C4.904.404 5.934.023 7.222.023c1.093 0 1.941.045 2.544.134z" fill-rule="evenodd"/>
</symbol><symbol id="icon-filter" viewBox="0 0 43 47">
    <title>
        Levers 8.3
    </title>
    <path d="M23.8 43h17.7c.8 0 1.5-.7 1.5-1.5s-.7-1.5-1.5-1.5H23.8c-.7-2.3-2.8-4-5.3-4s-4.6 1.7-5.3 4H1.5c-.8 0-1.5.7-1.5 1.5S.7 43 1.5 43h11.7c.7 2.3 2.8 4 5.3 4s4.6-1.7 5.3-4zm15-18h2.7c.8 0 1.5-.7 1.5-1.5s-.7-1.5-1.5-1.5h-2.7c-.7-2.3-2.8-4-5.3-4s-4.6 1.7-5.3 4H1.5c-.8 0-1.5.7-1.5 1.5S.7 25 1.5 25h26.7c.7 2.3 2.8 4 5.3 4s4.6-1.7 5.3-4zm-24-18h26.7c.8 0 1.5-.7 1.5-1.5S42.3 4 41.5 4H14.8c-.7-2.3-2.8-4-5.3-4S4.9 1.7 4.2 4H1.5C.7 4 0 4.7 0 5.5S.7 7 1.5 7h2.7c.7 2.3 2.8 4 5.3 4s4.6-1.7 5.3-4z"/>
</symbol><symbol id="icon-heart" viewBox="0 0 512 512">
    <path d="M340.8 98.4c50.7 0 91.9 41.3 91.9 92.3 0 26.2-10.9 49.8-28.3 66.6L256 407.1 105 254.6c-15.8-16.6-25.6-39.1-25.6-63.9 0-51 41.1-92.3 91.9-92.3 38.2 0 70.9 23.4 84.8 56.8 13.7-33.3 46.5-56.8 84.7-56.8m0-15.4C307 83 276 98.8 256 124.8c-20-26-51-41.8-84.8-41.8C112.1 83 64 131.3 64 190.7c0 27.9 10.6 54.4 29.9 74.6L245.1 418l10.9 11 10.9-11 148.3-149.8c21-20.3 32.8-47.9 32.8-77.5C448 131.3 399.9 83 340.8 83z"/>
</symbol><symbol id="icon-heart_filled" viewBox="0 0 512 512">
    <path d="M340.8 83C307 83 276 98.8 256 124.8c-20-26-51-41.8-84.8-41.8C112.1 83 64 131.3 64 190.7c0 27.9 10.6 54.4 29.9 74.6L245.1 418l10.9 11 10.9-11 148.3-149.8c21-20.3 32.8-47.9 32.8-77.5C448 131.3 399.9 83 340.8 83z"/>
</symbol><symbol id="icon-inc" viewBox="0 0 311 311">
    
    <path id="Rectangle_1_copy_4" data-name="Rectangle 1 copy 4" class="cls-1" d="M15 0h42.125v57.125H0V15A15 15 0 0 1 15 0zm73.844 0H311v57.125H88.844V0zM0 253.875h311V296a15 15 0 0 1-15 15H0v-57.125zM0 89h57v170H0V89zm269 0h42v133h-57V104a15 15 0 0 1 15-15z"/>
</symbol><symbol id="icon-instagram" viewBox="0 0 21 21">
    <title>
        Instagram
    </title>
    <path d="M15.018 0H5.79C2.653.003.11 2.539.106 5.669v9.207c.003 3.13 2.546 5.667 5.684 5.67h9.228c3.138-.003 5.681-2.54 5.684-5.67V5.669C20.698 2.539 18.155.003 15.018 0zm3.857 14.877a3.857 3.857 0 0 1-3.856 3.848H5.79a3.857 3.857 0 0 1-3.855-3.848V5.67A3.856 3.856 0 0 1 5.79 1.823h9.228a3.856 3.856 0 0 1 3.857 3.847v9.207zm-8.467-9.898a5.307 5.307 0 0 0-4.906 3.266 5.285 5.285 0 0 0 1.149 5.77 5.316 5.316 0 0 0 5.783 1.15 5.294 5.294 0 0 0 3.277-4.892 5.306 5.306 0 0 0-5.307-5.295l.004.001zm0 8.765a3.48 3.48 0 0 1-3.215-2.143 3.465 3.465 0 0 1 .755-3.783 3.486 3.486 0 0 1 3.792-.751 3.471 3.471 0 0 1 2.147 3.207 3.479 3.479 0 0 1-3.483 3.47h.004zm5.53-10.31a1.334 1.334 0 1 0-.509 2.568 1.34 1.34 0 0 0 1.624-.492 1.332 1.332 0 0 0-.168-1.685 1.35 1.35 0 0 0-.95-.391h.003z" fill-rule="evenodd"/>
</symbol><symbol id="icon-mail" viewBox="0 0 52 52">
    <path d="M11.252 34.447H4.986a.5.5 0 1 1 0-1h6.266a.5.5 0 1 1 0 1z"/>
    <path d="M11.252 30.473H7.967a.5.5 0 1 1 0-1h3.285a.5.5 0 1 1 0 1z"/>
    <path d="M47 38.42H13.252a2.503 2.503 0 0 1-2.5-2.5V16.08c0-1.379 1.122-2.5 2.5-2.5H47c1.378 0 2.5 1.121 2.5 2.5v19.84c0 1.379-1.122 2.5-2.5 2.5zM13.252 14.58c-.827 0-1.5.673-1.5 1.5v19.84c0 .827.673 1.5 1.5 1.5H47c.827 0 1.5-.673 1.5-1.5V16.08c0-.827-.673-1.5-1.5-1.5H13.252z"/>
    <path d="M30.121 30.84a1.49 1.49 0 0 1-.939-.33l-4.094-3.31-13.191-12.492a.5.5 0 1 1 .687-.726l13.163 12.466 4.064 3.284c.18.145.44.145.62 0l4.094-3.31 13.133-12.44a.5.5 0 0 1 .687.726L35.184 27.174 31.06 30.51a1.49 1.49 0 0 1-.939.33z"/>
    <path d="M12.241 37.781a.5.5 0 0 1-.312-.891l13.163-10.47a.497.497 0 0 1 .625.003l4.094 3.31c.18.144.44.144.62 0l4.094-3.31a.498.498 0 0 1 .626-.003l13.161 10.47a.5.5 0 1 1-.622.783l-12.848-10.22-3.782 3.057a1.5 1.5 0 0 1-1.878 0L25.4 27.452l-12.848 10.22a.497.497 0 0 1-.31.11z"/>
    <path d="M13.239 38.42H3a.5.5 0 1 1 0-1h10.239a.5.5 0 1 1 0 1z"/>
</symbol><symbol id="icon-pinterest" viewBox="0 0 18 24">
    <title>
        Combined-Shape
    </title>
    <path d="M8.042 13.226c.507 1.48 1.274 2.163 2.866 2.163a4.448 4.448 0 0 0 3.838-2.185c.692-1.178.99-2.368.99-4.019 0-3.927-2.649-6.192-6.755-6.192-3.852 0-6.74 2.646-6.741 6.297-.011.57.146 1.416.621 2.23.283.485.66.907 1.144 1.252a1.126 1.126 0 1 1-1.306 1.834 6.234 6.234 0 0 1-1.782-1.95A6.865 6.865 0 0 1 .1 10.438a6.026 6.026 0 0 1-.112-1.184C-.011 4.35 3.928.742 8.98.742c5.278 0 9.007 3.187 9.007 8.443 0 2.037-.397 3.62-1.3 5.159a6.681 6.681 0 0 1-5.78 3.297c-1.612 0-2.812-.502-3.679-1.397l-1.664 6.181a1.126 1.126 0 1 1-2.174-.585l2.714-10.082c.409-1.518-.194-2.255.211-3.858.429-1.696 1.64-1.969 2.24-1.807.601.161 1.111 1.096.95 1.696l-1.464 5.437z" fill-rule="nonzero"/>
</symbol><symbol id="icon-search" viewBox="0 0 16 16">
    <path d="M15.7 14.3l-3.105-3.105A6.966 6.966 0 0 0 14 7a7 7 0 1 0-7 7 6.96 6.96 0 0 0 4.194-1.405L14.3 15.7c.184.184.38.3.7.3a1 1 0 0 0 1-1 .926.926 0 0 0-.3-.7zM2 7c0-2.762 2.238-5 5-5s5 2.238 5 5-2.238 5-5 5-5-2.238-5-5z"/>
</symbol><symbol id="icon-send" viewBox="0 0 30.5 26.6">
    <title>
        2.3
    </title>
    <path d="M.7 13.8c-1-.5-1-1.3 0-1.7L29 .1c1-.4 1.6.1 1.3 1.2l-6.2 24.1c-.3 1.1-1.3 1.5-2.2.9L15.4 22c-.5-.3-1.1-.2-1.5.2L11.8 25c-.7.9-1.5.7-1.9-.3L8 19.1c-.4-1-1.4-2.3-2.4-2.8L.7 13.8z"/>
</symbol><symbol id="icon-youtube" viewBox="0 0 512 512">
    <path d="M508.6 148.8c0-45-33.1-81.2-74-81.2C379.2 65 322.7 64 265 64h-18c-57.6 0-114.2 1-169.6 3.6C36.6 67.6 3.5 104 3.5 149 1 184.6-.1 220.2 0 255.8c-.1 35.6 1 71.2 3.4 106.9 0 45 33.1 81.5 73.9 81.5 58.2 2.7 117.9 3.9 178.6 3.8 60.8.2 120.3-1 178.6-3.8 40.9 0 74-36.5 74-81.5 2.4-35.7 3.5-71.3 3.4-107 .2-35.6-.9-71.2-3.3-106.9zM207 353.9V157.4l145 98.2-145 98.3z"/>
</symbol></svg>