<?xml version="1.0" encoding="UTF-8" standalone="no"?>
<!-- Created with Inkscape (http://www.inkscape.org/) -->

<svg
   xmlns:dc="http://purl.org/dc/elements/1.1/"
   xmlns:cc="http://creativecommons.org/ns#"
   xmlns:rdf="http://www.w3.org/1999/02/22-rdf-syntax-ns#"
   xmlns:svg="http://www.w3.org/2000/svg"
   xmlns="http://www.w3.org/2000/svg"
   xmlns:sodipodi="http://sodipodi.sourceforge.net/DTD/sodipodi-0.dtd"
   xmlns:inkscape="http://www.inkscape.org/namespaces/inkscape"
   width="31.657848"
   height="37.7757"
   id="svg2"
   version="1.1"
   inkscape:version="0.48.5 r10040"
   sodipodi:docname="a.svg">
  <defs
     id="defs4" />
  <sodipodi:namedview
     id="base"
     pagecolor="#ffffff"
     bordercolor="#666666"
     borderopacity="1.0"
     inkscape:pageopacity="0.0"
     inkscape:pageshadow="2"
     inkscape:zoom="3.9597979"
     inkscape:cx="80.84392"
     inkscape:cy="11.23978"
     inkscape:document-units="px"
     inkscape:current-layer="layer1"
     showgrid="false"
     fit-margin-top="0"
     fit-margin-left="0"
     fit-margin-right="0"
     fit-margin-bottom="0"
     inkscape:window-width="1366"
     inkscape:window-height="717"
     inkscape:window-x="0"
     inkscape:window-y="0"
     inkscape:window-maximized="1" />
  <metadata
     id="metadata7">
    <rdf:RDF>
      <cc:Work
         rdf:about="">
        <dc:format>image/svg+xml</dc:format>
        <dc:type
           rdf:resource="http://purl.org/dc/dcmitype/StillImage" />
        <dc:title />
      </cc:Work>
    </rdf:RDF>
  </metadata>
  <g
     inkscape:label="Layer 1"
     inkscape:groupmode="layer"
     id="layer1"
     transform="translate(-153.35337,-954.85413)">
    <g
       id="g2985">
      <g
         transform="matrix(0.06845117,0,0,0.06590815,226.11821,999.1017)"
         id="g3022">
        <path
           inkscape:connector-curvature="0"
           id="path3028"
           d="m -872.13704,-154.92794 c -26.9187,-8.99426 -25.58343,-63.69828 1.81204,-74.23593 12.01889,-4.62306 32.18957,-1.84612 44.82373,6.17096 31.05794,19.70804 124.59128,18.97435 136.95259,-1.07424 5.6047,-9.09017 -0.58075,-12.09737 -14.14832,-6.87859 -17.96647,6.91077 -21.83259,0.55599 -15.17864,-24.9493 4.91038,-18.82202 15.37739,-38.21733 23.26004,-43.10067 7.88264,-4.88339 14.33207,-34.68919 14.33207,-66.23517 0,-50.13534 4.61714,-56.69901 36.67397,-52.13539 26.77668,3.81195 38.12589,17.97031 42.05405,52.46316 2.95905,25.98323 -0.70838,51.71612 -8.14977,57.18421 -7.44143,5.4681 -24.75895,31.9017 -38.48339,58.74134 -14.9843,29.30343 -44.28764,54.30143 -73.34793,62.57141 -26.61692,7.57463 -66.88164,19.26257 -89.47717,25.97318 -22.59553,6.7106 -50.101,9.18787 -61.12327,5.50503 z m 45.15766,-36.64971 c 0,-8.98609 -7.33479,-16.33834 -16.29954,-16.33834 -8.96474,0 -16.29953,7.35225 -16.29953,16.33834 0,8.98609 7.33479,16.33835 16.29953,16.33835 8.96475,0 16.29954,-7.35226 16.29954,-16.33835 z m 189.9864,-200.4557 c -4.46481,-11.06158 -7.84607,1.94479 -7.51389,28.90306 0.33219,26.95827 3.98521,36.00867 8.11786,20.11198 4.13263,-15.89667 3.86085,-37.95344 -0.6039,-49.01504 z"
           style="fill:#feb360" />
      </g>
      <path
         inkscape:connector-curvature="0"
         id="path3012"
         d="m 160.98269,988.86956 c -1.93211,-2.06031 -3.51293,-4.42497 -3.51293,-5.25492 0,-0.82993 -0.9387,-2.31726 -2.086,-3.30523 -1.63614,-1.40886 -2.07333,-3.04667 -2.02716,-7.59443 0.0324,-3.18899 0.61909,-7.43392 1.30377,-9.43312 1.43872,-4.20088 7.01679,-8.42773 11.12187,-8.42773 4.51893,0 12.53667,3.20055 14.08673,5.6232 2.0071,3.13697 3.18378,10.11068 1.70599,10.11068 -0.6375,0 -1.15908,-1.45235 -1.15908,-3.22746 0,-3.76875 -4.89955,-9.35964 -8.20225,-9.35964 -1.15759,0 -2.41176,-0.49965 -2.78704,-1.11034 -0.40815,-0.66414 -1.9985,-0.81963 -3.95753,-0.3869 -7.0819,1.56427 -10.17569,5.70936 -9.96192,13.34701 0.11062,3.95178 0.19224,4.08545 0.78767,1.28991 0.57712,-2.70954 1.26286,-3.22145 5.22695,-3.90201 2.50949,-0.43084 5.6506,-1.50021 6.98025,-2.37638 2.22024,-1.46301 2.71638,-1.40137 6.07857,0.75523 3.22577,2.0691 3.64992,2.84708 3.56784,6.54397 -0.0896,4.03621 -0.11767,4.06922 -0.73811,0.86838 -0.35473,-1.82999 -1.91878,-4.32899 -3.4757,-5.55331 -2.57787,-2.02714 -3.09031,-2.09258 -5.73652,-0.73247 -1.59818,0.82141 -4.43118,1.82386 -6.29556,2.22764 -2.92006,0.63238 -3.38977,1.17555 -3.38977,3.91991 0,2.66936 -0.33813,3.09682 -2.086,2.63714 -2.56889,-0.67557 -2.5851,-0.34742 -0.15963,3.23097 1.05953,1.56312 3.17249,4.83939 4.6955,7.28053 3.20269,5.13338 6.72714,6.52797 10.24159,4.05235 3.37422,-2.37682 5.00598,-2.01175 2.05582,0.45999 -3.8916,3.26036 -8.19462,2.67059 -12.27735,-1.68297 z"
         style="fill:#000000" />
    </g>
  </g>
</svg>
