<?xml version="1.0" encoding="UTF-8" standalone="no"?>
<!-- Created with Inkscape (http://www.inkscape.org/) -->

<svg
   xmlns:dc="http://purl.org/dc/elements/1.1/"
   xmlns:cc="http://creativecommons.org/ns#"
   xmlns:rdf="http://www.w3.org/1999/02/22-rdf-syntax-ns#"
   xmlns:svg="http://www.w3.org/2000/svg"
   xmlns="http://www.w3.org/2000/svg"
   xmlns:sodipodi="http://sodipodi.sourceforge.net/DTD/sodipodi-0.dtd"
   xmlns:inkscape="http://www.inkscape.org/namespaces/inkscape"
   width="30.904486"
   height="34.96278"
   id="svg2"
   version="1.1"
   inkscape:version="0.48.5 r10040"
   sodipodi:docname="d.svg">
  <defs
     id="defs4" />
  <sodipodi:namedview
     id="base"
     pagecolor="#ffffff"
     bordercolor="#666666"
     borderopacity="1.0"
     inkscape:pageopacity="0.0"
     inkscape:pageshadow="2"
     inkscape:zoom="15.839192"
     inkscape:cx="33.760863"
     inkscape:cy="27.97789"
     inkscape:document-units="px"
     inkscape:current-layer="layer1"
     showgrid="false"
     fit-margin-top="0"
     fit-margin-left="0"
     fit-margin-right="0"
     fit-margin-bottom="0"
     inkscape:window-width="1366"
     inkscape:window-height="717"
     inkscape:window-x="0"
     inkscape:window-y="0"
     inkscape:window-maximized="1" />
  <metadata
     id="metadata7">
    <rdf:RDF>
      <cc:Work
         rdf:about="">
        <dc:format>image/svg+xml</dc:format>
        <dc:type
           rdf:resource="http://purl.org/dc/dcmitype/StillImage" />
        <dc:title />
      </cc:Work>
    </rdf:RDF>
  </metadata>
  <g
     inkscape:label="Layer 1"
     inkscape:groupmode="layer"
     id="layer1"
     transform="translate(-405.36236,-600.97771)">
    <g
       id="g2985"
       transform="matrix(0.04613443,0,0,0.03817093,386.6612,611.66605)">
      <g
         transform="matrix(3.2168719,0,0,3.2069178,2284.3971,-55.181593)"
         id="g3487">
        <path
           sodipodi:nodetypes="ssssssssssss"
           inkscape:connector-curvature="0"
           id="path3493"
           d="m -412.90487,-1.8019851 c -9.22157,-15.5859999 -9.17046,-14.6592999 -12.95313,-19.6654999 -3.00638,-3.9787 1.3107,3.1061 -0.78379,-1.6109 -1.89184,-4.2606 -6.55501,-10.3269 -11.42019,-17.03 -7.23986,-9.9748 -6.90522,-11.4673 1.84335,-8.2207 10.92386,4.0537 42.75652,52.1975001 42.75652,64.665 0,15.9961 -7.00788,2.8792 -19.44276,-18.1379001 z m 23.78041,5.4145002 c -2.38342,-10.7940998 -12.75029,-30.9953001 -23.0375,-44.8917001 -23.47782,-31.7149 -18.6761,-40.2917 5.7791,-10.3226 18.90011,23.1615 37.94102,74.8398 27.57476,74.8398 -3.29058,0 -7.93294,-8.8315 -10.31636,-19.6254999 z"
           style="fill:#feb25f" />
      </g>
      <path
         inkscape:connector-curvature="0"
         id="path3189"
         d="m 692.16663,-209.98534 c -174.1932,1.62216 -286.74371,161.342658 -286.80424,415.99736 -0.0453,191.15214 45.73267,314.80108 141.84395,383.12646 163.15238,115.9848 380.10804,6.4445 433.67455,-218.97237 64.70961,-272.3087 -52.56481,-550.54663 -243.17541,-577.04476 -15.6173,-2.17108 -30.77672,-3.24418 -45.53885,-3.10669 z m -55.79262,44.99706 c 39.29779,0 44.03093,19.70312 44.03093,181.792148 l 0,181.892362 -114.60105,0 -114.60108,0 0,-101.91984 c 0,-79.15959 15.67862,-119.706198 70.46961,-181.792163 38.79397,-43.959067 90.45539,-79.972507 114.70159,-79.972507 z m 124.25168,0 c 18.91205,0 27.86746,7.53529 45.7399,21.0454 12.0933,9.14157 0.51618,7.22806 11.56063,17.9387 12.60801,12.22692 6.68888,2.17954 21.31177,24.45274 12.23531,18.636464 10.32819,28.467237 18.7986,33.973277 9.45602,6.146783 5.81677,4.313696 17.19015,13.930071 8.59567,7.267801 14.69658,30.70526 32.67136,43.293379 17.97482,12.5881202 35.39689,61.826844 38.70299,109.436063 l 6.03163,86.58677 -113.19367,4.8104 -113.19368,4.71015 0,-180.088483 c 0,-142.748617 7.12212,-180.088467 34.38032,-180.088467 z m 19.20069,50.60918 c -12.69019,0 -23.02072,11.80827 -23.02072,26.356857 0,14.548561 10.33053,26.256639 23.02072,26.256639 12.69021,0 22.92023,-11.708078 22.92023,-26.256639 0,-14.548587 -10.23002,-26.356857 -22.92023,-26.356857 z m 52.77681,76.665362 c -12.69019,0 -22.92021,11.808301 -22.92021,26.356862 0,14.5485608 10.23002,26.356862 22.92021,26.356862 12.69021,0 23.02074,-11.8083012 23.02074,-26.356862 0,-14.548561 -10.33053,-26.356862 -23.02074,-26.356862 z m -80.4218,16.034599 c -12.69019,0 -22.9202,11.8082784 -22.9202,26.3568617 0,14.5485613 10.23001,26.3568403 22.9202,26.3568403 12.69021,0 23.02074,-11.808279 23.02074,-26.3568403 0,-14.5485833 -10.33053,-26.3568617 -23.02074,-26.3568617 z m 126.36276,57.323651 c -12.69021,0 -22.92022,11.808301 -22.92022,26.356862 0,14.548561 10.23001,26.356862 22.92022,26.356862 12.69021,0 23.02074,-11.808301 23.02074,-26.356862 0,-14.548561 -10.33053,-26.356862 -23.02074,-26.356862 z m -87.25766,13.729624 c -12.69021,0 -23.02074,11.808279 -23.02074,26.356841 0,14.548583 10.33053,26.356863 23.02074,26.356863 12.69022,0 22.92023,-11.80828 22.92023,-26.356863 0,-14.548562 -10.23001,-26.356841 -22.92023,-26.356841 z m 130.98702,64.138344 c -12.69021,0 -23.02074,11.80828 -23.02074,26.35686 0,14.54856 10.33053,26.35684 23.02074,26.35684 12.69019,0 22.9202,-11.80828 22.9202,-26.35684 0,-14.54858 -10.23001,-26.35686 -22.9202,-26.35686 z m -75.89809,4.60995 c -12.69019,0 -22.9202,11.80828 -22.9202,26.35684 0,14.54858 10.23001,26.25664 22.9202,26.25664 12.69022,0 23.02075,-11.70806 23.02075,-26.25664 0,-14.54856 -10.33053,-26.35684 -23.02075,-26.35684 z m -87.25763,2.30497 c -12.69021,0 -23.02074,11.70806 -23.02074,26.25664 0,14.54856 10.33053,26.35684 23.02074,26.35684 12.69019,0 22.9202,-11.80828 22.9202,-26.35684 0,-14.54858 -10.23001,-26.25664 -22.9202,-26.25664 z m -307.91498,130.18081 255.13817,0 255.13815,0 -13.67172,97.41014 c -8.78794,62.64326 -38.5673,122.92583 -83.53813,168.86426 C 762.00856,621.34353 618.20901,617.75387 521.67242,508.36423 470.38304,450.24606 451.20281,404.15641 451.20281,339.49997 l 0,-88.89176 z"
         style="fill:#000000" />
    </g>
  </g>
</svg>
