<?xml version="1.0" encoding="UTF-8" standalone="no"?>
<!-- Created with Inkscape (http://www.inkscape.org/) -->

<svg
   xmlns:dc="http://purl.org/dc/elements/1.1/"
   xmlns:cc="http://creativecommons.org/ns#"
   xmlns:rdf="http://www.w3.org/1999/02/22-rdf-syntax-ns#"
   xmlns:svg="http://www.w3.org/2000/svg"
   xmlns="http://www.w3.org/2000/svg"
   xmlns:sodipodi="http://sodipodi.sourceforge.net/DTD/sodipodi-0.dtd"
   xmlns:inkscape="http://www.inkscape.org/namespaces/inkscape"
   width="57.910706"
   height="59.037964"
   id="svg2"
   version="1.1"
   inkscape:version="0.48.5 r10040"
   sodipodi:docname="e.svg">
  <defs
     id="defs4" />
  <sodipodi:namedview
     id="base"
     pagecolor="#ffffff"
     bordercolor="#666666"
     borderopacity="1.0"
     inkscape:pageopacity="0.0"
     inkscape:pageshadow="2"
     inkscape:zoom="11.2"
     inkscape:cx="36.835131"
     inkscape:cy="40.775717"
     inkscape:document-units="px"
     inkscape:current-layer="layer1"
     showgrid="false"
     fit-margin-top="0"
     fit-margin-left="0"
     fit-margin-right="0"
     fit-margin-bottom="0"
     inkscape:window-width="1366"
     inkscape:window-height="717"
     inkscape:window-x="0"
     inkscape:window-y="0"
     inkscape:window-maximized="1" />
  <metadata
     id="metadata7">
    <rdf:RDF>
      <cc:Work
         rdf:about="">
        <dc:format>image/svg+xml</dc:format>
        <dc:type
           rdf:resource="http://purl.org/dc/dcmitype/StillImage" />
        <dc:title />
      </cc:Work>
    </rdf:RDF>
  </metadata>
  <g
     inkscape:label="Layer 1"
     inkscape:groupmode="layer"
     id="layer1"
     transform="translate(-444.93377,-526.35123)">
    <g
       id="g2985"
       transform="matrix(0.06288783,0,0,0.06896221,416.95285,545.01946)">
      <g
         transform="matrix(3.21336,0,0,3.1331756,-2003.8927,-1302.4498)"
         id="g3696">
        <path
           inkscape:connector-curvature="0"
           id="path3702"
           d="m 834.31831,595.7706 c -5.16808,-12.75774 13.35985,-59.04835 29.8951,-74.69063 9.76344,-9.23618 25.02157,-16.94379 41.40139,-20.91382 23.40046,-5.67164 25.93961,-7.54788 25.93961,-19.16718 0,-7.08407 1.9999,-14.05092 4.4441,-15.48191 4.7654,-2.78986 70.44119,43.38053 72.82089,51.19342 1.8179,5.96835 -67.41609,54.35761 -73.05229,51.05792 -2.317,-1.35647 -4.2127,-7.60744 -4.2127,-13.89105 0,-9.60718 -2.38941,-11.42474 -15.01945,-11.42474 -26.52536,0 -53.88186,16.95116 -64.68206,40.07953 -10.61231,22.72601 -12.97012,24.50614 -17.53459,13.23846 z m 83.77942,-64.38424 c 23.22078,-0.57107 25.96688,0.41824 27.38348,9.86509 1.5463,10.31094 1.9521,10.22675 22.562,-4.68038 11.5431,-8.34912 21.9516,-16.58905 23.1299,-18.31097 1.1783,-1.72193 -8.266,-10.65919 -20.9874,-19.8606 -22.1103,-15.99236 -23.1993,-16.28162 -24.7045,-6.56227 -1.2525,8.08812 -6.9236,11.30433 -27.72948,15.72602 -25.15665,5.34633 -46.22882,18.89452 -55.9471,35.97076 -3.96092,6.95982 -2.13721,6.7194 12.93662,-1.70547 11.09228,-6.19956 27.04195,-10.04095 43.35648,-10.44218 z"
           style="fill:#feaf5c" />
      </g>
      <path
         inkscape:connector-curvature="0"
         id="path3694"
         d="m 444.93377,29.919395 0,-300.621745 460.4286,0 460.42853,0 0,300.621745 0,300.621755 -37.748,0 c -20.7615,0 -46.6422,-9.89853 -57.513,-21.99672 -16.5128,-18.37754 -14.2207,-21.99671 13.9328,-21.99671 61.2756,0 35.2477,-35.59188 -94.5107,-129.23848 l -128.2083,-92.528065 -53.316,37.560885 C 947.50681,145.26049 857.10423,152.547 825.25874,117.10562 772.3275,58.19759 752.70068,62.096576 619.97185,157.88712 549.89769,208.45974 492.56431,258.09714 492.56431,268.19251 c 0,13.16768 35.8967,18.35521 127.0148,18.35521 69.85813,0 127.01477,5.89297 127.01477,13.09551 0,22.74501 -46.42563,30.89792 -175.94386,30.89792 l -125.71625,0 0,-300.621755 z M 675.14807,72.89635 722.77861,36.403283 667.20966,-7.4918189 C 636.64671,-31.634159 584.84851,-71.591861 552.10251,-96.286768 l -59.5382,-44.899792 0,170.784899 0,170.784891 67.47661,-45.49691 C 597.15304,129.863 648.95128,92.967505 675.14807,72.89635 z m 639.81683,-130.525214 -4.743,-79.066686 -103.1993,81.930034 c -56.7598,45.0615193 -103.1996,87.143482 -103.1996,93.515453 0,6.372002 46.4398,44.821866 103.1996,85.444103 l 103.1993,73.8587 4.743,-88.30745 c 2.6086,-48.569116 2.6086,-123.887493 0,-167.374154 z m -188.293,18.09835 c 105.3189,-82.557456 191.4887,-158.446136 191.4887,-168.641456 0,-14.4643 -90.6933,-18.53696 -412.79823,-18.53696 -322.10483,0 -412.79806,4.07266 -412.79806,18.53696 0,27.1182 377.67812,318.74598 412.79806,318.74598 16.40173,0 115.99103,-67.547038 221.30953,-150.104524 z"
         style="fill:#000000" />
    </g>
  </g>
</svg>
