<?xml version="1.0" encoding="UTF-8" standalone="no"?>
<!-- Created with Inkscape (http://www.inkscape.org/) -->

<svg
   xmlns:dc="http://purl.org/dc/elements/1.1/"
   xmlns:cc="http://creativecommons.org/ns#"
   xmlns:rdf="http://www.w3.org/1999/02/22-rdf-syntax-ns#"
   xmlns:svg="http://www.w3.org/2000/svg"
   xmlns="http://www.w3.org/2000/svg"
   xmlns:sodipodi="http://sodipodi.sourceforge.net/DTD/sodipodi-0.dtd"
   xmlns:inkscape="http://www.inkscape.org/namespaces/inkscape"
   width="55.804646"
   height="43.999863"
   id="svg2"
   version="1.1"
   inkscape:version="0.48.5 r10040"
   sodipodi:docname="f.svg">
  <defs
     id="defs4" />
  <sodipodi:namedview
     id="base"
     pagecolor="#ffffff"
     bordercolor="#666666"
     borderopacity="1.0"
     inkscape:pageopacity="0.0"
     inkscape:pageshadow="2"
     inkscape:zoom="7.9195959"
     inkscape:cx="50.87543"
     inkscape:cy="37.733807"
     inkscape:document-units="px"
     inkscape:current-layer="layer1"
     showgrid="false"
     fit-margin-top="0"
     fit-margin-left="0"
     fit-margin-right="0"
     fit-margin-bottom="0"
     inkscape:window-width="1366"
     inkscape:window-height="717"
     inkscape:window-x="0"
     inkscape:window-y="0"
     inkscape:window-maximized="1" />
  <metadata
     id="metadata7">
    <rdf:RDF>
      <cc:Work
         rdf:about="">
        <dc:format>image/svg+xml</dc:format>
        <dc:type
           rdf:resource="http://purl.org/dc/dcmitype/StillImage" />
        <dc:title />
      </cc:Work>
    </rdf:RDF>
  </metadata>
  <g
     inkscape:label="Layer 1"
     inkscape:groupmode="layer"
     id="layer1"
     transform="translate(-472.89883,-455.54333)">
    <g
       id="g2985"
       transform="matrix(0.05819836,0,0,0.05297056,445.37689,473.08211)">
      <g
         transform="matrix(2.1567796,0,0,2.7977163,745.18361,-1006.6608)"
         id="g3736">
        <path
           inkscape:connector-curvature="0"
           id="path3742"
           d="m 17.048849,316.14076 c -38.114324,-32.07234 -69.298772,-60.49832 -69.298772,-63.16883 0,-14.34373 25.989154,0.55144 81.255894,46.5702 l 61.760222,51.42566 57.428607,-48.10099 57.42862,-48.10099 -37.64076,0 c -20.7024,0 -37.64074,-2.99221 -37.64074,-6.64935 0,-3.79963 23.81633,-6.64935 55.57143,-6.64935 l 55.57143,0 0,46.54546 c 0,26.5974 -3.40233,46.54545 -7.93878,46.54545 -4.36632,0 -7.93877,-15.64303 -7.93877,-34.76229 l 0,-34.76229 -65.66073,54.71035 c -36.11339,30.09069 -67.446804,54.71034 -69.629801,54.71034 -2.182996,0 -35.153526,-26.24101 -73.26785,-58.31337 z"
           style="fill:#feaf5d" />
      </g>
      <path
         inkscape:connector-curvature="0"
         id="path3734"
         d="M 506.90812,478.96743 C 496.50757,463.32321 482.80883,410.01253 476.46648,360.49925 460.65403,237.05535 495.48996,177.76526 619.49315,117.07053 705.57269,74.937954 750.78839,68.301675 951.77569,68.301675 c 200.98731,0 246.20301,6.636279 332.28251,48.768855 122.2125,59.81825 158.2929,120.01468 145.1654,242.19393 -14.5676,135.58321 -35.7795,151.44251 -155.9238,116.57794 -117.0846,-33.97663 -134.0422,-50.96791 -158.2178,-158.53307 l -17.9305,-79.77895 -145.35132,0 -145.35118,0 -22.67154,100.20578 c -22.01108,97.28671 -25.2909,100.94486 -112.59075,125.57682 -49.45556,13.95405 -102.39531,29.58473 -117.64388,34.73474 -15.24853,5.15004 -36.23414,-3.4361 -46.63471,-19.08029 z m 133.94425,-60.39266 c 83.8439,-22.44699 87.84341,-26.8602 106.02319,-116.98918 15.2392,-75.55062 29.04313,-98.07962 71.3855,-116.50606 67.75254,-29.48439 199.80534,-29.25441 268.10254,0.46703 52.3088,22.76363 58.183,34.06702 79.1904,152.37835 8.6103,48.49315 23.6534,60.97444 97.2311,80.6729 122.3658,32.76019 119.8141,34.51385 119.8141,-82.3409 0,-104.62764 -0.788,-106.12923 -81.8564,-155.96755 -75.1433,-46.19571 -103.7629,-50.32282 -348.96711,-50.32282 -245.20426,0 -273.82378,4.12711 -348.96702,50.32282 -81.06837,49.83832 -81.85646,51.33991 -81.85646,155.96755 0,116.86466 -2.56395,115.10435 119.90016,82.31786 z"
         style="fill:#000000" />
    </g>
  </g>
</svg>
