<?xml version="1.0" encoding="UTF-8" standalone="no"?>
<!-- Created with Inkscape (http://www.inkscape.org/) -->

<svg
   xmlns:dc="http://purl.org/dc/elements/1.1/"
   xmlns:cc="http://creativecommons.org/ns#"
   xmlns:rdf="http://www.w3.org/1999/02/22-rdf-syntax-ns#"
   xmlns:svg="http://www.w3.org/2000/svg"
   xmlns="http://www.w3.org/2000/svg"
   xmlns:sodipodi="http://sodipodi.sourceforge.net/DTD/sodipodi-0.dtd"
   xmlns:inkscape="http://www.inkscape.org/namespaces/inkscape"
   width="56.056843"
   height="55.997154"
   id="svg2"
   version="1.1"
   inkscape:version="0.48.5 r10040"
   sodipodi:docname="g.svg">
  <defs
     id="defs4" />
  <sodipodi:namedview
     id="base"
     pagecolor="#ffffff"
     bordercolor="#666666"
     borderopacity="1.0"
     inkscape:pageopacity="0.0"
     inkscape:pageshadow="2"
     inkscape:zoom="7.919596"
     inkscape:cx="38.076703"
     inkscape:cy="20.635728"
     inkscape:document-units="px"
     inkscape:current-layer="layer1"
     showgrid="false"
     fit-margin-top="0"
     fit-margin-left="0"
     fit-margin-right="0"
     fit-margin-bottom="0"
     inkscape:window-width="1366"
     inkscape:window-height="717"
     inkscape:window-x="0"
     inkscape:window-y="0"
     inkscape:window-maximized="1" />
  <metadata
     id="metadata7">
    <rdf:RDF>
      <cc:Work
         rdf:about="">
        <dc:format>image/svg+xml</dc:format>
        <dc:type
           rdf:resource="http://purl.org/dc/dcmitype/StillImage" />
        <dc:title />
      </cc:Work>
    </rdf:RDF>
  </metadata>
  <g
     inkscape:label="Layer 1"
     inkscape:groupmode="layer"
     id="layer1"
     transform="translate(-529.8365,-324.93828)">
    <g
       id="g2984"
       transform="matrix(0.06175418,0,0,0.06911503,497.11688,354.60707)">
      <path
         sodipodi:nodetypes="sscssscccsssssscccccsssssss"
         inkscape:connector-curvature="0"
         id="path3792"
         d="m 948.89116,356.23292 c 0,-4.34116 22.06249,-48.02397 49.02776,-97.07293 l 49.02778,-89.17986 -81.55687,0 c -61.65194,0 -81.55683,-5.46734 -81.55683,-22.40145 0,-18.94889 38.85419,-22.40143 252.1005,-22.40143 l 252.1004,0 0,-231.48158 0,-231.48157 -260.2327,0 c -162.6455,0 -260.23276,-5.60035 -260.23276,-14.9343 0,-8.21385 39.89106,-14.93428 88.64681,-14.93428 67.07865,0 92.80075,-6.35878 105.71955,-26.13502 16.2597,-24.89048 17.8857,-24.89048 34.1455,0 14.434,22.09563 42.144,26.13502 179.2853,26.13502 l 162.2126,0 -4.4415,265.08372 -4.4414,265.08374 -158.5165,4.27367 -158.5166,4.27368 48.7309,88.63978 c 53.9993,98.22305 55.9173,104.42583 32.2896,104.42583 -9.0427,0 -36.1841,-36.96238 -60.3142,-82.13863 -24.13,-45.17624 -48.1425,-82.1386 -53.361,-82.1386 -5.2184,0 -29.2309,36.96236 -53.361,82.1386 -24.13,45.17625 -51.27138,82.13863 -60.31408,82.13863 -9.0427,0 -16.44126,-3.55186 -16.44126,-7.89302 z"
         style="fill:#000000" />
      <path
         sodipodi:nodetypes="sssssscssssccsssssscssscsssssssssssssssssss"
         inkscape:connector-curvature="0"
         id="path3774"
         d="m 641.48787,363.32207 c -24.64249,-15.856 -30.32863,-38.95552 -30.32863,-123.20792 0,-57.03127 -6.79627,-103.69322 -15.10279,-103.69322 -46.28973,0 -66.21995,-50.05903 -66.21995,-166.325781 0,-158.954669 27.09899,-206.340399 118.26666,-206.802909 32.72618,-0.16603 50.27966,10.25764 64.06831,38.04525 l 18.99211,38.27397 22.13344,-38.78817 c 21.89511,-38.3705 23.91973,-38.74241 188.03217,-34.54037 160.95681,4.12125 166.06231,5.30964 171.38791,39.89461 7.586,49.2639 -20.5958,60.93243 -147.80396,61.19741 l -109.7857,0.22868 c -29.00465,140.2055252 14.83742,375.2318 -21.24844,483.93665 -26.07195,32.73931 -148.19704,40.2181 -192.39113,11.7818 z m 67.25865,-129.82823 c 0,-89.60575 4.87938,-112.00721 24.39683,-112.00721 19.51746,0 24.39681,22.40146 24.39681,112.00721 0,89.60576 4.87936,112.0072 24.39682,112.0072 20.72705,0 24.39683,-38.09831 24.39683,-253.279027 l 0,-253.279013 132.87337,-4.33757 c 88.30072,-2.88248 135.13122,-10.59974 139.60402,-23.00542 5.0355,-13.96619 -28.4961,-18.66787 -133.13649,-18.66787 l -139.86718,0 -27.14607,52.27005 c -34.26948,65.986219 -56.76674,65.986219 -91.03622,0 -28.19917,-54.29776 -56.09096,-65.00492 -89.47764,-34.34888 -24.21431,22.23386 -27.20962,280.764741 -3.25292,280.764741 9.31226,0 16.26456,-45.21774 16.26456,-105.784592 0,-77.980929 5.34356,-104.153649 20.33069,-99.579329 14.80214,4.51784 21.55159,67.803181 24.82045,232.72608 3.72134,187.752 8.59275,226.52083 28.46294,226.52083 18.99027,0 23.9732,-23.28111 23.9732,-112.0072 z m -59.64958,-539.35552 c -24.96013,-34.97836 -25.37089,-43.16539 -3.93367,-78.40505 16.88534,-27.75704 39.67176,-40.74842 77.35153,-44.10095 68.46506,-6.09162 100.08355,18.63417 100.08355,78.26578 0,60.43444 -25.34256,83.29686 -92.33298,83.29686 -39.52984,0 -60.49765,-10.08929 -81.16843,-39.05664 z m 125.83924,-14.46521 c 28.89308,-31.96667 -0.16984,-73.41965 -51.47498,-73.41965 -44.25721,0 -60.95602,41.50584 -30.33077,75.38889 25.50748,28.22092 55.16359,27.50704 81.80575,-1.96924 z"
         style="fill:#feb161" />
    </g>
  </g>
</svg>
