<svg xmlns="http://www.w3.org/2000/svg" width="36.016" height="40.035"><path d="M12.03 23.382c-2.896-3.688-2.85-7.278.858-10.547 2.99-2.634 5.378-2.133 8.112-1.985 1.128.062 2.23.757 2.773-.139.858-1.418 1.279-.533 1.294 1.573.016 2.152-.019 2.343-2.067 2.343-1.418 0-3.87.513-2.723-.897 1.263-1.551-3.15-2.144-5.848-.373-4.606 3.023-1.954 11.676 3.58 11.676 2.368 0 6.05-3.38 6.05-5.555 0-.833.453-1.515 1.008-1.515 1.661 0 1.145 2.583-1.082 5.419-1.612 2.053-3.043 3.21-6.042 3.21-2.998 0-4.3-1.157-5.912-3.21z" fill="#feb059"/><path d="M12.598 35.895C6.47 30.493 3.175 24.701 1.368 16.162-.505 7.308-.49 6.765 1.632 6.027c.97-.338 4.907-1.966 8.75-3.618C16.277-.127 17.848-.433 20.464.446c4.27 1.434 14.622 5.847 15.293 6.52 1.146 1.147-1.728 12.614-4.667 18.623-2.686 5.49-10.79 14.446-13.073 14.446-.398 0-2.837-1.863-5.42-4.14zm8.965-.348c1.778-1.358 4.64-4.668 6.363-7.357 3.095-4.83 6.661-16.075 6.042-19.053-.429-2.065-11.54-6.81-15.95-6.81-3.075 0-14.05 3.973-15.79 5.716-1.158 1.16 1.84 13.29 4.502 18.214 2.22 4.107 9.457 11.758 11.123 11.758.263 0 1.933-1.11 3.71-2.468z"/></svg>